<?xml version="1.0" standalone="no"?>
<!DOCTYPE svg PUBLIC "-//W3C//DTD SVG 20010904//EN"
 "http://www.w3.org/TR/2001/REC-SVG-20010904/DTD/svg10.dtd">
<svg version="1.0" xmlns="http://www.w3.org/2000/svg"
 width="228.000000pt" height="230.000000pt" viewBox="0 0 228.000000 230.000000"
 preserveAspectRatio="xMidYMid meet">

<g transform="translate(0.000000,230.000000) scale(0.100000,-0.100000)"
fill="#000000" stroke="none">
<path d="M1626 1998 c-9 -12 -16 -33 -16 -45 l0 -23 -420 0 -420 0 0 30 c0 38
-31 57 -66 41 -18 -8 -24 -19 -24 -41 l0 -30 -132 0 c-154 0 -203 -16 -238
-72 -19 -32 -20 -49 -20 -662 0 -611 1 -631 20 -670 11 -23 33 -50 48 -61 26
-20 43 -20 824 -20 l797 0 32 30 c61 58 59 36 59 722 0 612 -1 629 -20 661
-34 55 -86 72 -222 72 l-118 0 0 33 c0 18 -5 38 -12 45 -19 19 -55 14 -72 -10z
m-946 -212 c9 -70 85 -65 92 7 l3 32 415 3 416 2 9 -32 c13 -42 36 -55 69 -40
20 9 26 19 26 42 l0 30 111 0 c61 0 119 -5 130 -10 17 -10 19 -22 19 -140 l0
-130 -790 0 -790 0 0 130 c0 112 2 130 18 139 10 6 69 10 142 8 l125 -2 5 -39z
m1290 -773 c0 -392 -2 -438 -17 -455 -15 -17 -52 -18 -771 -18 -689 0 -757 1
-774 17 -17 15 -18 42 -18 455 l0 438 790 0 790 0 0 -437z"/>
<path d="M607 1249 c-14 -8 -17 -25 -17 -93 0 -59 4 -87 14 -95 9 -8 52 -11
127 -9 l114 3 3 94 c2 66 -1 97 -9 102 -18 11 -211 9 -232 -2z"/>
<path d="M1067 1248 c-24 -13 -25 -183 -1 -192 20 -8 208 -8 228 0 13 5 16 23
16 95 0 78 -2 90 -20 99 -24 13 -200 12 -223 -2z"/>
<path d="M1527 1253 c-16 -4 -17 -15 -15 -101 l3 -97 114 -3 c75 -2 118 1 127
9 10 8 14 36 14 95 0 70 -3 85 -18 93 -17 9 -189 12 -225 4z"/>
<path d="M604 887 c-3 -8 -4 -52 -2 -98 l3 -84 125 0 125 0 0 95 0 95 -123 3
c-96 2 -124 0 -128 -11z"/>
<path d="M1064 887 c-3 -8 -4 -52 -2 -98 l3 -84 125 0 125 0 3 75 c5 126 11
120 -129 120 -90 0 -121 -3 -125 -13z"/>
<path d="M1524 887 c-3 -8 -4 -52 -2 -98 l3 -84 119 -3 c89 -2 121 1 128 10
12 21 10 162 -4 176 -18 18 -237 17 -244 -1z"/>
</g>
</svg>
