<svg width="237" height="270" version="1.1" xmlns="http://www.w3.org/2000/svg" desc="Created with imagetracer.js version 1.2.6" ><path fill="rgb(254,254,251)" stroke="rgb(254,254,251)" stroke-width="1" opacity="1" d="M 96 15 L 103.5 17 L 105 16.5 L 104.5 18 L 109.5 16 L 109.5 17 L 108 17.5 L 110.5 18 L 115.5 16 L 115.5 17 L 110 19.5 L 116 21 Q 117.3 24 113.5 23 L 107.5 20 L 105.5 20 L 102.5 18 L 97.5 19 L 95.5 19 L 88.5 18 L 78.5 20 L 76.5 20 L 61.5 22 Q 55 23.5 52 28.5 Q 52.8 30.8 50.5 30 L 52 32.5 L 52 106.5 L 51 107.5 L 53 108.5 L 49.5 113 L 47 111.5 Q 46.3 109.3 48.5 110 L 50 109.5 L 49.5 111 Q 52.1 111.8 51 108.5 L 47 105.5 L 51 103 L 50.5 99 L 49 99.5 L 49 32.5 L 50 31.5 L 49 29 L 51 28.5 Q 48.3 26.8 52.5 25 L 54 25.5 Q 52.5 21.1 55.5 22 L 57.5 22 Q 61.3 22.8 62 20.5 Q 61.5 16.5 64.5 16 L 67 16 Q 65.3 20.1 69.5 19 L 72.5 18 L 79.5 17 L 84 18 L 84.5 16 L 91.5 16 L 94.5 18 L 96 15 Z M 66 18 L 64 20 L 67 20 L 66 18 Z " /><path fill="rgb(254,254,251)" stroke="rgb(254,254,251)" stroke-width="1" opacity="1" d="M 48 16 L 50 16.5 L 48 17.5 L 48 16 Z " /><path fill="rgb(254,254,251)" stroke="rgb(254,254,251)" stroke-width="1" opacity="1" d="M 55 16 Q 57.7 14.9 57 17.5 L 58 20 L 55 18.5 L 55 16 Z " /><path fill="rgb(254,254,251)" stroke="rgb(254,254,251)" stroke-width="1" opacity="1" d="M 124.5 16 L 132 16.5 Q 131.3 18.8 127.5 18 L 124.5 17 L 124.5 16 Z " /><path fill="rgb(254,254,251)" stroke="rgb(254,254,251)" stroke-width="1" opacity="1" d="M 181.5 16 L 187 16.5 Q 186.3 18.8 182.5 18 L 181.5 16 Z " /><path fill="rgb(254,254,251)" stroke="rgb(254,254,251)" stroke-width="1" opacity="1" d="M 140.5 18 L 141 19.5 L 139 20.5 L 140.5 18 Z " /><path fill="rgb(254,254,251)" stroke="rgb(254,254,251)" stroke-width="1" opacity="1" d="M 48.5 19 L 50 21.5 L 48 22.5 L 48.5 19 Z " /><path fill="rgb(254,254,251)" stroke="rgb(254,254,251)" stroke-width="1" opacity="1" d="M 176 20 L 182 22.5 Q 180.6 25.3 176 24 L 176 20 Z " /><path fill="rgb(254,254,251)" stroke="rgb(254,254,251)" stroke-width="1" opacity="1" d="M 198.5 20 Q 206.8 17.5 204 25 L 202.5 25 L 198.5 20 Z " /><path fill="rgb(254,254,251)" stroke="rgb(254,254,251)" stroke-width="1" opacity="1" d="M 117.5 22 Q 125.3 20.7 127.5 25 L 129.5 22 L 132 23.5 L 130 24 L 131 27.5 L 128.5 28 L 123 26 L 122.5 24 L 120.5 24 Q 116.7 24.5 117.5 22 Z " /><path fill="rgb(254,254,251)" stroke="rgb(254,254,251)" stroke-width="1" opacity="1" d="M 49.5 24 L 51 24.5 L 48.5 26 L 49.5 24 Z " /><path fill="rgb(254,254,251)" stroke="rgb(254,254,251)" stroke-width="1" opacity="1" d="M 183 24 Q 195.2 22.1 199 29.5 L 198 31.5 L 200 32 L 200 95.5 L 198 101.5 L 200 104.5 L 200 108.5 L 198 110.5 Q 198.5 114.5 195.5 115 L 193.5 116 L 190.5 115 L 187.5 118 L 180.5 119 L 176.5 122 L 171.5 120 Q 170.3 122.2 165.5 121 L 162 123.5 L 161.5 125 L 155.5 121 L 144 120 Q 145.1 123.3 141 122 L 140.5 119 L 138.5 119 Q 132.5 120.5 131 117.5 L 130 114.5 L 131.5 115 L 139.5 118 L 141.5 118 L 143.5 119 L 159.5 119 L 161.5 120 L 172.5 118 L 174.5 119 L 178.5 117 L 181.5 118 L 192.5 113 L 193.5 115 L 194.5 112 Q 197.8 113.1 197 110.5 Q 194.5 109 196 103.5 L 197 98.5 L 197 96.5 L 197 30.5 L 196 27 L 189.5 29 L 187.5 28 L 184.5 31 L 181 29.5 L 185 27.5 L 183 24 Z M 190 25 L 188 27 L 191 27 L 190 25 Z " /><path fill="rgb(254,254,251)" stroke="rgb(254,254,251)" stroke-width="1" opacity="1" d="M 141.5 26 Q 145.3 25 144 28 L 141.5 26 Z " /><path fill="rgb(254,254,251)" stroke="rgb(254,254,251)" stroke-width="1" opacity="1" d="M 132.5 27 L 139.5 31 L 167.5 32 L 168.5 31 L 180.5 31 L 180.5 32 L 175.5 32 L 168.5 34 L 150.5 34 Q 146.5 31 138.5 32 L 135.5 30 L 134 30.5 L 134.5 29 L 132.5 27 Z " /><path fill="rgb(254,254,251)" stroke="rgb(254,254,251)" stroke-width="1" opacity="1" d="M 176 28 L 179 28.5 L 176 30 L 176 28 Z " /><path fill="rgb(254,254,251)" stroke="rgb(254,254,251)" stroke-width="1" opacity="1" d="M 204 29 L 208 30 Q 209.1 32.7 206.5 32 L 204 33 L 204 29 Z " /><path fill="rgb(254,254,251)" stroke="rgb(254,254,251)" stroke-width="1" opacity="1" d="M 204 95 Q 207.7 93.7 206 99.5 L 205 99.5 L 204 95 Z " /><path fill="rgb(254,254,251)" stroke="rgb(254,254,251)" stroke-width="1" opacity="1" d="M 84.5 104 L 102.5 105 L 112 108.5 L 108.5 110 L 103.5 107 L 101.5 107 L 87.5 106 Q 85.8 108.8 80.5 108 L 78.5 108 L 72.5 109 L 70.5 108 L 67.5 109 L 67.5 108 L 71.5 106 L 78.5 105 L 80.5 105 L 84.5 104 Z " /><path fill="rgb(254,254,251)" stroke="rgb(254,254,251)" stroke-width="1" opacity="1" d="M 204 104 Q 207.5 102.9 206 110.5 L 204 109.5 L 204 104 Z " /><path fill="rgb(254,254,251)" stroke="rgb(254,254,251)" stroke-width="1" opacity="1" d="M 64 108 L 66 108.5 L 64 109.5 L 64 108 Z " /><path fill="rgb(254,254,251)" stroke="rgb(254,254,251)" stroke-width="1" opacity="1" d="M 96.5 108 L 101 108.5 L 96.5 109 L 96.5 108 Z " /><path fill="rgb(254,254,251)" stroke="rgb(254,254,251)" stroke-width="1" opacity="1" d="M 114.5 109 L 126 112.5 L 123 114.5 Q 123.8 111.9 120.5 113 Q 119.2 110.7 114.5 112 L 113 110.5 L 114.5 109 Z " /><path fill="rgb(254,254,251)" stroke="rgb(254,254,251)" stroke-width="1" opacity="1" d="M 96.5 110 L 99 110.5 L 96.5 111 L 96.5 110 Z " /><path fill="rgb(254,254,251)" stroke="rgb(254,254,251)" stroke-width="1" opacity="1" d="M 111.5 110 L 110.5 112 L 111.5 110 Z " /><path fill="rgb(254,254,251)" stroke="rgb(254,254,251)" stroke-width="1" opacity="1" d="M 52.5 112 L 53 263.5 L 52.5 268 L 51 266.5 L 52 263.5 L 52.5 112 Z " /><path fill="rgb(254,254,251)" stroke="rgb(254,254,251)" stroke-width="1" opacity="1" d="M 127 114 L 129 114.5 L 127 115.5 L 127 114 Z " /><path fill="rgb(254,254,251)" stroke="rgb(254,254,251)" stroke-width="1" opacity="1" d="M 128 122 L 133 122.5 Q 131.8 125 128 124 L 128 122 Z " /><path fill="rgb(254,254,251)" stroke="rgb(254,254,251)" stroke-width="1" opacity="1" d="M 188 122 Q 193.2 120.3 192 124 Q 186.8 125.7 188 122 Z " /><path fill="rgb(254,254,251)" stroke="rgb(254,254,251)" stroke-width="1" opacity="1" d="M 144 123 L 147 124.5 Q 145.5 127.5 144 124.5 L 144 123 Z " /><path fill="rgb(254,254,251)" stroke="rgb(254,254,251)" stroke-width="1" opacity="1" d="M 174.5 123 L 175.5 125 Q 172.7 125.7 174.5 123 Z " /><path fill="rgb(254,254,251)" stroke="rgb(254,254,251)" stroke-width="1" opacity="1" d="M 138.5 125 L 141 125.5 L 137 128 L 138.5 125 Z " /><path fill="rgb(254,254,251)" stroke="rgb(254,254,251)" stroke-width="1" opacity="1" d="M 180 125 Q 183 124 182 127 Q 179 128 180 125 Z " /><path fill="rgb(254,254,251)" stroke="rgb(254,254,251)" stroke-width="1" opacity="1" d="M 149 126 Q 153.6 124.8 155 127.5 L 149 128 L 149 126 Z " /><path fill="rgb(254,254,251)" stroke="rgb(254,254,251)" stroke-width="1" opacity="1" d="M 166 126 L 171 126 L 171 128 L 166 128 L 166 126 Z " /><path fill="rgb(254,254,251)" stroke="rgb(254,254,251)" stroke-width="1" opacity="1" d="M 48.5 268 L 51 268.5 Q 51.8 270.8 49.5 270 L 48.5 268 Z " /><path fill="rgb(142,119,93)" stroke="rgb(142,119,93)" stroke-width="1" opacity="1" d="M 61.5 107 L 63 107.5 L 63 269 Q 60.9 270.6 55.5 270 L 53 269 L 53 111.5 L 55.5 109 L 61.5 107 Z " /><path fill="rgb(253,159,43)" stroke="rgb(253,159,43)" stroke-width="1" opacity="1" d="M 81.5 20 L 103.5 21 Q 120.7 24.8 134.5 32 L 147.5 35 L 172.5 35 L 195 29 L 195 110.5 L 193.5 112 L 172.5 118 L 147.5 118 L 103.5 104 L 81.5 103 L 61.5 107 L 54.5 110 L 53 106.5 L 54 105.5 L 54 27 L 65.5 23 L 81.5 20 Z M 87 23 L 80 24 Q 79 28 84 26 L 84 28 Q 78 29 77 25 L 70 25 L 58 29 L 58 31 L 57 32 L 57 102 L 57 104 Q 56 106 59 105 L 62 104 Q 65 105 64 102 Q 71 103 74 101 L 77 96 L 78 100 L 79 97 Q 80 94 85 95 L 85 97 L 92 95 Q 99 93 102 97 L 97 100 L 90 99 L 92 98 L 92 97 L 80 99 Q 88 98 93 101 Q 98 103 100 100 L 108 102 L 116 102 L 121 98 L 129 98 L 129 100 L 116 104 L 120 106 L 123 105 L 123 107 L 127 104 L 129 106 L 128 109 L 129 111 L 137 111 L 142 114 Q 146 115 148 113 L 156 115 L 155 114 L 157 114 L 162 114 L 159 113 L 159 112 L 167 114 L 176 114 L 176 113 Q 178 109 180 113 L 182 111 L 191 111 L 191 50 L 189 48 Q 188 45 191 46 L 192 44 L 192 40 L 189 33 L 186 33 L 181 37 L 172 37 L 171 38 L 168 37 L 168 39 L 167 38 L 162 39 Q 157 37 149 38 L 148 37 L 139 37 L 138 36 Q 135 37 136 35 Q 135 32 131 33 L 130 36 L 127 35 Q 128 32 125 33 L 125 31 L 122 29 L 117 31 L 119 32 L 117 33 L 117 32 L 115 30 L 111 32 Q 112 34 110 33 L 108 29 Q 113 30 115 28 L 99 23 L 95 24 L 87 23 Z M 82 100 L 82 101 L 85 101 L 82 100 Z M 128 105 L 127 108 L 128 108 L 128 105 Z M 164 114 L 164 115 L 166 115 L 164 114 Z " /><path fill="rgb(253,159,43)" stroke="rgb(253,159,43)" stroke-width="1" opacity="1" d="M 92 26 L 102 28 Q 103.3 31.3 98.5 30 L 95.5 33 L 81.5 33 L 78.5 32 Q 76.8 34.8 70.5 33 L 69 30 L 66 28.5 L 70.5 28 L 79.5 31 L 85.5 29 L 90.5 29 L 96 30 L 96 28 Q 90.8 29.7 92 26 Z " /><path fill="rgb(253,159,43)" stroke="rgb(253,159,43)" stroke-width="1" opacity="1" d="M 62.5 29 L 65 33.5 L 65 94.5 L 67 96.5 L 64 101 L 61 99.5 L 62 97.5 L 62 32.5 L 62 30.5 L 62.5 29 Z " /><path fill="rgb(253,159,43)" stroke="rgb(253,159,43)" stroke-width="1" opacity="1" d="M 131 40 L 144.5 42 L 150.5 40 L 155 42 L 153.5 45 L 138.5 46 L 133.5 45 L 131 42.5 L 131 40 Z " /><path fill="rgb(253,159,43)" stroke="rgb(253,159,43)" stroke-width="1" opacity="1" d="M 183.5 40 Q 188 39 189 41.5 L 186.5 45 L 176 46 Q 177.1 48.7 174.5 48 L 173 45 L 165.5 44 L 162.5 49 L 160 47.5 Q 157.3 39.7 164.5 42 L 165.5 41 L 175.5 41 L 179.5 42 L 183.5 40 Z " /><path fill="rgb(253,159,43)" stroke="rgb(253,159,43)" stroke-width="1" opacity="1" d="M 109.5 95 Q 115.5 93.5 117 96.5 L 115.5 98 L 108 99 L 109.5 95 Z " /><path fill="rgb(254,159,43)" stroke="rgb(254,159,43)" stroke-width="1" opacity="1" d="M 86.5 23 L 94.5 24 L 98.5 23 L 115 27.5 Q 112.7 29.9 108 29 L 109.5 33 Q 111.8 33.8 111 31.5 L 114.5 30 L 116.5 31 L 121.5 29 L 125 31 L 125 33 Q 127.7 31.9 127 34.5 L 129.5 36 L 131 33 Q 134.8 32 136 34.5 Q 135.3 36.8 137.5 36 L 138.5 37 L 147.5 37 L 148.5 38 Q 156.8 36.8 161.5 39 L 168.5 37 L 170.5 38 L 171.5 37 L 180.5 37 L 185.5 33 L 189 33 L 192 39.5 L 192 43.5 L 191 46 Q 188.3 44.9 189 47.5 L 191 49.5 L 191 111 L 181.5 111 L 179.5 113 Q 177.8 109.3 176 112.5 L 175.5 114 L 166.5 114 L 163.5 115 L 163.5 114 L 166 113.5 L 162.5 113 L 154.5 115 L 147.5 113 Q 146.3 115.3 141.5 114 L 136.5 111 L 129 111 L 127 105.5 L 127.5 104 L 122.5 107 L 116 103.5 L 129 100 L 128.5 98 L 120.5 98 L 115.5 102 L 107.5 102 L 99.5 100 Q 98 102.5 92.5 101 Q 88.5 98 80.5 99 L 77 99.5 L 76.5 96 L 74 101 Q 70.9 103 64 102 Q 65.3 105 61.5 104 L 58.5 105 L 56.5 106 L 57 104.5 L 58 102.5 L 57 101.5 L 57 31.5 L 57.5 29 L 69.5 25 L 76.5 25 Q 78 29.3 84 28 L 84 26 Q 78.8 27.7 80 24 L 86.5 23 Z M 92 26 Q 91 30 96 28 L 96 30 L 91 29 L 86 29 L 80 31 L 71 28 L 66 29 L 69 30 L 71 33 Q 77 35 79 32 L 82 33 L 96 33 L 99 30 Q 103 31 102 28 L 92 26 Z M 63 29 L 62 31 L 62 33 L 62 98 L 61 100 L 64 101 L 67 97 L 65 95 L 65 34 L 63 29 Z M 131 40 L 131 43 L 134 45 L 139 46 L 154 45 L 155 42 L 151 40 L 145 42 L 131 40 Z M 184 40 L 180 42 L 176 41 L 166 41 L 165 42 Q 157 40 160 48 L 163 49 L 166 44 L 173 45 L 175 48 Q 177 49 176 46 L 187 45 L 189 42 Q 188 39 184 40 Z M 81 95 L 79 97 L 80 99 L 88 98 L 85 97 L 85 96 L 81 95 Z M 92 95 L 88 97 L 92 98 L 90 99 L 97 100 L 102 97 Q 99 94 92 95 Z M 110 95 L 108 99 L 116 98 L 117 97 Q 115 94 110 95 Z M 129 105 L 128 108 L 129 108 L 129 105 Z M 159 112 L 159 113 L 162 113 L 159 112 Z " /><path fill="rgb(254,159,43)" stroke="rgb(254,159,43)" stroke-width="1" opacity="1" d="M 81.5 100 L 85 100.5 L 81.5 101 L 81.5 100 Z " /><path fill="rgb(250,250,247)" stroke="rgb(250,250,247)" stroke-width="1" opacity="1" d="M 88.5 18 L 95.5 19 L 97.5 19 L 104 19.5 L 90.5 20 L 88.5 18 Z " /><path fill="rgb(250,250,247)" stroke="rgb(250,250,247)" stroke-width="1" opacity="1" d="M 82.5 19 L 86 19.5 L 82.5 20 L 82.5 19 Z " /><path fill="rgb(250,250,247)" stroke="rgb(250,250,247)" stroke-width="1" opacity="1" d="M 107.5 20 L 112 21.5 L 108.5 22 L 107.5 20 Z " /><path fill="rgb(250,250,247)" stroke="rgb(250,250,247)" stroke-width="1" opacity="1" d="M 67.5 21 L 70 21.5 L 67.5 22 L 67.5 21 Z " /><path fill="rgb(250,250,247)" stroke="rgb(250,250,247)" stroke-width="1" opacity="1" d="M 61.5 22 L 64 22.5 L 55.5 26 L 56.5 24 L 61.5 22 Z " /><path fill="rgb(250,250,247)" stroke="rgb(250,250,247)" stroke-width="1" opacity="1" d="M 116.5 22 L 117.5 24 L 116.5 22 Z " /><path fill="rgb(250,250,247)" stroke="rgb(250,250,247)" stroke-width="1" opacity="1" d="M 119.5 24 L 121.5 25 L 123 24.5 Q 123.8 26.8 121.5 26 L 119.5 24 Z " /><path fill="rgb(250,250,247)" stroke="rgb(250,250,247)" stroke-width="1" opacity="1" d="M 53.5 25 L 52.5 27 L 53.5 25 Z " /><path fill="rgb(250,250,247)" stroke="rgb(250,250,247)" stroke-width="1" opacity="1" d="M 128.5 26 L 127.5 28 L 126 27.5 L 128.5 26 Z " /><path fill="rgb(250,250,247)" stroke="rgb(250,250,247)" stroke-width="1" opacity="1" d="M 131.5 27 L 136 30.5 L 134.5 30 L 129 28.5 L 131.5 27 Z " /><path fill="rgb(250,250,247)" stroke="rgb(250,250,247)" stroke-width="1" opacity="1" d="M 187.5 28 L 189 28.5 L 185.5 31 L 187.5 28 Z " /><path fill="rgb(250,250,247)" stroke="rgb(250,250,247)" stroke-width="1" opacity="1" d="M 50.5 30 Q 52.8 29.3 52 31.5 L 50.5 30 Z " /><path fill="rgb(250,250,247)" stroke="rgb(250,250,247)" stroke-width="1" opacity="1" d="M 183.5 30 L 182.5 32 L 181 31.5 L 183.5 30 Z " /><path fill="rgb(250,250,247)" stroke="rgb(250,250,247)" stroke-width="1" opacity="1" d="M 143.5 32 L 146 32.5 L 143.5 33 L 143.5 32 Z " /><path fill="rgb(250,250,247)" stroke="rgb(250,250,247)" stroke-width="1" opacity="1" d="M 168.5 32 L 171 33.5 L 169.5 34 L 168.5 32 Z " /><path fill="rgb(250,250,247)" stroke="rgb(250,250,247)" stroke-width="1" opacity="1" d="M 196.5 32 L 197 96.5 L 196 96.5 L 196.5 32 Z " /><path fill="rgb(250,250,247)" stroke="rgb(250,250,247)" stroke-width="1" opacity="1" d="M 196.5 98 L 197 102.5 L 196 102.5 L 196.5 98 Z " /><path fill="rgb(250,250,247)" stroke="rgb(250,250,247)" stroke-width="1" opacity="1" d="M 52.5 99 L 53 101.5 L 52 101.5 L 52.5 99 Z " /><path fill="rgb(250,250,247)" stroke="rgb(250,250,247)" stroke-width="1" opacity="1" d="M 81.5 104 L 84 104.5 L 81.5 105 L 81.5 104 Z " /><path fill="rgb(250,250,247)" stroke="rgb(250,250,247)" stroke-width="1" opacity="1" d="M 93.5 104 L 99 104.5 L 93.5 105 L 93.5 104 Z " /><path fill="rgb(250,250,247)" stroke="rgb(250,250,247)" stroke-width="1" opacity="1" d="M 70.5 106 L 69.5 108 L 66.5 109 L 65.5 107 L 70.5 106 Z " /><path fill="rgb(250,250,247)" stroke="rgb(250,250,247)" stroke-width="1" opacity="1" d="M 111.5 107 L 118 109.5 L 116.5 110 L 112.5 109 L 111.5 107 Z " /><path fill="rgb(250,250,247)" stroke="rgb(250,250,247)" stroke-width="1" opacity="1" d="M 197.5 108 L 198 109.5 L 196.5 112 L 196 110.5 L 197.5 108 Z " /><path fill="rgb(250,250,247)" stroke="rgb(250,250,247)" stroke-width="1" opacity="1" d="M 52.5 109 L 53 111.5 L 52 111.5 L 52.5 109 Z " /><path fill="rgb(250,250,247)" stroke="rgb(250,250,247)" stroke-width="1" opacity="1" d="M 129.5 114 L 130.5 116 L 129.5 114 Z " /><path fill="rgb(250,250,247)" stroke="rgb(250,250,247)" stroke-width="1" opacity="1" d="M 135.5 116 L 138 116.5 L 135.5 117 L 135.5 116 Z " /><path fill="rgb(250,250,247)" stroke="rgb(250,250,247)" stroke-width="1" opacity="1" d="M 182.5 116 L 184 116.5 L 179.5 118 L 179.5 117 L 182.5 116 Z " /><path fill="rgb(250,250,247)" stroke="rgb(250,250,247)" stroke-width="1" opacity="1" d="M 141.5 117 L 148 118.5 L 143.5 119 L 141.5 117 Z " /><path fill="rgb(250,250,247)" stroke="rgb(250,250,247)" stroke-width="1" opacity="1" d="M 52.5 268 L 53.5 270 L 51 269.5 L 52.5 268 Z " /><path fill="rgb(246,236,212)" stroke="rgb(246,236,212)" stroke-width="1" opacity="1" d="M 80.5 19 L 82 19.5 L 80.5 21 Q 64.6 21.8 54 27 L 54 105.5 L 53 106.5 L 54 110.5 L 53 110.5 L 52 102.5 L 53 99.5 L 52 98.5 L 52 28.5 L 54.5 26 L 64.5 22 L 69.5 22 L 73.5 20 Q 79 21.5 80.5 19 Z " /><path fill="rgb(246,236,212)" stroke="rgb(246,236,212)" stroke-width="1" opacity="1" d="M 86.5 19 L 90 19.5 L 86.5 20 L 86.5 19 Z " /><path fill="rgb(246,236,212)" stroke="rgb(246,236,212)" stroke-width="1" opacity="1" d="M 96.5 20 L 104.5 20 L 108.5 22 L 116.5 23 L 134.5 31 L 148.5 34 L 170.5 34 L 176.5 32 L 181.5 32 L 181.5 33 Q 175.4 32.4 172.5 35 L 147.5 35 L 134.5 32 L 111.5 23 L 103.5 21 L 96.5 21 L 96.5 20 Z " /><path fill="rgb(246,236,212)" stroke="rgb(246,236,212)" stroke-width="1" opacity="1" d="M 193.5 27 L 196 28.5 L 197 31.5 L 196 32.5 L 196 112 Q 187 116.8 173.5 118 L 173.5 117 L 181.5 116 L 195 110.5 L 195 29.5 L 192.5 29 L 183.5 32 L 183.5 31 L 191.5 29 L 193.5 27 Z " /><path fill="rgb(246,236,212)" stroke="rgb(246,236,212)" stroke-width="1" opacity="1" d="M 81.5 103 L 96 103.5 L 81.5 104 L 65.5 107 L 64 108.5 L 64 268.5 L 62.5 270 L 61 269.5 L 63 269 L 63 107.5 L 64.5 107 L 81.5 103 Z " /><path fill="rgb(246,236,212)" stroke="rgb(246,236,212)" stroke-width="1" opacity="1" d="M 99.5 104 L 115.5 107 Q 127.2 113.3 142 116.5 L 138.5 117 L 120.5 111 L 115.5 108 L 99.5 105 L 99.5 104 Z " /><path fill="rgb(246,236,212)" stroke="rgb(246,236,212)" stroke-width="1" opacity="1" d="M 143.5 117 L 147 117.5 L 143.5 118 L 143.5 117 Z " /><path fill="rgb(246,236,212)" stroke="rgb(246,236,212)" stroke-width="1" opacity="1" d="M 148.5 118 L 172 118.5 L 148.5 119 L 148.5 118 Z " /><path fill="rgb(254,254,255)" stroke="rgb(254,254,255)" stroke-width="1" opacity="1" d="M 47 15 Q 52.4 13.5 54 16.5 L 54 18.5 L 54 20 L 58 20 L 57 16 L 64 15 L 62.5 18 Q 58.8 17 60 20 L 62 20.5 L 59.5 22 L 57.5 22 L 54 22 L 54 25 Q 50.3 23.5 51 26.5 L 49 30.5 Q 51.3 31.7 48.5 33 L 47 32.5 L 47 24.5 L 48 24.5 Q 47.3 26.8 49.5 26 L 50.5 24 Q 48.3 24.8 49 22.5 L 50 20.5 L 49.5 16 Q 47.3 15.3 48 17.5 L 47 17.5 L 47 15 Z " /><path fill="rgb(254,254,255)" stroke="rgb(254,254,255)" stroke-width="1" opacity="1" d="M 67 15 L 74.5 15 L 76 16.5 Q 74.8 19.3 69.5 18 L 68 17.5 L 66.5 20 L 64 19.5 L 67 18.5 L 67 15 Z " /><path fill="rgb(254,254,255)" stroke="rgb(254,254,255)" stroke-width="1" opacity="1" d="M 95.5 15 L 96 17 L 92 16.5 L 95.5 15 Z " /><path fill="rgb(254,254,255)" stroke="rgb(254,254,255)" stroke-width="1" opacity="1" d="M 119.5 15 L 123 16.5 Q 122.3 18.8 124.5 18 L 126.5 17 L 130.5 18 Q 132.2 14.5 138 16 L 138 18 Q 135.3 16.9 136 19.5 L 137 23 L 128.5 22 L 127.5 25 L 125 24 Q 126.3 21 122.5 22 L 121 19.5 L 121.5 18 L 118.5 17 L 118 20 Q 121 19 120 22 L 112.5 21 L 111 19.5 Q 111.8 17.3 109.5 18 L 110.5 16 L 111 18 L 116.5 16 Q 118 18.5 119.5 15 Z " /><path fill="rgb(254,254,255)" stroke="rgb(254,254,255)" stroke-width="1" opacity="1" d="M 176.5 15 L 179 16.5 L 178.5 18 L 183.5 19 L 188.5 18 L 190.5 16 L 192.5 16 Q 195.1 15.3 194 18 Q 191 17 192 20 Q 195.8 18.5 195 21.5 L 196 21.5 Q 195.3 19.3 197.5 20 L 200.5 25 L 202.5 25 L 204 25 L 204 20 L 208 20 L 208 27.5 L 206.5 28 L 204 29 L 203 32.5 L 203 95.5 L 204 100 L 206 100 Q 204.7 95.9 208 97 L 207 103.5 L 208 104.5 L 208 112 Q 204.5 113.1 206 105.5 L 206.5 104 L 204.5 103 L 203.5 113 L 198 112 L 200 108.5 L 199.5 107 L 202 108.5 L 202 96.5 L 200 95.5 L 200 32.5 L 199 28 L 191.5 23 Q 190 25.5 184.5 24 L 180 22 Q 181.2 18.3 176 20 L 176 17.5 Q 173.8 16.3 176.5 15 Z M 190 20 L 190 21 L 192 21 L 190 20 Z M 205 25 L 202 29 L 205 27 L 205 25 Z " /><path fill="rgb(254,254,255)" stroke="rgb(254,254,255)" stroke-width="1" opacity="1" d="M 195 15 L 206 16 L 206 19 L 201 19 L 200.5 17 Q 199.3 20 195 19 L 195 15 Z " /><path fill="rgb(254,254,255)" stroke="rgb(254,254,255)" stroke-width="1" opacity="1" d="M 80 16 L 84 16.5 L 80.5 18 L 80 16 Z " /><path fill="rgb(254,254,255)" stroke="rgb(254,254,255)" stroke-width="1" opacity="1" d="M 141 18 L 145 19.5 L 144 26 L 141 25.5 L 141.5 24 L 139 22.5 L 141 18 Z " /><path fill="rgb(254,254,255)" stroke="rgb(254,254,255)" stroke-width="1" opacity="1" d="M 132.5 23 L 138 26.5 Q 139.1 29.8 136.5 29 L 130 27 Q 128.5 23.3 131.5 24 L 132.5 23 Z " /><path fill="rgb(254,254,255)" stroke="rgb(254,254,255)" stroke-width="1" opacity="1" d="M 175 24 L 180.5 25 L 183 24 L 183 26 Q 178.9 24.7 180 28 L 175 28 L 175 24 Z " /><path fill="rgb(254,254,255)" stroke="rgb(254,254,255)" stroke-width="1" opacity="1" d="M 189.5 25 L 190.5 27 L 188 26.5 L 189.5 25 Z " /><path fill="rgb(254,254,255)" stroke="rgb(254,254,255)" stroke-width="1" opacity="1" d="M 139 29 Q 143.6 27.8 145 30.5 L 139 31 L 139 29 Z " /><path fill="rgb(254,254,255)" stroke="rgb(254,254,255)" stroke-width="1" opacity="1" d="M 208.5 31 L 209 96 L 204 95 L 204 33.5 L 205.5 33 L 208.5 31 Z " /><path fill="rgb(254,254,255)" stroke="rgb(254,254,255)" stroke-width="1" opacity="1" d="M 48.5 97 L 51 103 L 47 101.5 Q 46.3 97.8 48.5 97 Z " /><path fill="rgb(254,254,255)" stroke="rgb(254,254,255)" stroke-width="1" opacity="1" d="M 200.5 99 L 201 104 Q 198.3 105.1 199 102.5 L 198 100 L 200.5 99 Z " /><path fill="rgb(254,254,255)" stroke="rgb(254,254,255)" stroke-width="1" opacity="1" d="M 47.5 106 L 51 108.5 L 48.5 110 Q 46 109 47.5 106 Z " /><path fill="rgb(254,254,255)" stroke="rgb(254,254,255)" stroke-width="1" opacity="1" d="M 87.5 106 L 95.5 108 L 99.5 107 L 99.5 108 Q 94.5 107 95.5 110 L 90.5 110 L 88.5 110 L 85 110.5 Q 87.3 111.8 84.5 113 L 79.5 112 L 77.5 113 L 75 111.5 L 75.5 110 Q 73.2 113.2 66.5 112 L 66.5 110 L 65 109.5 L 75.5 109 L 79.5 107 L 80 110 Q 83.8 111 85 108.5 Q 84.3 106.3 86.5 107 L 87.5 106 Z " /><path fill="rgb(254,254,255)" stroke="rgb(254,254,255)" stroke-width="1" opacity="1" d="M 101 108 L 109.5 110 L 113.5 109 L 111.5 112 L 110 111.5 Q 110.5 114.5 103.5 113 L 99 112 L 101 108 Z " /><path fill="rgb(254,254,255)" stroke="rgb(254,254,255)" stroke-width="1" opacity="1" d="M 50.5 110 L 51.5 112 L 50.5 110 Z " /><path fill="rgb(254,254,255)" stroke="rgb(254,254,255)" stroke-width="1" opacity="1" d="M 92.5 111 L 96 111.5 L 92.5 112 L 92.5 111 Z " /><path fill="rgb(254,254,255)" stroke="rgb(254,254,255)" stroke-width="1" opacity="1" d="M 126.5 115 L 128.5 115 L 131 116.5 L 132.5 119 L 138.5 119 Q 139.9 123 145 122 Q 143.9 119.3 146.5 120 Q 148.3 122.8 154.5 121 L 156 122.5 Q 156.8 125.1 153.5 124 L 142.5 128 L 142.5 126 L 140.5 127 L 140.5 125 L 136 126 L 135.5 128 L 129 128 L 128 125.5 L 134 121.5 L 122.5 120 L 120 118.5 L 121.5 118 L 127 119 Q 128.1 116.3 125.5 117 L 123 118 L 123.5 116 Q 125 118.5 126.5 115 Z M 146 122 L 143 124 L 144 126 Q 148 127 148 124 L 146 122 Z " /><path fill="rgb(254,254,255)" stroke="rgb(254,254,255)" stroke-width="1" opacity="1" d="M 190.5 115 L 193 116.5 L 192 121 L 190 121 L 190 119 Q 187.3 120.1 188 117.5 L 190.5 115 Z " /><path fill="rgb(254,254,255)" stroke="rgb(254,254,255)" stroke-width="1" opacity="1" d="M 195.5 117 L 197 117.5 L 194.5 119 L 195.5 117 Z " /><path fill="rgb(254,254,255)" stroke="rgb(254,254,255)" stroke-width="1" opacity="1" d="M 180.5 119 L 187 119.5 L 185 124 L 193 124 L 193 126.5 L 190.5 128 L 188 126.5 L 187.5 128 L 179.5 128 L 178.5 126 L 181.5 127 Q 184.5 125.5 181.5 124 Q 174.6 126 176 122 L 181 121.5 L 179 120.5 L 180.5 119 Z " /><path fill="rgb(254,254,255)" stroke="rgb(254,254,255)" stroke-width="1" opacity="1" d="M 167.5 121 L 175 121.5 L 172 122 Q 173.5 125.7 170.5 125 L 167.5 126 L 165.5 126 L 162.5 128 L 160.5 128 L 158 126.5 L 164 124 Q 162.8 121 166.5 122 L 167.5 121 Z " /><path fill="rgb(254,254,255)" stroke="rgb(254,254,255)" stroke-width="1" opacity="1" d="M 154.5 126 Q 156.8 125.3 156 127.5 L 154.5 126 Z " /><path fill="rgb(254,254,255)" stroke="rgb(254,254,255)" stroke-width="1" opacity="1" d="M 171 126 L 176 126 L 176 127.5 Q 174.3 130.8 167.5 129 L 167.5 128 Q 172.3 129.3 171 126 Z " /><path fill="rgb(255,255,255)" stroke="rgb(255,255,255)" stroke-width="1" opacity="1" d="M 0 0 L 237 0 L 237 270 L 64 270 L 64 112.5 L 64.5 110 L 67 110.5 L 66.5 112 Q 74.7 110.3 78.5 113 L 80.5 113 Q 85 114 86 111.5 L 85.5 110 L 89.5 111 L 100.5 109 L 100.5 110 L 96 110.5 L 103.5 113 L 109.5 113 L 113.5 111 Q 114.8 113.3 119.5 112 L 125 115 Q 124 112 127 113 L 125.5 116 Q 121.8 115 123 118 L 127 117 Q 128.3 120.7 122.5 119 L 122.5 120 L 133.5 121 L 135 120.5 L 133.5 122 L 127 122 Q 125.7 125.3 130.5 124 L 130.5 125 L 128 125.5 L 129 128 L 135.5 128 L 136 126.5 L 134.5 124 L 137 128 L 143 125.5 L 142.5 124 L 145 125.5 L 142 127.5 L 144.5 128 L 148.5 125 L 156 124 L 155 121.5 L 158.5 124 L 161 124.5 L 158 126.5 L 161.5 129 L 164 128 Q 162.9 125.3 165.5 126 L 167 125.5 L 166 127.5 Q 167.8 130.8 174.5 129 L 176 126 L 170 125.5 L 172 125 Q 170.3 120.9 174.5 122 L 176 121.5 L 176 124 L 181.5 124 L 182.5 126 L 180.5 125 L 178 126.5 L 179.5 128 L 188 128 L 188.5 126 L 191.5 128 L 193 124.5 L 192 122 L 188 122 Q 189.3 125 185.5 124 L 184 124.5 L 187 119.5 L 185 118.5 L 187.5 118 L 190 119 Q 189 122 192 121 Q 190.8 118 194.5 119 L 194.5 118 Q 192.3 118.8 193 116.5 L 193 114.5 Q 192.3 112.3 194.5 113 L 194.5 115 L 198.5 112 L 202.5 112 L 204 112.5 L 204.5 110 L 208 112 L 207.5 104 L 206 104.5 L 208 97 Q 205.3 98.1 206 95.5 L 207.5 96 L 209 95.5 L 209 31.5 L 206 30 Q 205.3 26.9 208 27.5 L 208 20 L 196.5 20 L 196 21.5 L 195 21.5 Q 195.8 18.9 192.5 20 L 189.5 21 L 189.5 20 L 192 20 L 194 16 L 191.5 17 Q 190 14.5 188.5 18 L 186 17.5 L 188 16.5 L 181.5 16 L 182.5 18 L 184 18.5 L 181.5 19 L 178 17.5 Q 180.3 16.3 177.5 15 L 175 16.5 Q 177.5 18 176 23.5 L 175 27.5 L 176 30 L 180 27.5 Q 179.1 24.5 183.5 26 L 186 26.5 L 181 29 L 180.5 31 L 168.5 31 L 167.5 32 L 152.5 32 Q 151 29.5 145.5 31 L 143.5 29 L 139.5 29 L 137.5 30 L 138 28.5 Q 138.5 24.5 135.5 24 L 130 22.5 L 133.5 22 L 137 23 L 136 18 Q 139 19 138 16 L 127.5 16 L 126.5 15 L 124 16.5 L 124.5 18 Q 122.3 18.8 123 16.5 L 119.5 15 L 118.5 18 Q 117.5 15 112.5 16 L 110.5 16 L 108 16.5 L 108.5 18 L 106.5 17 L 104.5 18 L 102.5 16 L 95.5 15 L 94.5 16 L 80.5 16 L 75.5 18 L 74.5 15 L 64.5 16 L 62.5 15 L 61.5 16 L 55 16 L 56 19.5 L 54 20 L 53 17.5 Q 55.3 16.3 52.5 15 Q 45.2 12.8 47 18 L 50 18.5 L 48 19 L 49 23.5 L 47 24 L 47 32.5 L 49 33.5 L 49 96.5 Q 46.3 97.3 47 101.5 Q 51 103.5 47 105.5 L 48 109.5 L 47 111.5 L 49.5 113 L 52 112 L 52 263.5 L 53 264.5 L 52 267.5 L 53 269.5 L 51 268.5 L 52 266.5 L 50 266 L 48.5 270 L 0.5 270 L 0 269.5 L 0 0 Z M 195 15 L 195 19 Q 199 20 201 17 L 201 19 L 206 19 L 206 16 L 195 15 Z M 141 18 Q 138 19 139 23 L 142 25 L 141 27 L 144 28 L 145 20 Q 144 17 141 18 Z M 93 111 L 93 112 L 96 112 L 93 111 Z M 200 113 L 199 116 L 200 116 L 200 113 Z M 197 116 L 196 118 L 199 117 L 197 116 Z M 197 119 L 197 120 L 199 120 L 197 119 Z M 175 123 Q 173 126 176 125 L 175 123 Z M 150 126 L 148 128 L 156 128 Q 157 124 150 126 Z M 49 264 L 50 266 Q 51 263 49 264 Z " /><path fill="rgb(255,255,255)" stroke="rgb(255,255,255)" stroke-width="1" opacity="1" d="M 81.5 17 L 84 17.5 L 81.5 18 L 81.5 17 Z " /><path fill="rgb(255,255,255)" stroke="rgb(255,255,255)" stroke-width="1" opacity="1" d="M 60 18 Q 63 17 62 20 Q 59 21 60 18 Z " /><path fill="rgb(255,255,255)" stroke="rgb(255,255,255)" stroke-width="1" opacity="1" d="M 120.5 18 L 122 21.5 L 120 22 Q 121.1 19.3 118.5 20 L 118.5 19 L 120.5 18 Z " /><path fill="rgb(255,255,255)" stroke="rgb(255,255,255)" stroke-width="1" opacity="1" d="M 127.5 21 Q 130.5 22.5 127.5 24 L 127.5 21 Z " /><path fill="rgb(255,255,255)" stroke="rgb(255,255,255)" stroke-width="1" opacity="1" d="M 184.5 22 L 186 22.5 L 180.5 25 L 181.5 23 L 184.5 22 Z " /><path fill="rgb(255,255,255)" stroke="rgb(255,255,255)" stroke-width="1" opacity="1" d="M 205.5 23 L 206 24.5 L 202.5 29 L 202 27.5 L 205.5 23 Z " /><path fill="rgb(255,255,255)" stroke="rgb(255,255,255)" stroke-width="1" opacity="1" d="M 203.5 32 L 204 95.5 L 203 95.5 L 203.5 32 Z " /><path fill="rgb(255,255,255)" stroke="rgb(255,255,255)" stroke-width="1" opacity="1" d="M 199 96 L 202 96.5 L 202 108.5 L 200 107.5 L 199 105.5 Q 202 104.5 201 99.5 L 199.5 100 L 198 99.5 L 199 96 Z " /><path fill="rgb(255,255,255)" stroke="rgb(255,255,255)" stroke-width="1" opacity="1" d="M 93.5 107 L 96 107.5 L 93.5 108 L 93.5 107 Z " /><path fill="rgb(255,255,255)" stroke="rgb(255,255,255)" stroke-width="1" opacity="1" d="M 80 108 L 85 108.5 Q 83.8 111 80 110 L 80 108 Z " /><path fill="rgb(255,255,255)" stroke="rgb(255,255,255)" stroke-width="1" opacity="1" d="M 140.5 119 L 141 120.5 L 139.5 123 L 139 121.5 L 140.5 119 Z " /><path fill="rgb(255,255,255)" stroke="rgb(255,255,255)" stroke-width="1" opacity="1" d="M 144.5 120 L 146.5 123 L 148.5 122 L 147.5 124 L 144 121.5 L 144.5 120 Z " /><path fill="rgb(255,255,255)" stroke="rgb(255,255,255)" stroke-width="1" opacity="1" d="M 181.5 120 L 180.5 122 L 178 121.5 L 181.5 120 Z " /><path fill="rgb(255,255,255)" stroke="rgb(255,255,255)" stroke-width="1" opacity="1" d="M 163.5 122 L 164 124 L 162 123.5 L 163.5 122 Z " /></svg>