<?xml version="1.0" standalone="no"?>
<!DOCTYPE svg PUBLIC "-//W3C//DTD SVG 20010904//EN"
 "http://www.w3.org/TR/2001/REC-SVG-20010904/DTD/svg10.dtd">
<svg version="1.0" xmlns="http://www.w3.org/2000/svg"
 width="260.000000pt" height="230.000000pt" viewBox="0 0 260.000000 230.000000"
 preserveAspectRatio="xMidYMid meet">

<g transform="translate(0.000000,230.000000) scale(0.100000,-0.100000)"
fill="#000000" stroke="none">
<path d="M1925 2020 c-66 -10 -128 -19 -137 -21 -15 -4 -14 -10 12 -51 l29
-46 -187 -123 c-103 -67 -237 -155 -299 -195 l-111 -73 -33 95 c-19 52 -38 94
-43 94 -9 0 -419 -263 -443 -284 -10 -9 -9 -17 5 -38 l18 -27 185 120 c101 67
189 123 195 126 7 3 24 -33 44 -92 20 -59 37 -95 44 -92 6 2 150 95 320 206
170 111 317 206 327 212 15 7 23 1 49 -36 l32 -46 67 108 c36 59 77 125 90
146 l23 37 -34 -1 c-18 -1 -87 -9 -153 -19z"/>
<path d="M490 1891 c-7 -13 -10 -259 -10 -729 0 -583 2 -712 13 -721 10 -8
254 -11 873 -11 793 -1 860 0 871 16 9 12 9 22 2 35 -9 18 -41 19 -844 19
l-835 0 0 693 c0 526 -3 696 -12 705 -18 18 -46 14 -58 -7z"/>
<path d="M1722 1569 l-22 -8 2 -468 3 -468 164 -3 c112 -2 168 1 177 9 12 9
14 91 14 464 0 409 -2 454 -17 466 -19 16 -283 23 -321 8z m258 -469 c0 -259
-4 -400 -10 -401 -5 0 -46 -1 -90 -1 -44 0 -87 1 -95 1 -13 1 -15 52 -15 401
l0 400 105 0 105 0 0 -400z"/>
<path d="M1222 1298 c-17 -17 -17 -649 0 -666 17 -17 319 -17 336 0 17 17 17
649 0 666 -8 8 -60 12 -168 12 -108 0 -160 -4 -168 -12z m266 -334 l-3 -267
-98 -1 -97 -1 0 268 0 267 100 0 100 0 -2 -266z"/>
<path d="M736 1034 c-13 -13 -16 -45 -16 -195 0 -105 4 -188 10 -200 10 -18
23 -19 176 -19 l164 0 11 27 c16 42 8 366 -10 386 -20 24 -311 25 -335 1z
m274 -197 c0 -74 -2 -136 -4 -138 -2 -2 -50 -3 -105 -1 l-101 3 0 135 0 134
105 0 105 0 0 -133z"/>
</g>
</svg>
