<?xml version="1.0" standalone="no"?>
<!DOCTYPE svg PUBLIC "-//W3C//DTD SVG 20010904//EN"
 "http://www.w3.org/TR/2001/REC-SVG-20010904/DTD/svg10.dtd">
<svg version="1.0" xmlns="http://www.w3.org/2000/svg"
 width="290.000000pt" height="255.000000pt" viewBox="0 0 290.000000 255.000000"
 preserveAspectRatio="xMidYMid meet">

<g transform="translate(0.000000,255.000000) scale(0.100000,-0.100000)"
fill="#000000" stroke="none">
<path d="M443 2488 c-27 -13 -43 -56 -43 -118 l0 -47 -107 -5 c-102 -4 -148
-16 -165 -42 -4 -6 -8 -383 -8 -837 0 -774 1 -827 18 -841 12 -11 53 -17 152
-22 256 -12 578 -71 766 -141 54 -20 142 -60 194 -88 210 -113 207 -112 248
-97 20 7 74 35 121 63 103 61 178 95 296 135 185 63 484 116 731 128 94 5 134
11 147 22 16 14 17 67 17 848 l0 834 -25 16 c-19 12 -57 18 -140 22 l-115 5 0
64 c0 55 -4 68 -25 88 -22 23 -32 25 -109 25 -115 0 -295 -25 -402 -55 -167
-48 -367 -158 -475 -263 l-47 -44 -87 71 c-193 156 -381 237 -640 276 -114 17
-270 19 -302 3z m361 -159 c54 -11 126 -29 160 -41 149 -50 337 -170 404 -257
l32 -43 0 -679 c0 -373 -4 -679 -8 -679 -4 0 -28 20 -52 45 -99 101 -272 199
-455 258 -112 36 -254 67 -306 67 l-29 0 0 681 0 682 78 -7 c42 -4 121 -16
176 -27z m1581 -648 l0 -675 -80 -12 c-279 -41 -535 -153 -702 -308 l-63 -58
0 690 0 691 58 56 c141 139 358 241 582 274 41 6 86 13 100 15 14 2 43 3 65 2
l40 -1 0 -674z m-1983 -135 c3 -607 4 -635 22 -655 13 -14 31 -21 55 -21 51 0
202 -26 296 -50 98 -26 227 -80 319 -134 66 -39 234 -191 223 -202 -3 -3 -32
8 -65 25 -192 97 -565 183 -894 206 l-98 7 0 729 0 729 70 0 69 0 3 -634z
m2268 -95 l0 -729 -97 -7 c-323 -23 -663 -100 -878 -199 -43 -20 -80 -34 -82
-32 -8 8 126 135 186 176 153 103 365 176 585 201 94 11 110 16 127 37 18 24
19 48 19 653 l0 629 70 0 70 0 0 -729z"/>
<path d="M631 2104 c-26 -34 -26 -54 0 -88 18 -23 27 -26 84 -26 133 0 286
-48 439 -138 48 -29 98 -52 110 -52 30 0 66 40 66 72 0 31 -33 61 -128 118
-141 83 -334 140 -476 140 -69 0 -76 -2 -95 -26z"/>
<path d="M635 1845 c-31 -30 -32 -59 -2 -89 19 -19 37 -24 108 -28 61 -4 103
-13 149 -33 119 -50 136 -52 165 -25 31 29 32 70 2 98 -57 53 -211 102 -325
102 -64 0 -76 -3 -97 -25z"/>
<path d="M2040 2110 c-199 -42 -440 -174 -440 -240 0 -27 43 -70 70 -70 12 0
55 20 96 45 147 89 276 132 423 142 72 5 98 10 113 25 25 25 23 70 -5 96 -20
19 -34 22 -98 21 -41 0 -112 -9 -159 -19z"/>
<path d="M2095 1863 c-196 -27 -495 -180 -495 -253 0 -27 43 -70 70 -70 12 0
58 22 103 49 150 90 311 141 448 141 46 0 64 5 79 20 27 27 26 71 -3 98 -20
19 -34 22 -98 21 -41 -1 -87 -4 -104 -6z"/>
<path d="M2150 1609 c-142 -11 -295 -62 -441 -149 -108 -64 -132 -108 -84
-155 32 -33 60 -31 115 6 146 98 324 159 469 159 58 0 71 3 89 23 25 26 28 64
10 90 -19 26 -64 33 -158 26z"/>
<path d="M2135 1349 c-38 -4 -98 -14 -132 -23 -140 -37 -368 -154 -394 -203
-17 -32 -2 -73 34 -93 26 -14 30 -13 85 18 184 107 346 162 473 162 80 0 119
23 119 71 0 32 -30 69 -57 70 -10 0 -27 2 -38 3 -11 1 -51 -2 -90 -5z"/>
</g>
</svg>
