<?xml version="1.0" standalone="no"?>
<!DOCTYPE svg PUBLIC "-//W3C//DTD SVG 20010904//EN"
 "http://www.w3.org/TR/2001/REC-SVG-20010904/DTD/svg10.dtd">
<svg version="1.0" xmlns="http://www.w3.org/2000/svg"
 width="288.000000pt" height="240.000000pt" viewBox="0 0 288.000000 240.000000"
 preserveAspectRatio="xMidYMid meet">

<g transform="translate(0.000000,240.000000) scale(0.100000,-0.100000)"
fill="#000000" stroke="none">
<path d="M740 2204 c-177 -38 -328 -160 -414 -336 -70 -143 -89 -232 -84 -397
4 -121 8 -147 37 -231 18 -52 48 -124 68 -160 90 -164 266 -362 448 -503 191
-149 532 -357 584 -357 44 0 377 212 551 350 172 136 360 334 360 378 0 19
-38 52 -60 52 -12 0 -42 -23 -72 -57 -138 -154 -320 -310 -501 -431 -109 -73
-273 -172 -285 -172 -8 0 -182 101 -267 155 -124 79 -287 207 -390 307 -354
340 -451 679 -290 1013 89 185 249 287 451 287 162 0 297 -53 417 -161 37 -34
76 -61 87 -61 10 0 44 24 74 53 228 218 581 230 770 26 134 -144 207 -405 164
-588 -15 -66 -1 -101 39 -101 53 0 67 25 82 147 32 258 -110 585 -309 713 -27
18 -82 44 -122 58 -64 22 -89 26 -198 26 -183 0 -300 -38 -440 -143 l-63 -48
-71 54 c-160 120 -374 168 -566 127z"/>
<path d="M1678 1803 c-8 -10 -77 -216 -153 -458 -75 -242 -140 -443 -144 -447
-4 -4 -47 144 -95 328 -78 294 -92 338 -114 352 -48 31 -67 7 -155 -200 l-80
-188 -101 0 c-112 0 -146 -13 -146 -55 0 -48 20 -55 168 -55 75 0 143 4 150 8
7 5 35 62 63 128 28 65 54 122 58 127 4 4 47 -142 95 -325 95 -358 101 -379
119 -390 21 -13 53 -9 69 10 8 9 75 209 149 444 74 236 136 428 139 428 3 0
20 -87 39 -192 19 -106 40 -203 48 -215 l13 -23 362 0 362 0 27 -26 c60 -57
163 -31 183 47 29 118 -101 192 -190 108 -20 -18 -35 -19 -344 -17 l-324 3
-53 295 c-36 194 -59 300 -70 312 -21 23 -56 23 -75 1z"/>
</g>
</svg>
