<svg version="1.1" id="Layer_1" xmlns="http://www.w3.org/2000/svg" xmlns:xlink="http://www.w3.org/1999/xlink" x="0px" y="0px"
	 width="100%" viewBox="0 0 262 249" enable-background="new 0 0 262 249" xml:space="preserve">
<path fill="#FEFEFE" opacity="1.000000" stroke="none" 
	d="
M172.000000,250.000000 
	C114.666679,250.000000 57.833355,250.000000 1.000023,250.000000 
	C1.000015,167.000031 1.000015,84.000053 1.000008,1.000056 
	C88.333290,1.000038 175.666580,1.000038 262.999908,1.000019 
	C262.999939,83.999947 262.999939,166.999893 262.999969,249.999908 
	C232.833328,250.000000 202.666672,250.000000 172.000000,250.000000 
M195.499619,210.404266 
	C202.665695,210.405365 209.832016,210.444489 216.997757,210.396133 
	C223.337982,210.353333 226.451248,207.632950 226.474274,201.433456 
	C226.577606,173.602844 226.622269,145.770493 226.339218,117.942337 
	C226.311310,115.198982 224.599854,111.665535 222.497910,109.873123 
	C196.386581,87.607193 170.071991,65.579346 143.772507,43.534618 
	C138.955765,39.497147 134.657379,39.606228 129.951050,43.769569 
	C105.119095,65.736481 80.249672,87.662285 55.610188,109.843338 
	C53.437225,111.799500 51.698494,115.479767 51.667027,118.379967 
	C51.368710,145.874496 51.435505,173.373672 51.514328,200.871170 
	C51.534092,207.766846 54.396469,210.368927 61.412975,210.382965 
	C77.578194,210.415314 93.743523,210.414352 109.908775,210.397995 
	C117.465927,210.390350 120.113853,207.769333 120.131531,200.200012 
	C120.166946,185.034653 120.041351,169.867889 120.230965,154.704819 
	C120.266953,151.827072 120.841896,148.617889 122.230347,146.162201 
	C125.630753,140.148056 136.169571,137.478333 144.830505,139.886337 
	C152.223679,141.941864 155.877090,147.079208 155.894089,155.605438 
	C155.923309,170.270859 155.892761,184.936417 155.909500,199.601883 
	C155.919144,208.065460 158.382477,210.434265 167.001877,210.417236 
	C176.167770,210.399139 185.333694,210.407440 195.499619,210.404266 
z"/>
<path fill="#050505" opacity="1.000000" stroke="none" 
	d="
M194.999603,210.404236 
	C185.333694,210.407440 176.167770,210.399139 167.001877,210.417236 
	C158.382477,210.434265 155.919144,208.065460 155.909500,199.601883 
	C155.892761,184.936417 155.923309,170.270859 155.894089,155.605438 
	C155.877090,147.079208 152.223679,141.941864 144.830505,139.886337 
	C136.169571,137.478333 125.630753,140.148056 122.230347,146.162201 
	C120.841896,148.617889 120.266953,151.827072 120.230965,154.704819 
	C120.041351,169.867889 120.166946,185.034653 120.131531,200.200012 
	C120.113853,207.769333 117.465927,210.390350 109.908775,210.397995 
	C93.743523,210.414352 77.578194,210.415314 61.412975,210.382965 
	C54.396469,210.368927 51.534092,207.766846 51.514328,200.871170 
	C51.435505,173.373672 51.368710,145.874496 51.667027,118.379967 
	C51.698494,115.479767 53.437225,111.799500 55.610188,109.843338 
	C80.249672,87.662285 105.119095,65.736481 129.951050,43.769569 
	C134.657379,39.606228 138.955765,39.497147 143.772507,43.534618 
	C170.071991,65.579346 196.386581,87.607193 222.497910,109.873123 
	C224.599854,111.665535 226.311310,115.198982 226.339218,117.942337 
	C226.622269,145.770493 226.577606,173.602844 226.474274,201.433456 
	C226.451248,207.632950 223.337982,210.353333 216.997757,210.396133 
	C209.832016,210.444489 202.665695,210.405365 194.999603,210.404236 
M91.069649,100.568771 
	C84.453186,106.411987 77.689445,112.101486 71.320755,118.203308 
	C69.667786,119.787018 68.417862,122.651657 68.394623,124.942261 
	C68.176582,146.432266 68.260345,167.925385 68.277206,189.417587 
	C68.278336,190.852234 68.444862,192.286758 68.533257,193.702148 
	C80.271805,193.702148 91.542091,193.702148 103.266708,193.702148 
	C103.266708,180.347366 103.259590,167.227524 103.268929,154.107666 
	C103.276596,143.331863 107.662964,134.788559 116.534927,128.672806 
	C130.364334,119.139702 147.220535,119.540939 160.730148,129.581802 
	C169.146454,135.837128 172.726959,144.430130 172.782059,154.658722 
	C172.851807,167.603775 172.798920,180.549484 172.798920,193.577393 
	C185.345764,193.577393 197.375748,193.577393 209.728149,193.577393 
	C209.728149,169.744629 209.788559,146.277252 209.594421,122.811996 
	C209.581253,121.220566 207.952744,119.292557 206.569366,118.116379 
	C192.231537,105.925995 177.795822,93.850609 163.374390,81.758713 
	C154.743271,74.521812 146.089188,67.312317 137.165192,59.856377 
	C121.782196,73.428925 106.681328,86.752548 91.069649,100.568771 
z"/>
<path fill="#FCFCFC" opacity="1.000000" stroke="none" 
	d="
M91.325058,100.322479 
	C106.681328,86.752548 121.782196,73.428925 137.165192,59.856377 
	C146.089188,67.312317 154.743271,74.521812 163.374390,81.758713 
	C177.795822,93.850609 192.231537,105.925995 206.569366,118.116379 
	C207.952744,119.292557 209.581253,121.220566 209.594421,122.811996 
	C209.788559,146.277252 209.728149,169.744629 209.728149,193.577393 
	C197.375748,193.577393 185.345764,193.577393 172.798920,193.577393 
	C172.798920,180.549484 172.851807,167.603775 172.782059,154.658722 
	C172.726959,144.430130 169.146454,135.837128 160.730148,129.581802 
	C147.220535,119.540939 130.364334,119.139702 116.534927,128.672806 
	C107.662964,134.788559 103.276596,143.331863 103.268929,154.107666 
	C103.259590,167.227524 103.266708,180.347366 103.266708,193.702148 
	C91.542091,193.702148 80.271805,193.702148 68.533257,193.702148 
	C68.444862,192.286758 68.278336,190.852234 68.277206,189.417587 
	C68.260345,167.925385 68.176582,146.432266 68.394623,124.942261 
	C68.417862,122.651657 69.667786,119.787018 71.320755,118.203308 
	C77.689445,112.101486 84.453186,106.411987 91.325058,100.322479 
z"/>
</svg>