<svg viewBox="15 138 483 182" version="1.1" xmlns="http://www.w3.org/2000/svg" desc="Created with imagetracer.js version 1.2.6" ><path fill="rgb(0,0,0)" stroke="rgb(0,0,0)" stroke-width="1" opacity="0" d="M 0 0 L 500 0 L 500 500 L 0 500 L 0 0 Z M 420 146 L 403 151 L 388 160 L 377 172 Q 375 177 381 175 L 383 172 L 398 159 L 409 154 L 424 151 Q 451 151 465 164 Q 479 176 484 198 L 484 216 L 483 221 L 476 238 L 480 239 L 482 237 L 487 226 L 490 209 L 489 196 L 485 183 L 478 171 Q 469 158 454 151 L 437 146 L 420 146 Z M 426 163 L 421 167 L 424 192 L 425 193 L 425 197 L 419 173 L 415 166 Q 403 167 398 173 L 393 180 L 393 183 L 399 188 L 422 204 L 425 203 L 426 198 L 428 202 L 432 201 L 431 203 L 434 207 L 433 212 L 465 229 L 467 228 Q 472 223 473 215 Q 474 206 471 202 L 461 202 L 445 205 L 440 205 L 464 199 L 470 196 Q 470 184 463 179 L 457 174 L 453 174 L 435 198 L 432 200 L 446 178 L 449 170 L 438 163 L 426 163 Z M 91 188 L 24 254 Q 23 258 27 258 L 29 257 L 42 245 L 42 312 L 141 312 L 142 245 L 157 258 Q 160 258 159 254 L 141 237 L 141 202 L 114 202 L 114 210 L 91 188 Z M 269 206 L 263 208 L 258 215 L 258 308 L 259 308 L 282 308 L 282 216 L 280 211 Q 277 206 269 206 Z M 411 206 L 404 208 L 397 216 L 368 308 L 393 308 L 398 290 L 399 288 L 425 288 L 426 290 L 430 305 L 431 308 L 455 308 L 455 305 L 428 224 L 428 221 L 424 212 Q 420 206 411 206 Z M 176 207 L 174 208 L 168 215 L 168 221 L 197 306 L 198 308 L 221 308 L 250 221 Q 251 213 248 210 L 243 207 Q 235 206 232 208 L 227 214 L 210 277 L 193 217 L 190 211 Q 186 205 176 207 Z M 297 208 L 291 210 L 289 214 Q 287 222 291 226 L 295 228 L 315 228 L 315 229 L 315 308 L 339 308 L 339 308 L 339 228 L 360 228 L 362 227 L 364 225 L 366 219 L 363 210 L 359 208 L 297 208 Z " /><path fill="rgb(0,0,0)" stroke="rgb(0,0,0)" stroke-width="1" opacity="0" d="M 90.5 196 L 135 238.5 L 135 306 L 48 306 L 48 238.5 L 90.5 196 Z M 109 238 L 73 256 L 86 270 L 71 287 L 71 289 L 76 289 L 111 272 L 112 272 L 112 268 L 98 259 L 112 242 Q 114 236 109 238 Z " /><path fill="rgb(0,0,0)" stroke="rgb(0,0,0)" stroke-width="1" opacity="0" d="M 436.5 205 L 439 205.5 L 436.5 206 L 436.5 205 Z " /><path fill="rgb(0,0,0)" stroke="rgb(0,0,0)" stroke-width="1" opacity="0" d="M 120 208 L 135 208 L 135 229.5 L 120 215.5 L 120 208 Z " /><path fill="rgb(0,0,0)" stroke="rgb(0,0,0)" stroke-width="1" opacity="0" d="M 411.5 239 L 420 269 L 403 268.5 L 411.5 239 Z " /><path fill="rgb(250,174,58)" stroke="rgb(250,174,58)" stroke-width="1" opacity="0.9529411764705882" d="M 419.5 146 L 436.5 146 L 453.5 151 Q 468.6 157.9 478 170.5 L 485 182.5 L 489 195.5 L 490 208.5 L 487 225.5 L 482 236.5 L 479.5 239 L 476 237.5 L 483 220.5 L 484 215.5 L 484 197.5 Q 479.4 175.6 464.5 164 Q 450.8 150.7 423.5 151 L 408.5 154 L 397.5 159 L 383 171.5 L 380.5 175 Q 375.3 176.8 377 171.5 L 387.5 160 L 402.5 151 L 419.5 146 Z " /><path fill="rgb(250,174,58)" stroke="rgb(250,174,58)" stroke-width="1" opacity="0.9529411764705882" d="M 425.5 163 L 437.5 163 L 449 169.5 L 446 177.5 L 437 192.5 L 441 189.5 L 452.5 174 L 456.5 174 L 463 178.5 Q 469.5 184 470 195.5 L 463.5 199 L 445 203.5 L 451.5 204 L 460.5 202 L 470.5 202 Q 474.4 205.6 473 214.5 Q 471.6 223.1 466.5 228 L 464.5 229 L 433 212 L 434 206.5 L 431 202 Q 427.2 203 426 200.5 L 425.5 198 L 425 203 L 421.5 204 L 398.5 188 L 393 182.5 L 393 179.5 L 397.5 173 Q 403 166.5 414.5 166 L 419 172.5 L 424.5 197 L 425 192.5 L 424 191.5 L 421 166.5 L 425.5 163 Z M 441 204 L 441 205 L 445 205 L 441 204 Z M 437 205 L 437 206 L 439 206 L 437 205 Z " /><path fill="rgb(250,174,58)" stroke="rgb(250,174,58)" stroke-width="1" opacity="0.9529411764705882" d="M 108.5 238 Q 113.8 236.3 112 241.5 L 98 258.5 L 112 268 L 112 272 L 110.5 272 L 75.5 289 L 71 289 L 71 286.5 L 86 269.5 L 73 255.5 L 108.5 238 Z " /><path fill="rgb(0,0,0)" stroke="rgb(0,0,0)" stroke-width="1" opacity="0.9803921568627451" d="M 90.5 188 L 113.5 210 L 114 202 L 141 202 L 141 236.5 L 159 253.5 Q 159.5 257.5 156.5 258 L 141.5 245 L 141 312 L 42 312 L 42 244.5 L 28.5 257 L 26.5 258 Q 23.5 257.5 24 253.5 L 90.5 188 Z M 91 196 L 48 239 L 48 306 L 135 306 L 135 239 L 91 196 Z M 120 208 L 120 216 L 135 230 L 135 208 L 120 208 Z " /><path fill="rgb(0,0,0)" stroke="rgb(0,0,0)" stroke-width="1" opacity="0.9803921568627451" d="M 268.5 206 Q 276.8 205.8 280 210.5 L 282 215.5 L 282 308 L 258.5 308 L 258 307.5 L 258 214.5 L 262.5 208 L 268.5 206 Z " /><path fill="rgb(0,0,0)" stroke="rgb(0,0,0)" stroke-width="1" opacity="0.9803921568627451" d="M 410.5 206 Q 419.9 206.1 424 211.5 L 428 220.5 L 428 223.5 L 455 304.5 L 455 308 L 430.5 308 L 430 304.5 L 426 289.5 L 424.5 288 L 398.5 288 L 398 289.5 L 393 308 L 368 307.5 L 397 215.5 L 403.5 208 L 410.5 206 Z M 412 239 L 403 269 L 420 269 L 412 239 Z " /><path fill="rgb(0,0,0)" stroke="rgb(0,0,0)" stroke-width="1" opacity="0.9803921568627451" d="M 175.5 207 Q 186.3 205.3 190 210.5 L 193 216.5 L 209.5 277 L 227 213.5 L 231.5 208 Q 235 205.5 242.5 207 L 248 210 Q 250.9 212.9 250 220.5 L 221 308 L 197.5 308 L 197 305.5 L 168 220.5 L 168 214.5 L 173.5 208 L 175.5 207 Z " /><path fill="rgb(0,0,0)" stroke="rgb(0,0,0)" stroke-width="1" opacity="0.9803921568627451" d="M 296.5 208 L 358.5 208 L 363 210 L 366 218.5 L 364 224.5 L 361.5 227 L 359.5 228 L 339 228 L 339 307.5 L 338.5 308 L 315 308 L 315 228.5 L 314.5 228 L 294.5 228 L 291 225.5 Q 287.2 222.3 289 213.5 L 291 210 L 296.5 208 Z " /></svg>