<?xml version="1.0" standalone="no"?>
<!DOCTYPE svg PUBLIC "-//W3C//DTD SVG 20010904//EN"
 "http://www.w3.org/TR/2001/REC-SVG-20010904/DTD/svg10.dtd">
<svg version="1.0" xmlns="http://www.w3.org/2000/svg"
 width="266.000000pt" height="282.000000pt" viewBox="0 0 266.000000 282.000000"
 preserveAspectRatio="xMidYMid meet">

<g transform="translate(0.000000,282.000000) scale(0.100000,-0.100000)"
fill="#000000" stroke="none">
<path d="M1596 2669 c-30 -35 -33 -67 -11 -109 16 -31 62 -50 121 -50 154 0
355 -105 458 -239 85 -110 126 -218 142 -375 7 -75 35 -106 94 -106 31 0 47 6
67 26 25 25 26 28 20 127 -22 406 -389 756 -794 757 -67 0 -73 -2 -97 -31z"/>
<path d="M1608 2314 c-48 -26 -60 -71 -33 -124 15 -30 46 -43 124 -54 122 -18
211 -113 230 -247 6 -49 14 -67 35 -86 60 -51 156 -8 156 71 0 208 -168 406
-379 446 -71 13 -101 12 -133 -6z"/>
<path d="M1129 2111 c-24 -16 -240 -226 -481 -467 -464 -467 -471 -475 -512
-613 -20 -69 -21 -208 -1 -286 47 -177 193 -326 374 -379 83 -24 255 -22 334
5 122 41 159 73 611 522 238 238 443 448 455 467 26 43 28 117 5 163 -21 42
-526 551 -583 588 -63 41 -139 41 -202 0z m198 -321 c164 -57 266 -207 267
-395 1 -81 -2 -97 -31 -157 -101 -214 -348 -305 -558 -207 -59 28 -146 107
-178 162 -144 245 6 569 283 616 68 11 149 4 217 -19z m-742 -584 c25 -20 30
-31 30 -69 0 -34 -6 -52 -24 -71 -63 -67 -170 -25 -171 67 0 84 97 127 165 73z
m181 -185 c79 -48 59 -170 -30 -187 -112 -20 -167 138 -66 188 44 23 58 22 96
-1z m-395 -1 c24 -13 49 -61 49 -96 0 -16 -12 -38 -34 -60 -43 -43 -90 -46
-135 -8 -27 22 -31 32 -31 74 0 63 34 100 92 100 22 0 48 -5 59 -10z m606
-206 c28 -18 43 -70 31 -104 -18 -48 -48 -70 -95 -70 -77 0 -122 69 -89 137
28 58 95 75 153 37z m-393 -13 c75 -79 -7 -199 -107 -157 -102 42 -72 186 38
186 33 0 47 -6 69 -29z m176 -176 c59 -31 69 -107 21 -156 -85 -84 -223 32
-150 125 36 46 80 56 129 31z"/>
<path d="M1108 1639 c-85 -24 -168 -137 -168 -228 0 -79 18 -122 74 -177 54
-54 99 -74 170 -74 69 0 118 21 171 75 53 52 75 102 75 167 0 82 -61 181 -134
220 -46 24 -135 32 -188 17z"/>
</g>
</svg>
