<?xml version="1.0" standalone="no"?>
<!DOCTYPE svg PUBLIC "-//W3C//DTD SVG 20010904//EN"
 "http://www.w3.org/TR/2001/REC-SVG-20010904/DTD/svg10.dtd">
<svg version="1.0" xmlns="http://www.w3.org/2000/svg"
 width="269.000000pt" height="270.000000pt" viewBox="0 0 269.000000 270.000000"
 preserveAspectRatio="xMidYMid meet">

<g transform="translate(0.000000,270.000000) scale(0.100000,-0.100000)"
fill="#000000" stroke="none">
<path d="M1721 2594 c-64 -23 -114 -59 -148 -107 -44 -62 -57 -104 -57 -177 1
-87 31 -157 95 -214 113 -101 282 -103 394 -4 69 61 99 126 99 218 1 63 -4 85
-28 133 -63 130 -222 197 -355 151z"/>
<path d="M1081 2249 c-40 -16 -421 -339 -437 -372 -22 -41 -14 -111 16 -142
33 -36 84 -50 129 -37 21 7 97 62 186 136 83 69 156 126 163 126 19 0 142 -58
142 -67 0 -5 -65 -130 -145 -278 -158 -293 -384 -664 -418 -685 -13 -8 -93
-18 -207 -26 -262 -19 -268 -20 -307 -59 -29 -29 -33 -40 -33 -84 0 -42 5 -56
30 -85 17 -19 44 -38 60 -41 35 -8 488 23 543 37 54 13 84 46 177 196 45 72
91 139 103 147 12 8 38 15 59 15 32 0 55 -14 165 -101 168 -133 202 -166 208
-203 3 -17 12 -120 20 -228 17 -237 28 -267 107 -289 51 -13 99 2 133 42 31
37 32 67 9 369 -21 277 -18 272 -181 399 -67 53 -122 100 -123 104 0 17 274
517 283 517 6 0 51 -22 101 -49 109 -58 142 -67 187 -48 32 13 399 312 426
347 17 21 26 75 19 105 -4 14 -19 40 -35 58 -27 29 -34 32 -88 32 l-59 0 -153
-127 c-88 -74 -162 -128 -174 -128 -11 0 -145 65 -296 144 -605 315 -560 295
-610 275z"/>
</g>
</svg>
