<svg width="223" height="258" version="1.1" xmlns="http://www.w3.org/2000/svg" desc="Created with imagetracer.js version 1.2.6" ><path fill="rgb(242,206,206)" stroke="rgb(242,206,206)" stroke-width="1" opacity="1" d="M 100.5 14 L 106 14.5 L 100.5 15 L 100.5 14 Z " /><path fill="rgb(242,206,206)" stroke="rgb(242,206,206)" stroke-width="1" opacity="1" d="M 115.5 14 L 122 14.5 L 115.5 15 L 115.5 14 Z " /><path fill="rgb(242,206,206)" stroke="rgb(242,206,206)" stroke-width="1" opacity="1" d="M 94.5 15 L 97 15.5 L 94.5 16 L 94.5 15 Z " /><path fill="rgb(242,206,206)" stroke="rgb(242,206,206)" stroke-width="1" opacity="1" d="M 132.5 17 L 135 17.5 L 132.5 18 L 132.5 17 Z " /><path fill="rgb(242,206,206)" stroke="rgb(242,206,206)" stroke-width="1" opacity="1" d="M 89.5 21 L 91.5 24 L 89 23 L 89.5 21 Z " /><path fill="rgb(242,206,206)" stroke="rgb(242,206,206)" stroke-width="1" opacity="1" d="M 143.5 21 L 148 23.5 L 146.5 23 Q 142.8 22.7 143.5 21 Z " /><path fill="rgb(242,206,206)" stroke="rgb(242,206,206)" stroke-width="1" opacity="1" d="M 87.5 22 L 87 23.5 L 88.5 27 Q 91.8 28.1 91 25.5 L 92 25.5 L 90.5 28 Q 86.5 28.5 86 25.5 L 87.5 22 Z " /><path fill="rgb(242,206,206)" stroke="rgb(242,206,206)" stroke-width="1" opacity="1" d="M 71.5 24 L 70.5 26 L 68.5 27 L 69.5 25 L 71.5 24 Z " /><path fill="rgb(242,206,206)" stroke="rgb(242,206,206)" stroke-width="1" opacity="1" d="M 79.5 26 L 83 27.5 Q 84.1 30.8 81.5 30 L 80 30.5 L 82 27 L 74.5 30 L 75.5 28 L 79.5 26 Z " /><path fill="rgb(242,206,206)" stroke="rgb(242,206,206)" stroke-width="1" opacity="1" d="M 66.5 27 L 64.5 30 L 66.5 27 Z " /><path fill="rgb(242,206,206)" stroke="rgb(242,206,206)" stroke-width="1" opacity="1" d="M 157.5 29 L 158.5 31 L 157.5 29 Z " /><path fill="rgb(242,206,206)" stroke="rgb(242,206,206)" stroke-width="1" opacity="1" d="M 62.5 30 L 59.5 34 L 62.5 30 Z " /><path fill="rgb(242,206,206)" stroke="rgb(242,206,206)" stroke-width="1" opacity="1" d="M 72.5 30 L 71.5 32 L 63.5 38 L 66.5 34 L 72.5 30 Z " /><path fill="rgb(242,206,206)" stroke="rgb(242,206,206)" stroke-width="1" opacity="1" d="M 78.5 31 L 77.5 33 L 75.5 34 L 76.5 32 L 78.5 31 Z " /><path fill="rgb(242,206,206)" stroke="rgb(242,206,206)" stroke-width="1" opacity="1" d="M 161.5 32 L 169.5 41 L 161.5 32 Z " /><path fill="rgb(242,206,206)" stroke="rgb(242,206,206)" stroke-width="1" opacity="1" d="M 73.5 34 L 72.5 36 L 68.5 38 L 56.5 50 L 68.5 37 L 73.5 34 Z " /><path fill="rgb(242,206,206)" stroke="rgb(242,206,206)" stroke-width="1" opacity="1" d="M 61.5 38 L 57 43.5 Q 57.8 45.8 55.5 45 L 61.5 38 Z " /><path fill="rgb(242,206,206)" stroke="rgb(242,206,206)" stroke-width="1" opacity="1" d="M 51.5 41 L 48.5 45 L 51.5 41 Z " /><path fill="rgb(242,206,206)" stroke="rgb(242,206,206)" stroke-width="1" opacity="1" d="M 171.5 43 L 173.5 46 L 171.5 43 Z " /><path fill="rgb(242,206,206)" stroke="rgb(242,206,206)" stroke-width="1" opacity="1" d="M 47.5 46 L 45.5 49 L 47.5 46 Z " /><path fill="rgb(242,206,206)" stroke="rgb(242,206,206)" stroke-width="1" opacity="1" d="M 54.5 46 L 51.5 50 L 54.5 46 Z " /><path fill="rgb(242,206,206)" stroke="rgb(242,206,206)" stroke-width="1" opacity="1" d="M 174.5 47 L 175.5 49 L 174.5 47 Z " /><path fill="rgb(242,206,206)" stroke="rgb(242,206,206)" stroke-width="1" opacity="1" d="M 176.5 50 L 177.5 52 L 176.5 50 Z " /><path fill="rgb(242,206,206)" stroke="rgb(242,206,206)" stroke-width="1" opacity="1" d="M 50.5 51 L 49.5 53 L 50.5 51 Z " /><path fill="rgb(242,206,206)" stroke="rgb(242,206,206)" stroke-width="1" opacity="1" d="M 55.5 51 L 54 53.5 L 52.5 56 L 53 54.5 L 55.5 51 Z " /><path fill="rgb(242,206,206)" stroke="rgb(242,206,206)" stroke-width="1" opacity="1" d="M 48.5 54 L 48 55.5 L 46.5 58 L 47 56.5 L 48.5 54 Z " /><path fill="rgb(242,206,206)" stroke="rgb(242,206,206)" stroke-width="1" opacity="1" d="M 50.5 59 L 50 60.5 L 47.5 66 L 47 64.5 L 50.5 59 Z " /><path fill="rgb(242,206,206)" stroke="rgb(242,206,206)" stroke-width="1" opacity="1" d="M 39.5 60 L 39 61.5 L 38.5 63 L 38 61.5 L 39.5 60 Z " /><path fill="rgb(242,206,206)" stroke="rgb(242,206,206)" stroke-width="1" opacity="1" d="M 44.5 62 L 45 63.5 L 43.5 66 L 43 64.5 L 44.5 62 Z " /><path fill="rgb(242,206,206)" stroke="rgb(242,206,206)" stroke-width="1" opacity="1" d="M 40.5 73 L 41 76.5 L 40 76.5 L 40.5 73 Z " /><path fill="rgb(242,206,206)" stroke="rgb(242,206,206)" stroke-width="1" opacity="1" d="M 187.5 76 L 188 80.5 L 187 80.5 L 187.5 76 Z " /><path fill="rgb(242,206,206)" stroke="rgb(242,206,206)" stroke-width="1" opacity="1" d="M 33.5 79 L 34 83.5 L 33 83.5 L 33.5 79 Z " /><path fill="rgb(242,206,206)" stroke="rgb(242,206,206)" stroke-width="1" opacity="1" d="M 39.5 79 L 40 84.5 L 39 84.5 L 39.5 79 Z " /><path fill="rgb(242,206,206)" stroke="rgb(242,206,206)" stroke-width="1" opacity="1" d="M 43.5 79 L 44 83.5 L 43 83.5 L 43.5 79 Z " /><path fill="rgb(242,206,206)" stroke="rgb(242,206,206)" stroke-width="1" opacity="1" d="M 188.5 85 L 189 204.5 L 188 204.5 L 188.5 85 Z " /><path fill="rgb(242,206,206)" stroke="rgb(242,206,206)" stroke-width="1" opacity="1" d="M 42.5 89 L 43 90.5 L 40.5 92 L 39.5 90 L 42 91 L 42.5 89 Z " /><path fill="rgb(242,206,206)" stroke="rgb(242,206,206)" stroke-width="1" opacity="1" d="M 32.5 90 L 33 92.5 L 32 92.5 L 32.5 90 Z " /><path fill="rgb(242,206,206)" stroke="rgb(242,206,206)" stroke-width="1" opacity="1" d="M 207.5 212 L 208.5 214 L 207.5 212 Z " /><path fill="rgb(242,206,206)" stroke="rgb(242,206,206)" stroke-width="1" opacity="1" d="M 210.5 219 L 211 223.5 L 210 223.5 L 210.5 219 Z " /><path fill="rgb(242,206,206)" stroke="rgb(242,206,206)" stroke-width="1" opacity="1" d="M 15.5 232 L 18.5 236 L 15.5 232 Z " /><path fill="rgb(242,206,206)" stroke="rgb(242,206,206)" stroke-width="1" opacity="1" d="M 206.5 232 L 204.5 235 L 206.5 232 Z " /><path fill="rgb(242,206,206)" stroke="rgb(242,206,206)" stroke-width="1" opacity="1" d="M 43.5 238 L 194 238.5 L 43.5 239 L 43.5 238 Z " /><path fill="rgb(253,249,249)" stroke="rgb(253,249,249)" stroke-width="1" opacity="1" d="M 106.5 11 L 116.5 12 L 118.5 12 L 122.5 11 L 122.5 13 L 126.5 15 Q 134.2 13.8 137.5 17 L 139 16.5 L 139.5 18 L 141.5 18 L 144.5 20 L 146 19.5 L 145.5 21 L 148.5 20 L 148.5 22 L 155 24 L 155 26 Q 158.8 24.5 158 27.5 Q 160.3 31.5 165 32 L 165 34 Q 167.7 32.9 167 35.5 L 172 38.5 L 174.5 42 L 176 41.5 L 175 43.5 L 180.5 52 L 182 51.5 L 181 53.5 L 183 53.5 L 182 55.5 L 184 57.5 L 187 69 L 189 69.5 L 188 71.5 L 190 71.5 L 189 76.5 L 191 80.5 L 190 85.5 L 191 89.5 L 190 93.5 L 191 95.5 L 190 96.5 L 190 200.5 L 193 204.5 L 189 205 L 189 85.5 L 188 84.5 L 188 76.5 L 184 63.5 L 178 51.5 Q 171.2 40.3 161.5 32 Q 150.2 22.3 134.5 17 L 121.5 14 L 100.5 14 L 95.5 15 L 96.5 13 L 106.5 11 Z " /><path fill="rgb(253,249,249)" stroke="rgb(253,249,249)" stroke-width="1" opacity="1" d="M 88.5 15 L 94 15.5 Q 63.6 22.6 48 44.5 L 38 61.5 L 33 79.5 Q 34.3 87.8 32 92.5 L 33 94.5 L 33 96.5 L 33 203.5 L 31.5 205 L 29.5 204 L 27.5 205 L 27.5 204 L 31 203 L 31 82.5 L 34 67.5 L 37 60.5 L 36.5 59 L 38 59.5 L 40 52.5 L 42.5 50 Q 45.5 50.9 44 46.5 L 47 45 L 48.5 40 L 50 40.5 L 52.5 37 Q 54.8 37.8 54 35.5 L 55 34.5 L 53.5 32 L 56 33.5 Q 55.2 30.9 58.5 32 L 58.5 30 Q 59.8 32.3 61 29.5 L 60.5 28 L 66 26.5 Q 63.8 25.3 66.5 24 Q 75 23.5 77.5 17 L 77.5 19 L 80.5 17 L 82.5 17 L 88.5 15 Z " /><path fill="rgb(253,249,249)" stroke="rgb(253,249,249)" stroke-width="1" opacity="1" d="M 88.5 22 L 92 24.5 L 91 27 L 87 25.5 L 88.5 22 Z " /><path fill="rgb(253,249,249)" stroke="rgb(253,249,249)" stroke-width="1" opacity="1" d="M 56.5 24 L 59 24.5 Q 56.9 27.8 56.5 24 Z " /><path fill="rgb(253,249,249)" stroke="rgb(253,249,249)" stroke-width="1" opacity="1" d="M 79.5 27 Q 82.8 25.9 82 28.5 L 68.5 37 L 56 49.5 L 47 64.5 L 43 79.5 Q 44.1 87.7 42 91 L 39 89.5 L 40 77.5 L 43 66.5 L 46 58.5 L 55 45 Q 57.7 46.1 57 43.5 Q 66.2 33.2 79.5 27 Z " /><path fill="rgb(253,249,249)" stroke="rgb(253,249,249)" stroke-width="1" opacity="1" d="M 40.5 42 L 41.5 44 L 40.5 42 Z " /><path fill="rgb(253,249,249)" stroke="rgb(253,249,249)" stroke-width="1" opacity="1" d="M 43.5 44 L 42.5 46 L 43.5 44 Z " /><path fill="rgb(253,249,249)" stroke="rgb(253,249,249)" stroke-width="1" opacity="1" d="M 32.5 64 L 33.5 66 L 32.5 64 Z " /><path fill="rgb(253,249,249)" stroke="rgb(253,249,249)" stroke-width="1" opacity="1" d="M 16.5 204 L 18 207.5 L 15.5 210 L 17 207.5 L 16.5 204 Z " /><path fill="rgb(253,249,249)" stroke="rgb(253,249,249)" stroke-width="1" opacity="1" d="M 203.5 206 L 206 206.5 L 205 208.5 L 207.5 212 Q 203.4 209.7 203.5 206 Z " /><path fill="rgb(253,249,249)" stroke="rgb(253,249,249)" stroke-width="1" opacity="1" d="M 10.5 208 L 13 208.5 L 11.5 210 L 9 209.5 L 10.5 208 Z " /><path fill="rgb(253,249,249)" stroke="rgb(253,249,249)" stroke-width="1" opacity="1" d="M 9.5 213 L 10.5 215 L 9.5 213 Z " /><path fill="rgb(253,249,249)" stroke="rgb(253,249,249)" stroke-width="1" opacity="1" d="M 210.5 213 L 210 214.5 L 209.5 216 L 209 214.5 L 210.5 213 Z " /><path fill="rgb(253,249,249)" stroke="rgb(253,249,249)" stroke-width="1" opacity="1" d="M 11.5 222 L 12 224.5 L 11 224.5 L 11.5 222 Z " /><path fill="rgb(253,249,249)" stroke="rgb(253,249,249)" stroke-width="1" opacity="1" d="M 209.5 227 L 212 228.5 L 210.5 228 L 209.5 227 Z " /><path fill="rgb(253,249,249)" stroke="rgb(253,249,249)" stroke-width="1" opacity="1" d="M 13.5 233 L 16 233.5 L 15.5 235 L 18 236.5 L 16.5 236 L 13.5 233 Z " /><path fill="rgb(253,249,249)" stroke="rgb(253,249,249)" stroke-width="1" opacity="1" d="M 205 235 L 207 235.5 L 205 236.5 L 205 235 Z " /><path fill="rgb(253,249,249)" stroke="rgb(253,249,249)" stroke-width="1" opacity="1" d="M 27.5 238 L 43 238.5 L 27.5 239 L 27.5 238 Z " /><path fill="rgb(253,249,249)" stroke="rgb(253,249,249)" stroke-width="1" opacity="1" d="M 204.5 238 L 205.5 240 L 204.5 238 Z " /><path fill="rgb(182,65,69)" stroke="rgb(182,65,69)" stroke-width="1" opacity="1" d="M 106.5 14 L 124 15.5 L 114.5 16 L 111.5 15 L 110.5 16 L 97.5 16 L 97.5 15 L 105.5 15 L 106.5 14 Z " /><path fill="rgb(182,65,69)" stroke="rgb(182,65,69)" stroke-width="1" opacity="1" d="M 92.5 16 L 96 16.5 L 92.5 17 L 92.5 16 Z " /><path fill="rgb(182,65,69)" stroke="rgb(182,65,69)" stroke-width="1" opacity="1" d="M 126.5 16 L 129 16.5 L 126.5 17 L 126.5 16 Z " /><path fill="rgb(182,65,69)" stroke="rgb(182,65,69)" stroke-width="1" opacity="1" d="M 88.5 17 L 91 17.5 L 83.5 20 L 83.5 19 L 88.5 17 Z " /><path fill="rgb(182,65,69)" stroke="rgb(182,65,69)" stroke-width="1" opacity="1" d="M 130.5 17 Q 156.7 23.8 171 42.5 L 183 62.5 L 188 81.5 L 188 205 L 184 203.5 L 187 201.5 L 187 81.5 Q 184.3 78.2 185 71.5 L 179 56.5 L 175 51.5 L 175 49.5 L 163.5 36 L 160 33.5 Q 160.8 31.3 158.5 32 L 146.5 24 L 132.5 19 L 130.5 17 Z " /><path fill="rgb(182,65,69)" stroke="rgb(182,65,69)" stroke-width="1" opacity="1" d="M 80.5 20 L 82 20.5 Q 63.6 28.1 52 42.5 L 50.5 45 Q 48.3 44.3 49 46.5 L 43 54.5 L 38.5 65 L 38 63.5 Q 44.9 45.4 58.5 34 Q 67.9 25.4 80.5 20 Z " /><path fill="rgb(182,65,69)" stroke="rgb(182,65,69)" stroke-width="1" opacity="1" d="M 89.5 20 L 93 22.5 Q 94.3 27.8 91.5 29 L 89 28.5 L 92 26.5 Q 92.8 21.8 89.5 21 L 86.5 23 L 87.5 21 L 89.5 20 Z " /><path fill="rgb(182,65,69)" stroke="rgb(182,65,69)" stroke-width="1" opacity="1" d="M 85.5 24 L 88 27.5 L 86.5 28 Q 84 27 85.5 24 Z " /><path fill="rgb(182,65,69)" stroke="rgb(182,65,69)" stroke-width="1" opacity="1" d="M 78.5 25 L 79 27 L 70.5 31 L 55 44.5 L 45.5 59 L 45 57.5 L 51 47 L 53 47 Q 51.5 43.2 54.5 44 L 58.5 39 L 61.5 37 L 78.5 25 Z " /><path fill="rgb(182,65,69)" stroke="rgb(182,65,69)" stroke-width="1" opacity="1" d="M 80.5 25 L 84 26.5 L 83.5 29 L 81.5 26 L 80.5 25 Z " /><path fill="rgb(182,65,69)" stroke="rgb(182,65,69)" stroke-width="1" opacity="1" d="M 81.5 30 L 83 30.5 L 64 43.5 L 53.5 57 L 52 56.5 L 60.5 46 Q 62.8 46.8 62 44.5 Q 69.7 35.2 81.5 30 Z " /><path fill="rgb(182,65,69)" stroke="rgb(182,65,69)" stroke-width="1" opacity="1" d="M 43 60 Q 45.7 58.9 45 61.5 L 40 73.5 L 39 90.5 L 41.5 92 L 43 90.5 L 44 76.5 L 45.5 72 L 46 76.5 L 45 77.5 L 44 91.5 L 42.5 93 Q 38.8 93.8 38 91.5 L 37 86.5 L 38 85.5 L 39 72.5 L 43 60 Z " /><path fill="rgb(182,65,69)" stroke="rgb(182,65,69)" stroke-width="1" opacity="1" d="M 50 60 L 52 60.5 L 46.5 71 L 46 69.5 L 50 60 Z " /><path fill="rgb(182,65,69)" stroke="rgb(182,65,69)" stroke-width="1" opacity="1" d="M 37.5 66 L 38 69.5 L 36 72.5 L 35 83.5 L 34 84.5 L 34 202.5 L 35 205 L 33 204.5 L 33 84.5 L 34 83.5 L 35 72.5 L 37.5 66 Z " /><path fill="rgb(182,65,69)" stroke="rgb(182,65,69)" stroke-width="1" opacity="1" d="M 67.5 203 L 70 203.5 L 67.5 204 L 67.5 203 Z " /><path fill="rgb(182,65,69)" stroke="rgb(182,65,69)" stroke-width="1" opacity="1" d="M 152.5 203 L 155 203.5 L 152.5 204 L 152.5 203 Z " /><path fill="rgb(182,65,69)" stroke="rgb(182,65,69)" stroke-width="1" opacity="1" d="M 176.5 203 L 179 203.5 L 176.5 204 L 176.5 203 Z " /><path fill="rgb(182,65,69)" stroke="rgb(182,65,69)" stroke-width="1" opacity="1" d="M 41.5 204 L 45 204.5 L 41.5 205 L 41.5 204 Z " /><path fill="rgb(182,65,69)" stroke="rgb(182,65,69)" stroke-width="1" opacity="1" d="M 48.5 204 L 56 204.5 L 48.5 205 L 48.5 204 Z " /><path fill="rgb(182,65,69)" stroke="rgb(182,65,69)" stroke-width="1" opacity="1" d="M 18.5 208 L 15.5 212 L 18.5 208 Z " /><path fill="rgb(182,65,69)" stroke="rgb(182,65,69)" stroke-width="1" opacity="1" d="M 203.5 208 L 206.5 212 L 203.5 208 Z " /><path fill="rgb(182,65,69)" stroke="rgb(182,65,69)" stroke-width="1" opacity="1" d="M 203.5 234 L 202.5 236 L 203.5 234 Z " /><path fill="rgb(214,28,38)" stroke="rgb(214,28,38)" stroke-width="1" opacity="1" d="M 101.5 17 Q 108.3 15.2 110 18.5 L 109.5 20 L 109 18 L 102.5 20 L 102.5 18 L 101.5 17 Z " /><path fill="rgb(214,28,38)" stroke="rgb(214,28,38)" stroke-width="1" opacity="1" d="M 92.5 18 L 95.5 22 L 93 21 L 92.5 18 Z " /><path fill="rgb(214,28,38)" stroke="rgb(214,28,38)" stroke-width="1" opacity="1" d="M 124.5 20 L 127 20.5 L 124.5 21 L 124.5 20 Z " /><path fill="rgb(214,28,38)" stroke="rgb(214,28,38)" stroke-width="1" opacity="1" d="M 120 21 L 122 21.5 L 120 22.5 L 120 21 Z " /><path fill="rgb(214,28,38)" stroke="rgb(214,28,38)" stroke-width="1" opacity="1" d="M 134.5 21 L 136.5 22 L 138 21.5 L 138 24 L 132 24 L 130 28 Q 135.4 26.5 137 29.5 L 135.5 33 L 132 33 Q 133.1 30.3 130.5 31 L 128 30 L 127 24 Q 132.4 24.9 134.5 21 Z " /><path fill="rgb(214,28,38)" stroke="rgb(214,28,38)" stroke-width="1" opacity="1" d="M 123.5 22 L 125.5 23 L 127 22.5 L 123 24 L 123.5 22 Z " /><path fill="rgb(214,28,38)" stroke="rgb(214,28,38)" stroke-width="1" opacity="1" d="M 94.5 23 L 97 26.5 L 95 27.5 L 94.5 23 Z " /><path fill="rgb(214,28,38)" stroke="rgb(214,28,38)" stroke-width="1" opacity="1" d="M 140 25 L 145 25.5 L 144 29 L 151 31 L 150.5 33 L 141.5 33 L 139 31.5 L 142 29.5 Q 139.3 28.4 140 25 Z " /><path fill="rgb(214,28,38)" stroke="rgb(214,28,38)" stroke-width="1" opacity="1" d="M 94.5 30 L 95.5 32 L 90.5 33 L 89.5 31 L 94.5 30 Z " /><path fill="rgb(214,28,38)" stroke="rgb(214,28,38)" stroke-width="1" opacity="1" d="M 157.5 33 Q 159.8 32.3 159 34.5 L 157.5 33 Z " /><path fill="rgb(214,28,38)" stroke="rgb(214,28,38)" stroke-width="1" opacity="1" d="M 75.5 36 L 80 38.5 L 81 42 L 77 39.5 L 76.5 37 L 74.5 38 L 75.5 36 Z " /><path fill="rgb(214,28,38)" stroke="rgb(214,28,38)" stroke-width="1" opacity="1" d="M 162.5 37 L 162.5 39 Q 165.1 38.3 164 41 Q 160.2 42 159 39.5 Q 158.2 36.9 161.5 38 L 162.5 37 Z " /><path fill="rgb(214,28,38)" stroke="rgb(214,28,38)" stroke-width="1" opacity="1" d="M 71 40 L 77.5 44 L 81 44 Q 82 47.8 79.5 49 Q 76.9 49.8 78 46.5 L 71 41.5 L 71 40 Z " /><path fill="rgb(214,28,38)" stroke="rgb(214,28,38)" stroke-width="1" opacity="1" d="M 166 42 Q 168.7 40.9 168 43.5 L 169 46.5 L 166 44.5 L 166 42 Z " /><path fill="rgb(214,28,38)" stroke="rgb(214,28,38)" stroke-width="1" opacity="1" d="M 67.5 44 L 73 46.5 L 71.5 49 Q 67.1 50.5 68 47.5 L 69 46.5 L 67.5 44 Z " /><path fill="rgb(214,28,38)" stroke="rgb(214,28,38)" stroke-width="1" opacity="1" d="M 160.5 44 L 169 48.5 Q 166.5 50 170 51.5 L 171 53.5 L 169 54 L 168.5 51 L 168 54 Q 163.3 53 162 56.5 L 160.5 59 L 160 53.5 L 166 49.5 L 160 46.5 L 160.5 44 Z " /><path fill="rgb(214,28,38)" stroke="rgb(214,28,38)" stroke-width="1" opacity="1" d="M 83.5 46 L 86 47.5 L 82.5 48 L 83.5 46 Z " /><path fill="rgb(214,28,38)" stroke="rgb(214,28,38)" stroke-width="1" opacity="1" d="M 60.5 52 Q 63.8 50.9 63 53.5 L 65 53.5 L 63 56.5 L 60.5 58 L 57.5 57 L 55 62.5 Q 57.3 63.8 56 68.5 L 55 70.5 L 56 73.5 L 56 75.5 L 54 79.5 L 56 80 Q 57.1 82.7 54.5 82 L 51 79.5 L 51 75.5 L 54 67.5 L 52 67.5 L 54 64.5 L 52 64 Q 50.9 61.3 53.5 62 L 55 58.5 L 58.5 53 L 60.5 52 Z " /><path fill="rgb(214,28,38)" stroke="rgb(214,28,38)" stroke-width="1" opacity="1" d="M 173 54 L 177 55.5 L 178 57.5 L 177 58.5 L 178.5 61 L 177 60.5 L 178 63.5 L 176 62.5 L 173 54 Z " /><path fill="rgb(214,28,38)" stroke="rgb(214,28,38)" stroke-width="1" opacity="1" d="M 62 61 L 65 62.5 L 64 64.5 L 64 80 L 62 79.5 L 62 64.5 L 62 62.5 L 62 61 Z " /><path fill="rgb(214,28,38)" stroke="rgb(214,28,38)" stroke-width="1" opacity="1" d="M 164.5 61 L 171 62 Q 172.3 65.7 166.5 64 L 164.5 65 L 163 62.5 L 164.5 61 Z " /><path fill="rgb(214,28,38)" stroke="rgb(214,28,38)" stroke-width="1" opacity="1" d="M 179.5 63 L 182 68.5 L 182 70.5 L 185 87.5 L 185 191.5 L 186 193.5 Q 184 198 182 194.5 L 182 87.5 L 181 85 Q 177.7 86.3 179 81.5 Q 176.5 80 178 74.5 L 178.5 73 L 175 71.5 L 176.5 68 Q 178.3 70.8 180 66.5 L 179.5 63 Z " /><path fill="rgb(214,28,38)" stroke="rgb(214,28,38)" stroke-width="1" opacity="1" d="M 47.5 82 Q 50.3 83.4 49 88 Q 46.3 89.1 47 86.5 L 46 84.5 L 47.5 82 Z " /><path fill="rgb(214,28,38)" stroke="rgb(214,28,38)" stroke-width="1" opacity="1" d="M 36.5 92 L 38 95 L 43 97.5 L 42 98.5 L 42 117.5 Q 44.5 119 43 124.5 L 42 125.5 L 41.5 192 L 40 190.5 L 40 114.5 L 41 112.5 Q 38.3 110.8 40 104.5 L 40 102.5 L 39.5 96 L 37.5 97 L 35 95.5 L 36.5 92 Z " /><path fill="rgb(214,28,38)" stroke="rgb(214,28,38)" stroke-width="1" opacity="1" d="M 176 92 L 178 92.5 L 178 144.5 L 179 145.5 L 179 158.5 L 176 160.5 L 176 92 Z " /><path fill="rgb(214,28,38)" stroke="rgb(214,28,38)" stroke-width="1" opacity="1" d="M 45.5 93 L 46.5 96 L 48 95.5 L 48 97.5 L 49 101.5 L 49 121.5 L 46.5 123 Q 43.5 121.5 45 115.5 L 46 114.5 L 46 103.5 L 45 101.5 L 46 99.5 Q 43.3 98.8 44 94.5 L 45.5 93 Z " /><path fill="rgb(214,28,38)" stroke="rgb(214,28,38)" stroke-width="1" opacity="1" d="M 102.5 95 L 104.5 96 Q 106.3 93.3 112.5 95 Q 114 97.5 119.5 96 L 121.5 95 L 123 97.5 L 120.5 99 L 119.5 98 L 110.5 98 L 105.5 99 L 103.5 99 L 101 97.5 L 102.5 95 Z " /><path fill="rgb(214,28,38)" stroke="rgb(214,28,38)" stroke-width="1" opacity="1" d="M 96 100 Q 102.3 98.5 104 102.5 L 104.5 104 L 112.5 104 L 121.5 102 L 125 104.5 Q 124.3 106.8 126.5 106 L 126.5 104 Q 129.5 103.2 128 107 L 124.5 106 L 122.5 106 L 119.5 105 Q 118 108.5 111.5 107 L 110.5 106 L 96.5 106 L 92.5 107 L 92.5 106 L 96 104.5 L 96 100 Z " /><path fill="rgb(214,28,38)" stroke="rgb(214,28,38)" stroke-width="1" opacity="1" d="M 86.5 111 L 89 112.5 L 86.5 113 L 85 112.5 L 86.5 111 Z " /><path fill="rgb(214,28,38)" stroke="rgb(214,28,38)" stroke-width="1" opacity="1" d="M 134 111 L 138 111.5 L 137.5 114 L 133 113.5 L 134 111 Z " /><path fill="rgb(214,28,38)" stroke="rgb(214,28,38)" stroke-width="1" opacity="1" d="M 67 112 Q 71.6 110.8 73 113.5 L 71 114 L 69.5 117 Q 66.9 116.2 68 119.5 L 65.5 124 Q 62.8 124.6 64 118.5 L 63 116.5 L 66.5 115 L 68 115.5 L 67 112 Z " /><path fill="rgb(214,28,38)" stroke="rgb(214,28,38)" stroke-width="1" opacity="1" d="M 78.5 114 Q 80.8 113.3 80 115.5 Q 84.3 117.8 79.5 120 Q 75.5 119.5 75 122.5 Q 75.6 127.6 72.5 129 Q 70.3 128.3 71 130.5 L 69.5 130 L 68 129.5 L 72.5 124 L 74 123.5 L 73 118.5 L 78.5 114 Z " /><path fill="rgb(214,28,38)" stroke="rgb(214,28,38)" stroke-width="1" opacity="1" d="M 143.5 114 Q 145.9 116.3 145 121 L 142 119.5 Q 142.7 116.9 140 118 L 140 116 L 143.5 114 Z " /><path fill="rgb(214,28,38)" stroke="rgb(214,28,38)" stroke-width="1" opacity="1" d="M 148.5 115 L 154 116 L 154 122 L 150.5 122 Q 149.4 119.3 146 120 Q 144.9 117.3 147.5 118 L 148.5 115 Z " /><path fill="rgb(214,28,38)" stroke="rgb(214,28,38)" stroke-width="1" opacity="1" d="M 153.5 127 L 160 127 L 160 129.5 L 156.5 131 L 152 132 Q 153.1 129.3 150.5 130 L 149.5 128 L 153.5 127 Z " /><path fill="rgb(214,28,38)" stroke="rgb(214,28,38)" stroke-width="1" opacity="1" d="M 46 128 L 49 128.5 L 49 191.5 L 48 194 L 57.5 193 L 67 195 L 65.5 198 L 59.5 197 Q 58 199.5 52.5 198 L 47.5 195 L 44 196 L 46 190.5 L 46 128 Z " /><path fill="rgb(214,28,38)" stroke="rgb(214,28,38)" stroke-width="1" opacity="1" d="M 64.5 136 Q 68.5 137.5 67 144.5 L 64.5 145 L 63 143.5 L 64.5 136 Z " /><path fill="rgb(214,28,38)" stroke="rgb(214,28,38)" stroke-width="1" opacity="1" d="M 154.5 136 L 158 136 Q 156.9 138.7 159.5 138 L 156 142.5 L 158 144.5 L 157 158.5 L 158 159.5 L 159 190.5 L 157 194 L 174.5 194 L 176 192.5 Q 175.3 190.3 177.5 191 L 179 193.5 L 174.5 197 L 158.5 197 L 155 198 L 155 159.5 L 156 156.5 L 155 155.5 Q 156.5 148 154 144.5 L 154 140.5 L 153 137.5 L 154.5 136 Z " /><path fill="rgb(214,28,38)" stroke="rgb(214,28,38)" stroke-width="1" opacity="1" d="M 64.5 147 L 67 148 L 66.5 160 L 65 158.5 L 64 152.5 L 66 149.5 L 64 149.5 L 64.5 147 Z " /><path fill="rgb(214,28,38)" stroke="rgb(214,28,38)" stroke-width="1" opacity="1" d="M 64.5 165 L 65.5 168 L 66.5 166 L 67 190.5 L 66 190.5 L 66 176.5 L 65 175.5 L 64.5 165 Z " /><path fill="rgb(214,28,38)" stroke="rgb(214,28,38)" stroke-width="1" opacity="1" d="M 64.5 177 L 65 183.5 L 64 183.5 L 64.5 177 Z " /><path fill="rgb(214,28,38)" stroke="rgb(214,28,38)" stroke-width="1" opacity="1" d="M 36.5 194 L 37 196.5 L 36 196.5 L 36.5 194 Z " /><path fill="rgb(214,28,38)" stroke="rgb(214,28,38)" stroke-width="1" opacity="1" d="M 38.5 194 L 40 196.5 L 38 197.5 L 38.5 194 Z " /><path fill="rgb(214,28,38)" stroke="rgb(214,28,38)" stroke-width="1" opacity="1" d="M 183.5 197 L 185 200.5 Q 184 203 179.5 202 L 178.5 200 L 183.5 197 Z " /><path fill="rgb(214,28,38)" stroke="rgb(214,28,38)" stroke-width="1" opacity="1" d="M 40 200 L 46 200 L 46 203 Q 43 204 44 201 L 41.5 201 L 40 201.5 L 40 200 Z " /><path fill="rgb(214,28,38)" stroke="rgb(214,28,38)" stroke-width="1" opacity="1" d="M 48.5 200 L 66 200.5 L 48.5 201 L 48.5 200 Z " /><path fill="rgb(214,28,38)" stroke="rgb(214,28,38)" stroke-width="1" opacity="1" d="M 160.5 200 L 176 200.5 L 160.5 201 L 160.5 200 Z " /><path fill="rgb(213,30,39)" stroke="rgb(213,30,39)" stroke-width="1" opacity="1" d="M 96.5 17 L 106.5 19 L 109.5 17 L 127 17 Q 125.8 20 129.5 19 L 129.5 20 Q 127.3 19.3 128 21.5 Q 130.5 23 127 24.5 L 128 30 L 132 31 Q 130.7 34.3 135.5 33 L 137 29.5 Q 135.4 26.5 130 28 L 132 24 L 137.5 24 L 139.5 23 Q 142.3 24.3 140 25.5 L 142 29.5 L 139 31.5 L 141.5 33 L 151 33 Q 152.1 30.3 149.5 31 L 145.5 28 L 144 28.5 Q 145.3 25.8 146.5 28 L 148.5 27 L 149.5 30 L 155.5 32 L 165 39.5 L 164.5 41 L 164 39 L 161.5 40 L 161.5 38 Q 158.2 36.9 159 39.5 L 162 41.5 L 162 43.5 Q 161.1 46.9 166.5 45 Q 170.6 47.3 171 52 Q 176.2 50.3 175 54 Q 172.3 52.9 173 55.5 L 175 55.5 L 175 57.5 L 176 60.5 L 175 63.5 L 178 63.5 L 177 60.5 L 178 59.5 L 176.5 57 L 179 59.5 L 179 61.5 L 177 67 Q 179.7 68.1 179 65.5 L 180 65.5 L 177.5 69 L 176 68.5 L 177 70.5 L 175 70.5 L 176.5 73 L 179 73.5 Q 176.5 75 178 80.5 L 179 85 L 181 85.5 L 180 87.5 L 182 87.5 L 181.5 92 L 180 91.5 L 180.5 144 L 181.5 95 L 182 194 L 177 197.5 L 177.5 199 L 180 198 Q 181.1 200.7 178.5 200 L 178.5 202 L 176.5 201 L 175.5 202 L 159 202 L 158.5 200 L 158 202 L 154 200.5 L 155.5 201 Q 158.1 201.7 157 199 L 154 197.5 L 154 146.5 L 152 138 Q 155 136.8 154 140.5 L 154 144.5 L 156 158.5 L 155 159.5 L 155 198 L 158.5 197 L 174.5 197 L 179 193.5 L 177.5 191 Q 175.3 190.3 176 192.5 L 174.5 194 L 157 194 L 159 190.5 L 159 176.5 L 158 175.5 L 157 151.5 Q 159.5 150 158 144.5 L 156 142.5 L 159.5 138 Q 156.9 138.7 158 136 L 154.5 136 L 153 136.5 L 152 132 Q 149.3 133.1 150 130.5 L 149.5 129 L 152 130 Q 150.9 132.7 153.5 132 L 157.5 130 Q 158.8 132.3 160 129.5 L 160 127 L 153.5 127 L 149 128 Q 150.1 125.3 147.5 126 L 145 125 L 144 121.5 L 145 116.5 L 144.5 115 L 146 115.5 Q 145.3 112.9 148 114 L 148 112 L 145.5 112 L 139.5 117 L 134 114.5 L 138 113.5 L 137.5 111 Q 133.1 109.5 134 112.5 L 132 113.5 Q 132.8 110.9 129.5 112 L 124 109.5 Q 124.8 106.9 121.5 108 L 118 106.5 Q 119.3 103.8 120.5 106 L 123.5 107 L 125 104.5 L 119.5 102 L 112.5 104 L 104 104 L 101.5 100 Q 93.7 97.3 96 104.5 L 92 106.5 L 95.5 107 L 97.5 106 L 99.5 106 L 111 106.5 Q 101.8 105.8 96 108.5 Q 98.3 109.8 95.5 111 Q 88.8 110.3 87.5 115 L 85.5 115 L 83 116.5 L 79.5 121 L 76 123.5 L 75.5 125 L 75 122.5 L 82 117.5 L 80 114 L 73 118.5 L 74 123.5 L 71 125.5 L 68 129.5 L 70.5 131 L 71 129 L 73 128.5 L 72.5 127 L 74 127.5 L 74.5 126 L 75 127.5 L 69 134.5 L 68 138.5 L 68 192 L 58 192.5 L 63 193.5 L 58.5 194 L 54.5 193 L 48 194 L 49 191.5 L 49 128 L 47 127.5 L 47.5 126 L 46 126.5 L 46 190.5 L 44 196 L 47.5 195 Q 50.4 199.1 58.5 198 L 63.5 197 L 65.5 198 L 67 195 L 64 194.5 L 68 194 L 67 200 Q 63.6 200.8 62.5 198 L 60.5 200 L 49 200 L 47.5 197 Q 44.9 196.2 46 199.5 L 47.5 201 L 67 201.5 L 64.5 203 Q 62.7 200.3 56.5 202 L 53.5 203 L 52.5 202 L 46 202 Q 47 199 44 200 L 44 197.5 L 42 196.5 Q 42.8 199.1 39.5 198 L 40 196.5 L 39 194.5 L 40.5 191 L 42 191.5 L 42 125.5 Q 44.5 124 43 118.5 L 42 117.5 L 42 98.5 L 43 95.5 L 43.5 94 L 46 100.5 L 45 102.5 L 46 103.5 L 46 114.5 Q 43.5 116 45 121.5 L 47.5 123 L 49 121.5 L 49 101.5 L 47 96.5 L 47.5 95 L 45 94.5 L 46 92 Q 49.3 93.3 48 88.5 L 49 83.5 L 47 82.5 L 46.5 84 L 46 82.5 L 49 78.5 L 47 77.5 L 50 75.5 L 49 71.5 Q 52.5 69.8 51 64 L 55 62.5 L 54.5 61 L 52.5 62 L 52.5 61 L 54 60.5 Q 51.8 59.3 54.5 58 L 55.5 61 L 57.5 61 Q 59.8 61.8 59 59.5 L 57.5 57 L 61.5 58 L 63 55 Q 65.7 56.1 65 53.5 L 63 53.5 Q 63.8 51.3 61.5 52 L 62.5 50 L 67 48 L 65.5 45 L 64 44.5 L 70 43 L 71.5 39 L 71 40.5 L 73.5 44 Q 77.5 43.5 78 46.5 Q 76.9 49.8 79.5 49 Q 82 47.8 81 44 L 75 42.5 L 78.5 41 L 81 42 L 79 37.5 Q 81.8 36.4 81 33 L 86.5 31 L 93.5 33 L 96.5 31 L 100 32 L 100 26 L 97.5 26 Q 95.7 22.9 94 24.5 L 97 23.5 L 95.5 19 L 94 19.5 L 96.5 17 Z M 125 20 L 125 21 L 127 21 L 125 20 Z M 120 21 L 120 23 L 122 22 L 120 21 Z M 124 22 L 123 24 L 126 24 L 124 22 Z M 135 25 L 133 27 L 137 27 Q 138 24 135 25 Z M 72 44 L 69 45 L 69 47 L 68 49 Q 72 50 73 48 L 72 44 Z M 161 44 L 160 47 L 166 50 L 160 54 L 161 59 L 162 57 Q 164 53 169 54 L 170 56 L 173 54 L 170 53 L 170 51 L 169 53 L 168 52 L 169 49 L 161 44 Z M 75 46 L 76 48 Q 77 45 75 46 Z M 84 46 L 83 48 L 86 48 L 84 46 Z M 167 57 Q 166 60 169 59 Q 170 56 167 57 Z M 160 60 Q 159 63 162 62 Q 163 59 160 60 Z M 62 61 L 62 63 L 62 65 L 62 80 L 64 80 L 64 65 L 65 63 L 62 61 Z M 165 61 L 163 63 L 165 65 L 167 64 Q 172 66 171 62 L 165 61 Z M 56 63 L 53 66 L 54 68 L 53 70 Q 52 72 55 71 L 56 69 L 56 63 Z M 53 71 L 51 80 L 56 82 Q 57 79 55 80 L 56 78 L 55 75 L 56 72 L 55 72 L 53 71 Z M 177 76 L 176 80 L 177 80 L 177 76 Z M 176 92 L 176 161 L 179 159 L 179 146 L 178 145 L 178 93 L 176 92 Z M 103 95 L 101 98 L 104 99 L 106 99 L 111 98 L 120 98 L 121 99 L 123 98 L 122 95 L 120 96 Q 114 98 113 95 Q 106 93 105 96 L 103 95 Z M 96 96 Q 95 100 100 98 Q 101 94 96 96 Z M 126 96 Q 125 99 128 98 Q 129 95 126 96 Z M 110 100 L 110 102 L 113 101 L 110 100 Z M 127 104 L 127 106 L 125 107 L 128 107 Q 129 103 127 104 Z M 87 111 L 86 113 L 88 112 L 87 111 Z M 64 112 Q 63 115 66 114 Q 67 111 64 112 Z M 67 112 L 68 116 L 67 115 L 63 117 L 64 119 Q 63 125 66 124 L 68 120 Q 67 116 70 117 L 71 114 L 73 114 Q 72 111 67 112 Z M 74 112 L 74 116 L 76 115 Q 77 111 74 112 Z M 82 113 L 83 115 Q 84 112 82 113 Z M 149 115 L 148 118 Q 145 117 146 120 Q 149 119 151 122 L 154 122 L 154 116 L 149 115 Z M 69 125 L 66 127 L 69 127 L 69 125 Z M 64 132 L 63 144 L 67 145 L 67 139 Q 63 137 66 136 Q 67 131 64 132 Z M 65 147 L 64 150 L 66 150 L 64 153 L 65 159 L 67 160 L 67 148 L 65 147 Z M 65 165 L 64 168 L 65 168 L 65 165 Z M 67 166 L 65 169 L 66 191 L 67 191 L 67 166 Z M 65 177 L 64 184 L 65 184 L 65 177 Z M 51 192 L 51 193 L 54 193 L 51 192 Z M 160 192 L 160 193 L 175 193 L 160 192 Z M 161 199 L 160 201 L 176 201 L 176 200 L 175 200 L 162 200 L 161 199 Z " /><path fill="rgb(213,30,39)" stroke="rgb(213,30,39)" stroke-width="1" opacity="1" d="M 91.5 19 Q 93.8 18.3 93 20.5 L 91.5 19 Z " /><path fill="rgb(213,30,39)" stroke="rgb(213,30,39)" stroke-width="1" opacity="1" d="M 133.5 20 L 134 22 L 132 21.5 L 133.5 20 Z " /><path fill="rgb(213,30,39)" stroke="rgb(213,30,39)" stroke-width="1" opacity="1" d="M 59.5 51 L 60 53 L 58 52.5 L 59.5 51 Z " /><path fill="rgb(213,30,39)" stroke="rgb(213,30,39)" stroke-width="1" opacity="1" d="M 180.5 68 L 181.5 70 L 180.5 68 Z " /><path fill="rgb(213,30,39)" stroke="rgb(213,30,39)" stroke-width="1" opacity="1" d="M 182.5 72 L 183 74.5 L 182 74.5 L 182.5 72 Z " /><path fill="rgb(213,30,39)" stroke="rgb(213,30,39)" stroke-width="1" opacity="1" d="M 183.5 76 L 184 80.5 L 183 80.5 L 183.5 76 Z " /><path fill="rgb(213,30,39)" stroke="rgb(213,30,39)" stroke-width="1" opacity="1" d="M 184.5 83 L 185 86.5 L 184 86.5 L 184.5 83 Z " /><path fill="rgb(213,30,39)" stroke="rgb(213,30,39)" stroke-width="1" opacity="1" d="M 185.5 90 L 186 143.5 L 185 143.5 L 185.5 90 Z " /><path fill="rgb(213,30,39)" stroke="rgb(213,30,39)" stroke-width="1" opacity="1" d="M 40.5 95 L 39.5 97 L 40.5 95 Z " /><path fill="rgb(213,30,39)" stroke="rgb(213,30,39)" stroke-width="1" opacity="1" d="M 35 96 L 38 97.5 L 38.5 118 L 39.5 115 L 40 125.5 L 38 127.5 L 38 200.5 L 40 200.5 Q 38.5 203.5 37 200.5 L 36 197.5 L 37 194.5 L 36 191.5 L 37 190.5 L 37 144.5 Q 34.3 142.7 36 136.5 Q 38.5 135 37 129.5 L 36 128.5 L 36 104.5 L 35 103.5 L 36 98.5 L 35 96 Z " /><path fill="rgb(213,30,39)" stroke="rgb(213,30,39)" stroke-width="1" opacity="1" d="M 114.5 107 L 117 107.5 L 114.5 108 L 114.5 107 Z " /><path fill="rgb(213,30,39)" stroke="rgb(213,30,39)" stroke-width="1" opacity="1" d="M 141.5 118 L 143 120.5 L 141 119.5 L 141.5 118 Z " /><path fill="rgb(213,30,39)" stroke="rgb(213,30,39)" stroke-width="1" opacity="1" d="M 185.5 194 L 185 195.5 L 184.5 199 L 183.5 197 L 182 197.5 L 182.5 195 Q 184 197.5 185.5 194 Z " /><path fill="rgb(213,30,39)" stroke="rgb(213,30,39)" stroke-width="1" opacity="1" d="M 41.5 201 Q 44.8 199.9 44 202.5 L 42.5 202 L 41.5 201 Z " /><path fill="rgb(213,30,39)" stroke="rgb(213,30,39)" stroke-width="1" opacity="1" d="M 184.5 201 L 183.5 203 L 182 202.5 L 184.5 201 Z " /><path fill="rgb(204,37,46)" stroke="rgb(204,37,46)" stroke-width="1" opacity="1" d="M 111.5 15 L 126 16.5 L 96.5 17 L 95 18.5 L 95.5 20 L 92.5 18 Q 89.5 19.5 92.5 21 Q 95.5 20.5 94 27.5 L 95.5 30 L 93.5 30 L 88.5 29 L 82.5 33 L 80 33 L 78.5 37 L 76.5 38 L 76.5 36 L 69 41.5 Q 69.9 44.5 65.5 43 L 64 43.5 Q 72.3 35.5 83 31 L 84 26.5 L 80.5 25 L 77.5 26 L 60 37 Q 61.1 39.7 58.5 39 L 54.5 44 Q 52.3 43.3 53 45.5 L 43 60.5 L 39 72.5 L 37 87.5 L 39.5 93 Q 43.3 93.8 44 91.5 L 45 77.5 L 48 66.5 L 57 51.5 L 61.5 47 L 63 49.5 L 61 49.5 Q 61.8 51.8 59.5 51 L 53 59.5 L 51 66.5 L 49 68.5 L 49 71.5 L 47 73.5 L 46 89.5 L 47.5 92 L 45 90.5 L 46 92.5 L 39.5 95 L 36 92.5 L 35 97.5 L 36 99.5 L 35 103.5 L 36 104.5 L 36 119.5 L 36 121.5 L 37 135.5 Q 34.3 137.3 36 143.5 L 37 144.5 L 37 190.5 L 36 191.5 L 36 200.5 Q 39.2 203.8 46.5 203 Q 47.7 200.8 52.5 202 L 55.5 203 Q 57.2 200.3 63.5 202 L 65.5 203 Q 69.8 201.2 67 199.5 L 69 190.5 L 69 176.5 L 68 175.5 L 68 156.5 Q 70.3 155.3 69 150.5 L 68 145.5 L 69 141.5 L 68 138 Q 71.3 139.3 70 134.5 L 79.5 121 L 84 117.5 L 85.5 115 L 88 115.5 L 85.5 119 L 77 126.5 Q 71.8 133.8 70 144.5 L 70 201.5 L 70.5 203 L 66.5 204 L 37.5 204 L 34 202.5 L 34 84.5 L 38 65.5 L 49 45 L 52 43.5 L 62.5 32 L 82.5 20 L 96.5 16 L 110.5 16 L 111.5 15 Z M 90 20 L 88 21 L 85 27 L 92 29 Q 94 28 93 23 L 90 20 Z M 84 21 L 80 23 L 84 24 Q 87 23 84 21 Z " /><path fill="rgb(204,37,46)" stroke="rgb(204,37,46)" stroke-width="1" opacity="1" d="M 127.5 17 L 142.5 22 L 160 32 L 162.5 36 L 166 38.5 L 171 44.5 L 169 45 L 162.5 37 Q 159.2 38.1 160 35.5 L 159 33 L 154 32 L 152.5 29 L 137.5 21 L 135.5 21 L 132.5 20 L 129.5 21 L 129.5 19 L 127.5 17 Z " /><path fill="rgb(204,37,46)" stroke="rgb(204,37,46)" stroke-width="1" opacity="1" d="M 63.5 45 L 67 46.5 Q 67.7 49.5 64 48 L 63.5 45 Z " /><path fill="rgb(204,37,46)" stroke="rgb(204,37,46)" stroke-width="1" opacity="1" d="M 170 46 L 175 49.5 L 174.5 51 L 173 50.5 L 172.5 52 L 170 46 Z " /><path fill="rgb(204,37,46)" stroke="rgb(204,37,46)" stroke-width="1" opacity="1" d="M 175.5 52 L 183 65.5 L 187 81.5 L 187 201.5 Q 185.3 204.8 179.5 204 L 176.5 203 L 175.5 204 L 155.5 204 L 151 203 L 151 139.5 L 148 131.5 L 145 128.5 L 148 126.5 L 151 133.5 L 151 138.5 L 153 140.5 L 153 152.5 L 154 153.5 L 154 192.5 L 153 195.5 L 154 202 L 180.5 202 L 183.5 203 L 185 201.5 Q 183.8 196.8 186 195.5 L 186 176.5 L 185 172.5 L 186 171.5 L 186 156.5 L 185 153.5 L 185 151.5 Q 183.3 145.3 186 143.5 L 186 89.5 L 185 88.5 L 184 74.5 L 180.5 64 L 179 64.5 L 179 62.5 L 179 59.5 L 175 53.5 L 175.5 52 Z " /><path fill="rgb(204,37,46)" stroke="rgb(204,37,46)" stroke-width="1" opacity="1" d="M 107.5 107 L 124 109 L 123.5 111 L 122.5 110 L 98 110 Q 99.1 112.7 96.5 112 L 89.5 115 L 91.5 112 L 94.5 112 L 99.5 108 Q 105.8 109.8 107.5 107 Z " /><path fill="rgb(204,37,46)" stroke="rgb(204,37,46)" stroke-width="1" opacity="1" d="M 125.5 111 L 137.5 116 L 140 118.5 L 141.5 121 L 144 122.5 L 145 125.5 L 138.5 120 L 136 118.5 Q 136.8 116.3 134.5 117 L 126.5 113 L 125.5 111 Z " /><path fill="rgb(204,37,46)" stroke="rgb(204,37,46)" stroke-width="1" opacity="1" d="M 180.5 195 L 181.5 197 Q 178.7 197.7 180.5 195 Z " /><path fill="rgb(254,254,254)" stroke="rgb(254,254,254)" stroke-width="1" opacity="1" d="M 96.5 0 L 100 0.5 L 96.5 1 L 96.5 0 Z " /><path fill="rgb(254,254,254)" stroke="rgb(254,254,254)" stroke-width="1" opacity="1" d="M 112.5 0 Q 116.3 -1 115 2 L 112.5 0 Z " /><path fill="rgb(254,254,254)" stroke="rgb(254,254,254)" stroke-width="1" opacity="1" d="M 116 0 L 121 0.5 Q 119.8 3 116 2 L 116 0 Z " /><path fill="rgb(254,254,254)" stroke="rgb(254,254,254)" stroke-width="1" opacity="1" d="M 125.5 0 L 129 0.5 L 126.5 2 L 125.5 0 Z " /><path fill="rgb(254,254,254)" stroke="rgb(254,254,254)" stroke-width="1" opacity="1" d="M 106.5 4 Q 111 3 112 5.5 Q 113.1 8.8 110.5 8 Q 109 11 104 10.5 L 106 11.5 L 100.5 13 L 101.5 11 L 103 10.5 L 99.5 10 L 97.5 10 L 96 9.5 L 100 7.5 L 99.5 6 L 108 5.5 L 106.5 4 Z M 107 8 L 107 9 L 109 9 L 107 8 Z " /><path fill="rgb(254,254,254)" stroke="rgb(254,254,254)" stroke-width="1" opacity="1" d="M 116.5 6 L 122.5 6 Q 123.8 8.8 128 8.5 L 125 9.5 L 128 10.5 L 125.5 11 L 121.5 10 L 122.5 12 L 125.5 13 L 127 12.5 L 126.5 14 L 128 14.5 L 126.5 15 L 120.5 11 L 118.5 12 L 119 10.5 L 118.5 8 L 117 8.5 L 116.5 6 Z " /><path fill="rgb(254,254,254)" stroke="rgb(254,254,254)" stroke-width="1" opacity="1" d="M 90.5 8 L 91 10 L 95 11.5 L 91 12 L 90.5 10 L 88.5 11 L 90.5 8 Z " /><path fill="rgb(254,254,254)" stroke="rgb(254,254,254)" stroke-width="1" opacity="1" d="M 92.5 8 L 95 8.5 L 92.5 9 L 92.5 8 Z " /><path fill="rgb(254,254,254)" stroke="rgb(254,254,254)" stroke-width="1" opacity="1" d="M 96.5 11 L 99 12.5 L 95.5 14 L 96 12.5 L 96.5 11 Z " /><path fill="rgb(254,254,254)" stroke="rgb(254,254,254)" stroke-width="1" opacity="1" d="M 91.5 13 L 94 13.5 L 81.5 18 L 81 16 L 91.5 13 Z " /><path fill="rgb(254,254,254)" stroke="rgb(254,254,254)" stroke-width="1" opacity="1" d="M 134.5 15 L 138 16.5 L 136.5 16 Q 133.5 16.5 134.5 15 Z " /><path fill="rgb(254,254,254)" stroke="rgb(254,254,254)" stroke-width="1" opacity="1" d="M 48 16 Q 51.7 14.8 50 20 Q 46.3 21.2 48 16 Z " /><path fill="rgb(254,254,254)" stroke="rgb(254,254,254)" stroke-width="1" opacity="1" d="M 58 16 L 61 17.5 Q 61.7 20.5 58 19 L 58 16 Z " /><path fill="rgb(254,254,254)" stroke="rgb(254,254,254)" stroke-width="1" opacity="1" d="M 70.5 16 Q 73.1 15.3 72 18 L 75 18 L 75.5 16 L 76 19 Q 73.3 17.9 74 20.5 L 72 21.5 L 72 19.5 L 70.5 16 Z " /><path fill="rgb(254,254,254)" stroke="rgb(254,254,254)" stroke-width="1" opacity="1" d="M 79.5 16 L 79 17.5 Q 79.8 19.8 77.5 19 L 79.5 16 Z " /><path fill="rgb(254,254,254)" stroke="rgb(254,254,254)" stroke-width="1" opacity="1" d="M 142.5 16 L 146.5 17 L 148 16.5 L 146.5 19 L 144.5 18 L 145.5 20 L 151 21.5 L 148.5 22 L 141 17.5 L 142.5 16 Z " /><path fill="rgb(254,254,254)" stroke="rgb(254,254,254)" stroke-width="1" opacity="1" d="M 151.5 16 L 153 20 L 156 20.5 L 152.5 21 L 148 18.5 L 149.5 18 L 151 18.5 L 151.5 16 Z " /><path fill="rgb(254,254,254)" stroke="rgb(254,254,254)" stroke-width="1" opacity="1" d="M 154.5 17 L 155.5 19 L 154.5 17 Z " /><path fill="rgb(254,254,254)" stroke="rgb(254,254,254)" stroke-width="1" opacity="1" d="M 57.5 20 L 61 21.5 L 59.5 24 L 61 24.5 L 59.5 25 L 56.5 24 L 58.5 27 L 60 26.5 L 54 28.5 L 52.5 31 Q 50.3 31.8 51 29.5 L 54 27.5 L 51.5 24 L 54.5 23 L 56 23.5 L 57.5 20 Z " /><path fill="rgb(254,254,254)" stroke="rgb(254,254,254)" stroke-width="1" opacity="1" d="M 64 21 L 67 22.5 Q 67.8 24.8 65.5 24 L 64 24.5 L 64 21 Z " /><path fill="rgb(254,254,254)" stroke="rgb(254,254,254)" stroke-width="1" opacity="1" d="M 158.5 23 L 160 23.5 L 159.5 26 L 157.5 26 L 155 25.5 L 158.5 23 Z " /><path fill="rgb(254,254,254)" stroke="rgb(254,254,254)" stroke-width="1" opacity="1" d="M 62.5 24 L 64 26.5 L 62 25.5 L 62.5 24 Z " /><path fill="rgb(254,254,254)" stroke="rgb(254,254,254)" stroke-width="1" opacity="1" d="M 158.5 27 Q 160.8 26.3 160 28.5 L 160.5 30 L 158.5 27 Z " /><path fill="rgb(254,254,254)" stroke="rgb(254,254,254)" stroke-width="1" opacity="1" d="M 59 29 L 61 29.5 L 57.5 32 L 57.5 31 Q 60.1 31.7 59 29 Z " /><path fill="rgb(254,254,254)" stroke="rgb(254,254,254)" stroke-width="1" opacity="1" d="M 32 32 L 34 32.5 L 34 41 L 32 40.5 L 32 32 Z " /><path fill="rgb(254,254,254)" stroke="rgb(254,254,254)" stroke-width="1" opacity="1" d="M 46 32 L 49 32.5 L 48 35 L 44 33.5 L 46 33.5 L 46 32 Z " /><path fill="rgb(254,254,254)" stroke="rgb(254,254,254)" stroke-width="1" opacity="1" d="M 50.5 32 L 54 33.5 L 51.5 34 L 50.5 32 Z " /><path fill="rgb(254,254,254)" stroke="rgb(254,254,254)" stroke-width="1" opacity="1" d="M 171.5 32 L 171.5 34 Q 173.8 34.8 173 32.5 L 174 32.5 L 173 34.5 L 176 35 L 173.5 39 L 174 37.5 L 172.5 35 L 170.5 35 L 168.5 34 L 167 34.5 L 171.5 32 Z " /><path fill="rgb(254,254,254)" stroke="rgb(254,254,254)" stroke-width="1" opacity="1" d="M 50.5 35 L 52 35.5 L 50.5 39 L 49 38.5 L 51 37.5 L 49 36.5 L 50.5 35 Z " /><path fill="rgb(254,254,254)" stroke="rgb(254,254,254)" stroke-width="1" opacity="1" d="M 42.5 40 L 45.5 42 L 46.5 40 L 48 42.5 L 47 45 L 44 46.5 L 43.5 48 L 42.5 45 L 41 48.5 L 42 50.5 L 39 52.5 L 41 49.5 L 39.5 49 L 38 52 Q 34.2 53.5 35 50.5 L 32 49.5 L 32.5 48 Q 34 50.5 35.5 47 L 38.5 48 L 40.5 44 L 42 44.5 L 43 41.5 L 41 41.5 L 42.5 40 Z " /><path fill="rgb(254,254,254)" stroke="rgb(254,254,254)" stroke-width="1" opacity="1" d="M 175.5 43 L 177 46.5 L 176 46.5 L 175.5 43 Z " /><path fill="rgb(254,254,254)" stroke="rgb(254,254,254)" stroke-width="1" opacity="1" d="M 180.5 51 L 183 52.5 L 181 53.5 L 180.5 51 Z " /><path fill="rgb(254,254,254)" stroke="rgb(254,254,254)" stroke-width="1" opacity="1" d="M 186.5 51 Q 188.8 50.3 188 52.5 L 186.5 51 Z " /><path fill="rgb(254,254,254)" stroke="rgb(254,254,254)" stroke-width="1" opacity="1" d="M 190 54 Q 193 52.8 192 56.5 L 190 55.5 L 190 54 Z " /><path fill="rgb(254,254,254)" stroke="rgb(254,254,254)" stroke-width="1" opacity="1" d="M 34.5 56 L 35.5 58 L 34.5 56 Z " /><path fill="rgb(254,254,254)" stroke="rgb(254,254,254)" stroke-width="1" opacity="1" d="M 38.5 57 L 38 58.5 L 37 63 L 35 62.5 L 38.5 57 Z " /><path fill="rgb(254,254,254)" stroke="rgb(254,254,254)" stroke-width="1" opacity="1" d="M 32 59 Q 35.8 57.5 35 60.5 L 33 60.5 L 35 66.5 L 33.5 72 L 32 69.5 L 32 67.5 L 33 63.5 L 32 59 Z " /><path fill="rgb(254,254,254)" stroke="rgb(254,254,254)" stroke-width="1" opacity="1" d="M 190 62 Q 193 60.8 192 64.5 L 192 66.5 L 191.5 68 Q 190 65.5 188.5 69 Q 186.3 69.8 187 67.5 L 189 67.5 L 190 62 Z " /><path fill="rgb(254,254,254)" stroke="rgb(254,254,254)" stroke-width="1" opacity="1" d="M 188.5 64 L 187.5 66 L 186 65.5 L 188.5 64 Z " /><path fill="rgb(254,254,254)" stroke="rgb(254,254,254)" stroke-width="1" opacity="1" d="M 189.5 73 L 192 78.5 L 190 79.5 Q 192.5 78 189 76.5 L 189.5 73 Z " /><path fill="rgb(254,254,254)" stroke="rgb(254,254,254)" stroke-width="1" opacity="1" d="M 32.5 75 L 32 76.5 L 31.5 82 L 31 76.5 L 32.5 75 Z " /><path fill="rgb(254,254,254)" stroke="rgb(254,254,254)" stroke-width="1" opacity="1" d="M 190.5 81 L 192 83.5 L 191 83.5 L 190.5 81 Z " /><path fill="rgb(254,254,254)" stroke="rgb(254,254,254)" stroke-width="1" opacity="1" d="M 190.5 90 L 191 93.5 L 190 93.5 L 190.5 90 Z " /><path fill="rgb(254,254,254)" stroke="rgb(254,254,254)" stroke-width="1" opacity="1" d="M 190.5 184 L 191 186.5 L 190 186.5 L 190.5 184 Z " /><path fill="rgb(254,254,254)" stroke="rgb(254,254,254)" stroke-width="1" opacity="1" d="M 190.5 191 L 191 193.5 L 190 193.5 L 190.5 191 Z " /><path fill="rgb(254,254,254)" stroke="rgb(254,254,254)" stroke-width="1" opacity="1" d="M 17.5 200 L 22.5 201 L 24.5 200 L 27 204.5 L 25.5 204 L 18.5 207 L 18.5 206 L 20 205.5 L 19.5 204 L 23 203.5 L 19.5 202 Q 17.8 205.8 16 202.5 L 17.5 200 Z " /><path fill="rgb(254,254,254)" stroke="rgb(254,254,254)" stroke-width="1" opacity="1" d="M 190.5 200 L 196 202 L 195.5 204 L 193.5 203 L 193.5 205 Q 189.8 203 191.5 201 L 190.5 200 Z " /><path fill="rgb(254,254,254)" stroke="rgb(254,254,254)" stroke-width="1" opacity="1" d="M 199.5 200 Q 202.3 201.3 200 202.5 L 199 204.5 L 202.5 205 L 202.5 203 L 205.5 205 L 205.5 206 L 203.5 205 L 202.5 207 L 197 204.5 L 199 203.5 L 197 202.5 L 199 202 L 199.5 200 Z " /><path fill="rgb(254,254,254)" stroke="rgb(254,254,254)" stroke-width="1" opacity="1" d="M 202 200 L 205.5 201 L 207.5 200 L 207.5 201 Q 205.3 200.3 206 202.5 L 204.5 202 Q 200.8 203 202 200 Z " /><path fill="rgb(254,254,254)" stroke="rgb(254,254,254)" stroke-width="1" opacity="1" d="M 8.5 208 L 9 210.5 L 8 210.5 L 8.5 208 Z " /><path fill="rgb(254,254,254)" stroke="rgb(254,254,254)" stroke-width="1" opacity="1" d="M 209.5 208 L 210.5 212 L 211 210 L 213 209.5 L 211 208.5 L 212.5 208 L 214.5 208 Q 216.8 207.3 216 209.5 L 213 210.5 L 216 212.5 L 213 214.5 L 213.5 217 L 215.5 214 L 216 217 L 214 217 L 214 219 Q 211.3 217.9 212 220.5 L 211 220.5 L 210 216.5 L 212 216.5 Q 212.5 212.5 209.5 212 L 207 210.5 L 209 210.5 L 209.5 208 Z M 213 211 L 213 214 Q 216 213 213 211 Z " /><path fill="rgb(254,254,254)" stroke="rgb(254,254,254)" stroke-width="1" opacity="1" d="M 13.5 209 L 15.5 210 L 17 209.5 L 13 211 L 12.5 215 L 10 212.5 L 10.5 210 L 12.5 211 L 13.5 209 Z " /><path fill="rgb(254,254,254)" stroke="rgb(254,254,254)" stroke-width="1" opacity="1" d="M 10.5 215 L 12 217.5 L 10 221.5 L 12 225.5 L 10 224.5 Q 10.7 221.9 8 223 L 8 219.5 L 10.5 215 Z " /><path fill="rgb(254,254,254)" stroke="rgb(254,254,254)" stroke-width="1" opacity="1" d="M 215.5 218 L 216 219.5 L 213.5 221 L 213.5 220 Q 216 220.7 215.5 218 Z " /><path fill="rgb(254,254,254)" stroke="rgb(254,254,254)" stroke-width="1" opacity="1" d="M 212.5 222 L 213 223.5 L 212 225.5 L 216 225.5 Q 216.8 228.1 213.5 227 L 213.5 228 Q 215.8 227.3 215 229.5 L 211 232 L 211.5 229 L 212.5 231 Q 215.8 229.3 212 227.5 L 211.5 226 L 210 226.5 L 212.5 222 Z " /><path fill="rgb(254,254,254)" stroke="rgb(254,254,254)" stroke-width="1" opacity="1" d="M 215.5 222 L 214.5 224 L 215.5 222 Z " /><path fill="rgb(254,254,254)" stroke="rgb(254,254,254)" stroke-width="1" opacity="1" d="M 8.5 226 L 11 227 Q 12.1 229.7 9.5 229 L 8 229.5 L 8 227.5 L 8.5 226 Z " /><path fill="rgb(254,254,254)" stroke="rgb(254,254,254)" stroke-width="1" opacity="1" d="M 209.5 229 L 209.5 232 Q 206.5 230.5 209.5 229 Z " /><path fill="rgb(254,254,254)" stroke="rgb(254,254,254)" stroke-width="1" opacity="1" d="M 11.5 230 L 12.5 232 L 13.5 230 L 15 232.5 L 12.5 234 L 12 232 L 10 231.5 L 11.5 230 Z " /><path fill="rgb(254,254,254)" stroke="rgb(254,254,254)" stroke-width="1" opacity="1" d="M 8.5 231 L 10 234.5 L 9 234.5 L 8.5 231 Z " /><path fill="rgb(254,254,254)" stroke="rgb(254,254,254)" stroke-width="1" opacity="1" d="M 207.5 232 L 207.5 235 Q 205.3 235.8 206 233.5 L 207.5 232 Z " /><path fill="rgb(254,254,254)" stroke="rgb(254,254,254)" stroke-width="1" opacity="1" d="M 12.5 235 L 15 235.5 L 11 237.5 L 14.5 239 L 15 237 Q 18 235.8 17 239.5 L 14.5 240 L 8 238.5 L 10 238 Q 8.9 235.3 11.5 236 L 12.5 235 Z " /><path fill="rgb(254,254,254)" stroke="rgb(254,254,254)" stroke-width="1" opacity="1" d="M 204.5 235 L 205 237 L 207.5 236 L 207 237.5 L 208 239.5 L 204 236.5 L 204.5 235 Z " /><path fill="rgb(254,254,254)" stroke="rgb(254,254,254)" stroke-width="1" opacity="1" d="M 18 237 L 20.5 238 L 22 237.5 L 21 240 L 18 238.5 L 18 237 Z " /><path fill="rgb(254,254,254)" stroke="rgb(254,254,254)" stroke-width="1" opacity="1" d="M 26.5 238 L 25.5 240 L 26.5 238 Z " /><path fill="rgb(254,254,254)" stroke="rgb(254,254,254)" stroke-width="1" opacity="1" d="M 196.5 238 L 199 239.5 L 197.5 240 L 196.5 238 Z " /><path fill="rgb(254,254,254)" stroke="rgb(254,254,254)" stroke-width="1" opacity="1" d="M 202.5 238 Q 204.8 237.3 204 239.5 L 201.5 240 L 200 239.5 L 202.5 238 Z " /><path fill="rgb(254,254,254)" stroke="rgb(254,254,254)" stroke-width="1" opacity="1" d="M 38.5 239 L 44 239.5 L 38.5 240 L 38.5 239 Z " /><path fill="rgb(254,254,254)" stroke="rgb(254,254,254)" stroke-width="1" opacity="1" d="M 52.5 239 L 56 239.5 L 52.5 240 L 52.5 239 Z " /><path fill="rgb(255,255,255)" stroke="rgb(255,255,255)" stroke-width="1" opacity="1" d="M 0 0 L 95.5 0 L 99.5 1 L 100.5 0 L 111.5 0 L 115 2 L 115.5 0 L 116 2 L 124.5 0 L 127.5 2 L 129.5 0 L 223 0 L 223 258 L 0 258 L 0 0 Z M 107 4 L 108 6 L 100 6 L 101 9 L 100 8 Q 95 7 96 10 L 99 11 L 103 10 L 105 10 L 109 10 L 106 9 L 109 8 L 111 8 Q 113 9 112 6 Q 111 3 107 4 Z M 117 6 L 117 9 L 119 8 L 119 11 L 114 12 L 112 12 L 104 10 L 100 13 L 97 11 L 95 15 L 92 15 L 94 14 L 94 13 L 82 16 Q 80 19 79 17 L 77 18 L 76 17 L 74 18 L 72 16 L 70 17 L 73 21 L 72 23 L 68 24 L 66 21 Q 63 20 64 25 L 66 24 L 66 27 L 64 26 L 56 32 L 55 35 Q 52 34 53 37 L 48 39 L 50 40 L 48 41 L 46 40 L 46 42 L 45 41 L 42 43 L 42 45 L 41 44 L 40 47 Q 39 49 38 47 L 35 48 L 39 50 L 41 49 L 43 46 L 44 49 Q 45 51 43 50 Q 41 47 39 52 L 40 54 L 36 62 L 36 64 Q 37 66 34 65 L 34 63 Q 31 64 32 68 L 33 71 Q 34 76 31 77 L 31 201 L 31 203 L 23 206 L 21 206 L 23 205 L 20 204 L 20 206 L 19 206 L 19 208 L 15 210 L 14 209 L 13 211 L 15 212 L 14 212 L 12 209 L 10 213 L 12 215 L 12 217 L 11 214 Q 11 218 8 220 Q 7 224 10 223 L 9 221 L 11 222 L 10 224 L 12 228 L 13 231 L 12 234 L 15 233 L 19 237 L 18 239 L 21 237 L 22 240 L 26 240 L 24 239 L 24 238 L 31 239 L 33 239 Q 37 238 39 240 Q 43 241 45 239 Q 51 237 53 240 L 57 239 L 194 239 L 195 240 L 195 239 L 198 238 L 200 239 L 203 237 L 204 236 L 207 239 L 207 238 L 207 234 L 208 232 Q 211 230 209 229 L 211 228 L 213 223 L 211 223 L 212 221 L 214 218 L 211 218 L 211 217 L 208 213 L 210 212 L 210 208 L 209 211 L 207 210 L 205 208 L 204 208 L 204 207 L 199 204 L 195 205 L 192 201 L 196 204 L 196 202 L 190 200 L 191 194 L 190 191 L 191 187 L 190 184 L 190 159 L 190 157 L 190 98 L 191 97 L 191 86 L 190 85 L 191 80 L 191 78 L 190 74 L 190 72 L 189 69 Q 185 67 188 66 L 186 65 L 183 57 L 183 53 L 181 51 L 180 48 Q 175 49 177 45 Q 173 43 176 42 Q 175 39 174 41 L 172 39 Q 172 35 168 36 L 168 35 L 165 33 L 165 31 L 161 31 L 160 29 L 158 26 L 160 26 L 160 23 L 156 25 L 151 23 L 151 22 L 145 19 L 145 18 L 152 21 L 156 21 L 153 20 L 152 16 L 151 19 L 147 18 L 149 17 L 149 16 L 146 17 L 145 15 L 144 17 L 142 17 L 137 15 Q 130 16 127 14 L 127 12 L 125 13 L 122 11 L 120 12 L 128 9 Q 124 9 123 6 L 117 6 Z M 91 8 L 88 11 L 92 12 L 95 12 L 91 10 L 91 8 Z M 93 8 L 93 9 L 95 9 L 93 8 Z M 126 10 L 126 11 L 128 11 L 126 10 Z M 48 16 Q 46 21 50 20 Q 52 15 48 16 Z M 58 16 L 58 19 Q 62 20 61 18 L 58 16 Z M 58 20 L 56 24 L 55 23 L 51 25 L 55 28 Q 56 25 58 27 L 57 25 L 59 25 L 61 25 L 60 24 L 61 22 L 58 20 Z M 63 24 L 61 26 L 63 26 L 63 24 Z M 53 28 L 51 31 L 54 30 Q 55 27 53 28 Z M 32 32 L 32 41 L 34 41 L 34 33 L 32 32 Z M 46 32 L 45 35 L 48 35 L 49 33 L 46 32 Z M 51 32 L 53 35 L 55 34 Q 54 31 51 32 Z M 171 33 L 169 35 L 174 36 L 173 39 L 175 39 L 176 35 L 171 33 Z M 51 34 L 49 37 L 51 37 Q 54 36 51 34 Z M 33 48 L 32 50 L 35 51 Q 34 54 38 52 Q 39 49 37 50 L 33 48 Z M 187 51 L 188 53 Q 189 50 187 51 Z M 190 54 L 190 56 L 192 57 Q 193 53 190 54 Z M 33 56 L 33 57 L 35 57 L 33 56 Z M 33 58 L 33 63 L 33 61 L 35 61 L 35 59 L 33 58 Z M 190 62 L 189 68 L 192 68 L 192 67 L 192 65 Q 193 61 190 62 Z M 17 200 L 16 203 Q 18 206 20 202 L 22 203 L 24 202 L 25 203 L 24 203 L 24 204 L 29 203 L 25 200 L 23 201 L 17 200 Z M 199 200 L 199 202 L 197 203 L 200 204 L 201 202 Q 202 199 199 200 Z M 202 200 L 202 202 L 208 204 L 208 202 L 202 200 Z M 203 203 Q 203 207 205 204 L 203 203 Z M 205 205 L 206 207 Q 207 204 205 205 Z M 9 208 L 9 211 Q 12 210 9 208 Z M 215 208 L 216 210 Q 217 207 215 208 Z M 214 209 L 211 210 L 210 213 Q 209 215 212 214 L 213 217 L 213 215 L 214 213 Q 211 214 212 212 L 215 213 L 216 213 L 214 209 Z M 216 214 L 214 216 Q 213 218 216 217 L 216 214 Z M 216 218 L 213 222 L 216 220 L 216 218 Z M 214 224 L 212 228 L 214 227 L 213 229 L 214 231 L 216 230 L 215 229 L 216 226 L 215 226 L 214 224 Z M 9 226 L 10 229 Q 12 230 11 227 L 9 226 Z M 212 228 L 211 230 Q 209 231 212 232 L 213 232 L 212 228 Z M 12 230 L 9 234 L 10 235 L 12 232 L 12 230 Z M 15 234 L 14 236 L 17 236 L 15 234 Z M 12 235 L 10 238 L 8 239 L 14 240 L 15 240 L 14 237 L 12 235 Z M 15 237 L 15 239 L 17 240 Q 18 236 15 237 Z M 21 238 L 19 240 L 21 240 L 21 238 Z M 203 238 Q 203 242 205 239 L 203 238 Z " /><path fill="rgb(209,32,37)" stroke="rgb(209,32,37)" stroke-width="1" opacity="1" d="M 95.5 20 L 95.5 22 Q 97.8 21.3 97 23.5 L 95.5 23 Q 93.3 23.8 94 21.5 L 95.5 20 Z " /><path fill="rgb(209,32,37)" stroke="rgb(209,32,37)" stroke-width="1" opacity="1" d="M 128.5 20 L 131.5 21 L 133 20.5 L 131.5 23 L 128.5 22 L 128.5 23 L 130 23.5 L 128.5 24 Q 125.8 22.8 128 21.5 L 128.5 20 Z " /><path fill="rgb(209,32,37)" stroke="rgb(209,32,37)" stroke-width="1" opacity="1" d="M 83.5 21 Q 86.5 22.5 83.5 24 L 80 22.5 L 83.5 21 Z " /><path fill="rgb(209,32,37)" stroke="rgb(209,32,37)" stroke-width="1" opacity="1" d="M 140.5 23 L 141.5 25 L 140.5 23 Z " /><path fill="rgb(209,32,37)" stroke="rgb(209,32,37)" stroke-width="1" opacity="1" d="M 144.5 24 L 148.5 28 Q 150 25.5 151.5 29 L 154 30.5 L 153.5 32 L 153 30 Q 148.5 30.8 146.5 28 Q 145.3 30.3 144 27.5 L 145 25.5 L 144.5 24 Z " /><path fill="rgb(209,32,37)" stroke="rgb(209,32,37)" stroke-width="1" opacity="1" d="M 134.5 25 L 137 25.5 L 133.5 27 L 134.5 25 Z " /><path fill="rgb(209,32,37)" stroke="rgb(209,32,37)" stroke-width="1" opacity="1" d="M 97 26 L 100 26 L 100 32 L 94.5 30 L 91.5 31 L 91.5 30 L 97 28 L 97 26 Z " /><path fill="rgb(209,32,37)" stroke="rgb(209,32,37)" stroke-width="1" opacity="1" d="M 88.5 29 Q 91.5 30.5 88.5 32 L 86 30.5 L 88.5 29 Z " /><path fill="rgb(209,32,37)" stroke="rgb(209,32,37)" stroke-width="1" opacity="1" d="M 65.5 31 L 63.5 34 L 65.5 31 Z " /><path fill="rgb(209,32,37)" stroke="rgb(209,32,37)" stroke-width="1" opacity="1" d="M 80.5 33 L 81 35.5 L 79 36.5 L 80.5 33 Z " /><path fill="rgb(209,32,37)" stroke="rgb(209,32,37)" stroke-width="1" opacity="1" d="M 74.5 38 L 78 40.5 L 78 42 L 74 42 Q 75.1 39.3 72.5 40 L 72.5 39 L 74.5 38 Z " /><path fill="rgb(209,32,37)" stroke="rgb(209,32,37)" stroke-width="1" opacity="1" d="M 165.5 40 L 166 45 L 162 45 L 162 43.5 Q 159.8 42.3 162.5 41 L 165.5 40 Z " /><path fill="rgb(209,32,37)" stroke="rgb(209,32,37)" stroke-width="1" opacity="1" d="M 62.5 46 Q 64.8 45.3 64 47.5 Q 66.3 48.8 63.5 50 L 62 49.5 L 60.5 52 L 61 50.5 L 63 47.5 L 62.5 46 Z " /><path fill="rgb(209,32,37)" stroke="rgb(209,32,37)" stroke-width="1" opacity="1" d="M 74.5 46 Q 76.8 45.3 76 47.5 L 74.5 46 Z " /><path fill="rgb(209,32,37)" stroke="rgb(209,32,37)" stroke-width="1" opacity="1" d="M 169.5 46 L 171.5 50 Q 173.3 47.3 175 51.5 L 173 52 L 172.5 50 L 171.5 52 L 169.5 46 Z " /><path fill="rgb(209,32,37)" stroke="rgb(209,32,37)" stroke-width="1" opacity="1" d="M 167 57 Q 170 56 169 59 Q 166 60 167 57 Z " /><path fill="rgb(209,32,37)" stroke="rgb(209,32,37)" stroke-width="1" opacity="1" d="M 56 58 L 59 59.5 Q 59.8 61.8 57.5 61 L 56 58 Z " /><path fill="rgb(209,32,37)" stroke="rgb(209,32,37)" stroke-width="1" opacity="1" d="M 160 60 Q 163 59 162 62 Q 159 63 160 60 Z " /><path fill="rgb(209,32,37)" stroke="rgb(209,32,37)" stroke-width="1" opacity="1" d="M 175.5 61 L 177.5 65 L 179 64.5 Q 180 68.3 177 67 L 175 63.5 L 175.5 61 Z " /><path fill="rgb(209,32,37)" stroke="rgb(209,32,37)" stroke-width="1" opacity="1" d="M 50.5 67 L 51 69.5 L 49 70.5 L 50.5 67 Z " /><path fill="rgb(209,32,37)" stroke="rgb(209,32,37)" stroke-width="1" opacity="1" d="M 48.5 72 Q 51.5 71.1 50 75.5 L 47.5 77 L 47 74.5 L 48.5 72 Z " /><path fill="rgb(209,32,37)" stroke="rgb(209,32,37)" stroke-width="1" opacity="1" d="M 176.5 76 L 177 79.5 L 176 79.5 L 176.5 76 Z " /><path fill="rgb(209,32,37)" stroke="rgb(209,32,37)" stroke-width="1" opacity="1" d="M 47 78 L 49 78.5 L 47.5 81 L 47 78 Z " /><path fill="rgb(209,32,37)" stroke="rgb(209,32,37)" stroke-width="1" opacity="1" d="M 184.5 80 L 185 82.5 L 184 82.5 L 184.5 80 Z " /><path fill="rgb(209,32,37)" stroke="rgb(209,32,37)" stroke-width="1" opacity="1" d="M 46.5 87 L 48 90.5 L 45.5 92 L 45.5 91 L 47 90.5 L 46.5 87 Z " /><path fill="rgb(209,32,37)" stroke="rgb(209,32,37)" stroke-width="1" opacity="1" d="M 180.5 91 L 182 94.5 L 181 95.5 L 180.5 144 L 180.5 91 Z " /><path fill="rgb(209,32,37)" stroke="rgb(209,32,37)" stroke-width="1" opacity="1" d="M 42.5 94 L 43 96 L 41 95.5 L 42.5 94 Z " /><path fill="rgb(209,32,37)" stroke="rgb(209,32,37)" stroke-width="1" opacity="1" d="M 96 96 Q 101.2 94.3 100 98 Q 94.8 99.7 96 96 Z " /><path fill="rgb(209,32,37)" stroke="rgb(209,32,37)" stroke-width="1" opacity="1" d="M 126 96 Q 129 95 128 98 Q 125 99 126 96 Z " /><path fill="rgb(209,32,37)" stroke="rgb(209,32,37)" stroke-width="1" opacity="1" d="M 38 97 L 40 97.5 L 40 114.5 L 38.5 118 L 38 97 Z " /><path fill="rgb(209,32,37)" stroke="rgb(209,32,37)" stroke-width="1" opacity="1" d="M 35.5 100 L 36 102.5 L 35 102.5 L 35.5 100 Z " /><path fill="rgb(209,32,37)" stroke="rgb(209,32,37)" stroke-width="1" opacity="1" d="M 110 100 L 113 100.5 L 110 102 L 110 100 Z " /><path fill="rgb(209,32,37)" stroke="rgb(209,32,37)" stroke-width="1" opacity="1" d="M 100.5 107 L 107 107.5 L 100.5 108 L 100.5 107 Z " /><path fill="rgb(209,32,37)" stroke="rgb(209,32,37)" stroke-width="1" opacity="1" d="M 111.5 107 L 114 107.5 L 111.5 108 L 111.5 107 Z " /><path fill="rgb(209,32,37)" stroke="rgb(209,32,37)" stroke-width="1" opacity="1" d="M 117.5 107 L 124 108.5 L 121.5 109 L 117.5 108 L 117.5 107 Z " /><path fill="rgb(209,32,37)" stroke="rgb(209,32,37)" stroke-width="1" opacity="1" d="M 96.5 108 L 99 108.5 L 96.5 109 L 96.5 108 Z " /><path fill="rgb(209,32,37)" stroke="rgb(209,32,37)" stroke-width="1" opacity="1" d="M 98 110 L 104 110.5 L 98.5 112 L 98 110 Z " /><path fill="rgb(209,32,37)" stroke="rgb(209,32,37)" stroke-width="1" opacity="1" d="M 122.5 110 L 125 110.5 Q 125.8 112.8 123.5 112 L 122.5 110 Z " /><path fill="rgb(209,32,37)" stroke="rgb(209,32,37)" stroke-width="1" opacity="1" d="M 92.5 111 L 95 111.5 L 92.5 112 L 92.5 111 Z " /><path fill="rgb(209,32,37)" stroke="rgb(209,32,37)" stroke-width="1" opacity="1" d="M 64 112 Q 67 111 66 114 Q 63 115 64 112 Z " /><path fill="rgb(209,32,37)" stroke="rgb(209,32,37)" stroke-width="1" opacity="1" d="M 74 112 Q 77 110.8 76 114.5 L 74 115.5 L 74 112 Z " /><path fill="rgb(209,32,37)" stroke="rgb(209,32,37)" stroke-width="1" opacity="1" d="M 80.5 112 L 83 113 L 82.5 115 L 80.5 112 Z " /><path fill="rgb(209,32,37)" stroke="rgb(209,32,37)" stroke-width="1" opacity="1" d="M 90.5 112 L 89.5 116 L 87.5 117 L 88 115.5 L 90.5 112 Z " /><path fill="rgb(209,32,37)" stroke="rgb(209,32,37)" stroke-width="1" opacity="1" d="M 145.5 112 Q 149.3 111 148 114 Q 145.3 112.9 146 115.5 L 144 114.5 L 145.5 112 Z " /><path fill="rgb(209,32,37)" stroke="rgb(209,32,37)" stroke-width="1" opacity="1" d="M 84.5 115 L 84 116.5 L 80.5 121 L 83 117.5 L 84.5 115 Z " /><path fill="rgb(209,32,37)" stroke="rgb(209,32,37)" stroke-width="1" opacity="1" d="M 138.5 116 L 142 120.5 L 140 119.5 L 138.5 116 Z " /><path fill="rgb(209,32,37)" stroke="rgb(209,32,37)" stroke-width="1" opacity="1" d="M 138.5 120 L 140.5 123 L 138.5 120 Z " /><path fill="rgb(209,32,37)" stroke="rgb(209,32,37)" stroke-width="1" opacity="1" d="M 78.5 121 L 76.5 124 L 78.5 121 Z " /><path fill="rgb(209,32,37)" stroke="rgb(209,32,37)" stroke-width="1" opacity="1" d="M 143.5 121 L 145 123.5 L 144 123.5 L 143.5 121 Z " /><path fill="rgb(209,32,37)" stroke="rgb(209,32,37)" stroke-width="1" opacity="1" d="M 142.5 124 Q 144 127.5 145.5 125 Q 147.8 124.3 147 126.5 L 144 128 L 142.5 124 Z " /><path fill="rgb(209,32,37)" stroke="rgb(209,32,37)" stroke-width="1" opacity="1" d="M 68.5 125 L 69 127 L 66 126.5 L 68.5 125 Z " /><path fill="rgb(209,32,37)" stroke="rgb(209,32,37)" stroke-width="1" opacity="1" d="M 78.5 125 L 77.5 127 L 78.5 125 Z " /><path fill="rgb(209,32,37)" stroke="rgb(209,32,37)" stroke-width="1" opacity="1" d="M 39.5 126 L 40 194 L 38 193.5 L 38 127.5 L 39.5 126 Z " /><path fill="rgb(209,32,37)" stroke="rgb(209,32,37)" stroke-width="1" opacity="1" d="M 46 126 L 48 126.5 L 46 127.5 L 46 126 Z " /><path fill="rgb(209,32,37)" stroke="rgb(209,32,37)" stroke-width="1" opacity="1" d="M 148.5 126 L 149 128.5 L 148 128.5 L 148.5 126 Z " /><path fill="rgb(209,32,37)" stroke="rgb(209,32,37)" stroke-width="1" opacity="1" d="M 146.5 130 L 148 132.5 L 147 132.5 L 146.5 130 Z " /><path fill="rgb(209,32,37)" stroke="rgb(209,32,37)" stroke-width="1" opacity="1" d="M 64 132 Q 67.3 130.7 66 135.5 L 66.5 137 L 64 136 L 64 132 Z " /><path fill="rgb(209,32,37)" stroke="rgb(209,32,37)" stroke-width="1" opacity="1" d="M 71.5 132 L 70 134.5 L 69.5 138 L 69 134.5 L 71.5 132 Z " /><path fill="rgb(209,32,37)" stroke="rgb(209,32,37)" stroke-width="1" opacity="1" d="M 150.5 132 Q 153.1 131.2 152 134.5 L 153 137.5 L 150.5 141 L 150 139.5 Q 152.3 138.3 151 133.5 L 150.5 132 Z " /><path fill="rgb(209,32,37)" stroke="rgb(209,32,37)" stroke-width="1" opacity="1" d="M 68.5 141 L 69 144.5 L 68 144.5 L 68.5 141 Z " /><path fill="rgb(209,32,37)" stroke="rgb(209,32,37)" stroke-width="1" opacity="1" d="M 153.5 146 L 154 152.5 L 153 152.5 L 153.5 146 Z " /><path fill="rgb(209,32,37)" stroke="rgb(209,32,37)" stroke-width="1" opacity="1" d="M 68.5 150 L 69 155.5 L 68 155.5 L 68.5 150 Z " /><path fill="rgb(209,32,37)" stroke="rgb(209,32,37)" stroke-width="1" opacity="1" d="M 185.5 156 L 186 171.5 L 185 171.5 L 185.5 156 Z " /><path fill="rgb(209,32,37)" stroke="rgb(209,32,37)" stroke-width="1" opacity="1" d="M 68.5 176 L 69 190.5 L 68 190.5 L 68.5 176 Z " /><path fill="rgb(209,32,37)" stroke="rgb(209,32,37)" stroke-width="1" opacity="1" d="M 185.5 176 L 186 190.5 L 185 190.5 L 185.5 176 Z " /><path fill="rgb(209,32,37)" stroke="rgb(209,32,37)" stroke-width="1" opacity="1" d="M 50.5 192 L 54 192.5 L 50.5 193 L 50.5 192 Z " /><path fill="rgb(209,32,37)" stroke="rgb(209,32,37)" stroke-width="1" opacity="1" d="M 58.5 192 L 67.5 192 L 68 194 L 58.5 193 L 58.5 192 Z " /><path fill="rgb(209,32,37)" stroke="rgb(209,32,37)" stroke-width="1" opacity="1" d="M 159.5 192 L 175 192.5 L 159.5 193 L 159.5 192 Z " /><path fill="rgb(209,32,37)" stroke="rgb(209,32,37)" stroke-width="1" opacity="1" d="M 153.5 193 L 154 195.5 L 153 195.5 L 153.5 193 Z " /><path fill="rgb(209,32,37)" stroke="rgb(209,32,37)" stroke-width="1" opacity="1" d="M 180.5 194 Q 182.8 193.3 182 195.5 L 180 195.5 Q 179.3 198.1 182 197 L 182 199 L 178.5 198 L 177 198.5 L 180.5 194 Z " /><path fill="rgb(209,32,37)" stroke="rgb(209,32,37)" stroke-width="1" opacity="1" d="M 42.5 196 L 44 200 L 39 200.5 L 39.5 202 L 36 200.5 L 36.5 198 L 37.5 201 L 38 198 Q 42.8 199.7 42.5 196 Z " /><path fill="rgb(209,32,37)" stroke="rgb(209,32,37)" stroke-width="1" opacity="1" d="M 46 197 L 49 198.5 L 47.5 201 L 46 197 Z " /><path fill="rgb(209,32,37)" stroke="rgb(209,32,37)" stroke-width="1" opacity="1" d="M 62.5 198 L 63.5 200 L 61 199.5 L 62.5 198 Z " /><path fill="rgb(209,32,37)" stroke="rgb(209,32,37)" stroke-width="1" opacity="1" d="M 154.5 198 L 157 199.5 L 154 200 L 154.5 198 Z " /><path fill="rgb(159,29,36)" stroke="rgb(159,29,36)" stroke-width="1" opacity="1" d="M 104.5 110 L 122.5 111 L 135 117 L 136.5 120 L 142 123 L 142 126 Q 144.7 124.9 144 127.5 L 151 141.5 L 151 201.5 Q 148.8 202.8 151.5 204 L 185 204.5 L 66.5 205 L 66.5 204 Q 71 205 72 202.5 L 70 199.5 L 70 146.5 Q 73.5 145 71 143.5 L 73 134.5 L 79 124 L 83 121.5 Q 82.3 119.3 84.5 120 Q 87.6 114.6 95.5 114 L 102 116.5 L 101 119 L 97 118 Q 98.3 115 94.5 116 L 87 119.5 L 90.5 120 L 92 119.5 L 92.5 122 L 96 121 L 96.5 124 L 98.5 123 L 102 127.5 Q 100.3 130.8 93.5 129 L 92.5 128 L 84.5 128 L 82 129 L 83 137.5 L 79.5 144 L 78 144.5 L 78 146.5 L 80 150.5 L 80 155.5 L 78 155.5 L 77 169.5 L 78 169.5 Q 77 165 79.5 164 L 81 165.5 L 81 191.5 L 82 193.5 L 81.5 195 L 83.5 196 L 84 194 L 87.5 192 L 90.5 192 Q 91.8 195 96 194 Q 95 191 98 192 L 98 194 Q 95.3 192.9 96 195.5 L 97.5 195 L 99.5 196 L 100 194 L 103.5 192 L 106.5 192 Q 107.8 195 112 194 Q 111 197 114 196 Q 112.7 192.7 117.5 194 L 120.5 192 Q 121.8 195 126 194 L 126.5 196 L 130.5 195 L 132 195.5 L 132.5 194 L 140 194 L 140.5 196 L 144 195 L 144.5 148 L 145.5 150 L 146.5 147 L 147 151 L 145 151.5 L 145 191.5 L 146 191.5 L 146.5 184 L 147.5 195 Q 150.2 193.8 148 192.5 L 147.5 144 L 146.5 146 L 145.5 144 L 144 144.5 L 145 132.5 L 142.5 128 L 138.5 126 L 137 129 L 128.5 129 L 127 127.5 L 129 124.5 L 128 120 L 126 119.5 L 128 118.5 L 118 116 L 118 113 L 113 113 L 113 117 L 114.5 117 L 116 119.5 L 112.5 122 Q 109.7 120.8 112 119.5 Q 113.7 114.7 109.5 116 L 107 115 Q 108.3 111.7 103.5 113 L 103.5 115 L 98 112.5 L 104.5 110 Z M 109 112 L 109 113 L 112 113 L 109 112 Z M 121 113 L 123 116 L 125 116 L 121 113 Z M 137 122 L 135 125 L 137 125 Q 138 127 139 125 L 137 124 L 137 122 Z M 84 123 L 84 125 L 87 127 L 86 125 Q 87 122 84 123 Z M 92 124 L 89 125 L 89 126 Q 93 127 94 125 L 92 124 Z M 77 136 L 75 139 L 77 139 L 77 136 Z M 74 148 L 73 152 L 74 152 L 74 148 Z M 74 155 L 73 158 L 74 158 L 74 155 Z M 73 159 L 73 168 L 74 168 Q 76 161 73 159 Z M 76 167 Q 73 168 75 170 L 75 191 L 77 191 L 77 171 L 76 167 Z M 73 168 L 72 175 L 73 175 L 73 168 Z M 86 197 L 86 199 L 85 201 L 87 201 L 87 197 L 86 197 Z M 91 197 L 92 201 L 93 198 L 91 197 Z M 102 197 L 102 199 L 101 201 L 103 201 L 103 197 L 102 197 Z M 107 197 L 107 201 L 109 201 L 108 200 L 109 198 L 107 197 Z M 118 197 L 118 199 L 117 201 L 120 201 L 119 200 Q 120 196 118 197 Z M 121 197 L 121 201 L 124 201 L 122 200 L 123 198 L 121 197 Z M 146 197 L 145 200 L 146 200 L 146 197 Z M 148 197 L 147 200 L 148 200 L 148 197 Z " /><path fill="rgb(159,29,36)" stroke="rgb(159,29,36)" stroke-width="1" opacity="1" d="M 111 126 L 117.5 126 L 118 128 L 111.5 128 L 111 126 Z " /><path fill="rgb(159,29,36)" stroke="rgb(159,29,36)" stroke-width="1" opacity="1" d="M 136 136 Q 139.3 134.9 138 139 Q 134.7 140.1 136 136 Z " /><path fill="rgb(159,29,36)" stroke="rgb(159,29,36)" stroke-width="1" opacity="1" d="M 146.5 154 L 147 167.5 L 146 167.5 L 146.5 154 Z " /><path fill="rgb(159,29,36)" stroke="rgb(159,29,36)" stroke-width="1" opacity="1" d="M 128 192 Q 131 191 130 194 Q 127 195 128 192 Z " /><path fill="rgb(160,30,36)" stroke="rgb(160,30,36)" stroke-width="1" opacity="1" d="M 96.5 112 L 102.5 114 L 107 113 Q 105.9 115.7 108.5 115 L 112 116 L 111 120.5 L 113.5 122 L 116 118.5 L 113 117 Q 110.9 110.6 118 113 Q 116.3 117.5 121.5 116 L 120.5 113 L 125 115.5 L 122 116.5 Q 123 119 127.5 118 L 129.5 117 L 133 119.5 L 131.5 120 L 128.5 118 L 129.5 121 L 128 120.5 L 129 124.5 L 127 127.5 L 128.5 129 L 137 129 L 138 126.5 L 135.5 125 L 133.5 126 L 133.5 125 L 136 123.5 L 136.5 122 L 137 124 L 139 124.5 Q 136.3 126.2 140.5 128 L 144 129.5 L 145 138.5 Q 142.8 139.7 144 144.5 L 146 144.5 L 146.5 146 L 147.5 144 L 148 192.5 L 149 193.5 L 147 194.5 L 146.5 184 L 145.5 192 L 145 151 Q 148.3 152.3 147 147.5 L 146 147.5 L 145.5 150 L 144.5 148 L 144 195 Q 140.6 194.3 139.5 197 L 140 195.5 L 139.5 194 L 132 194 L 133 196.5 L 130.5 195 Q 126.3 194.3 125.5 197 L 126 195.5 Q 126.9 192.5 122.5 194 L 119.5 192 Q 118.3 195 114 194 L 115 196.5 L 113.5 196 L 111.5 197 L 112 195.5 Q 112.9 192.5 108.5 194 Q 107.7 191.2 103.5 192 L 100 194 L 101.5 197 Q 104.5 196.1 103 200.5 L 103.5 202 L 101 200.5 L 102 198.5 L 97.5 195 L 95 196.5 L 96 194 L 87.5 192 L 84 194 L 85.5 197 L 87 197 L 87 201 L 85 200.5 L 86 198.5 L 81 194.5 L 82 192.5 L 81 191.5 L 81 165.5 L 79.5 164 L 77 170.5 L 77 191 L 75 190.5 L 75 169.5 L 73 168.5 L 72.5 175 L 72 168.5 L 73 163.5 L 72 159.5 L 74 160.5 L 74.5 168 L 76 167.5 L 76.5 170 L 78.5 155 L 80 155.5 L 79.5 150 L 78 150.5 L 78 148.5 L 79 145.5 L 77.5 143 L 79.5 144 L 83 136.5 L 82 135.5 L 82 129 Q 85 127 92.5 128 Q 94.3 130.8 100.5 129 L 102 126.5 L 97.5 123 L 95 124.5 L 96 121 L 92.5 122 L 91.5 119 L 86.5 121 L 87.5 119 L 97 116 Q 95.9 118.7 98.5 118 L 101 119 L 102 116.5 L 94 113.5 L 96.5 112 Z M 111 126 L 112 128 L 118 128 L 118 126 L 111 126 Z M 136 136 Q 135 140 138 139 Q 139 135 136 136 Z M 147 154 L 146 168 L 147 168 L 147 154 Z M 96 192 Q 95 195 98 194 Q 99 191 96 192 Z M 128 192 Q 127 195 130 194 Q 131 191 128 192 Z " /><path fill="rgb(160,30,36)" stroke="rgb(160,30,36)" stroke-width="1" opacity="1" d="M 108.5 112 L 112 112.5 L 108.5 113 L 108.5 112 Z " /><path fill="rgb(160,30,36)" stroke="rgb(160,30,36)" stroke-width="1" opacity="1" d="M 125.5 112 L 128 113.5 L 126.5 114 L 125.5 112 Z " /><path fill="rgb(160,30,36)" stroke="rgb(160,30,36)" stroke-width="1" opacity="1" d="M 135.5 118 L 136.5 120 L 135.5 118 Z " /><path fill="rgb(160,30,36)" stroke="rgb(160,30,36)" stroke-width="1" opacity="1" d="M 84 123 Q 86.7 121.9 86 124.5 L 87 126.5 L 84 124.5 L 84 123 Z " /><path fill="rgb(160,30,36)" stroke="rgb(160,30,36)" stroke-width="1" opacity="1" d="M 91.5 124 L 94 124.5 Q 93 127 88.5 126 L 88.5 125 L 91.5 124 Z " /><path fill="rgb(160,30,36)" stroke="rgb(160,30,36)" stroke-width="1" opacity="1" d="M 77.5 135 L 77 136.5 Q 78.1 139.8 75.5 139 L 76 137.5 L 77.5 135 Z " /><path fill="rgb(160,30,36)" stroke="rgb(160,30,36)" stroke-width="1" opacity="1" d="M 70 144 L 72 144.5 L 70 145.5 L 70 144 Z " /><path fill="rgb(160,30,36)" stroke="rgb(160,30,36)" stroke-width="1" opacity="1" d="M 72.5 147 L 75 147.5 L 73.5 152 L 72.5 147 Z " /><path fill="rgb(160,30,36)" stroke="rgb(160,30,36)" stroke-width="1" opacity="1" d="M 73.5 155 L 74 157.5 L 73 157.5 L 73.5 155 Z " /><path fill="rgb(160,30,36)" stroke="rgb(160,30,36)" stroke-width="1" opacity="1" d="M 78.5 197 L 80 197.5 L 77.5 199 L 78.5 197 Z " /><path fill="rgb(160,30,36)" stroke="rgb(160,30,36)" stroke-width="1" opacity="1" d="M 91 197 L 93 197.5 L 91.5 201 L 91 197 Z " /><path fill="rgb(160,30,36)" stroke="rgb(160,30,36)" stroke-width="1" opacity="1" d="M 107 197 L 109 197.5 L 108 199.5 L 108.5 201 L 107 201 L 107 197 Z " /><path fill="rgb(160,30,36)" stroke="rgb(160,30,36)" stroke-width="1" opacity="1" d="M 117.5 197 Q 120.1 196.2 119 199.5 L 119.5 201 L 117 200.5 L 118 198.5 L 117.5 197 Z " /><path fill="rgb(160,30,36)" stroke="rgb(160,30,36)" stroke-width="1" opacity="1" d="M 121 197 L 123 197.5 L 122 200 L 124 200.5 L 121 201 L 121 197 Z " /><path fill="rgb(160,30,36)" stroke="rgb(160,30,36)" stroke-width="1" opacity="1" d="M 145.5 197 L 146 199.5 L 145 199.5 L 145.5 197 Z " /><path fill="rgb(160,30,36)" stroke="rgb(160,30,36)" stroke-width="1" opacity="1" d="M 147.5 197 L 148 199.5 L 147 199.5 L 147.5 197 Z " /><path fill="rgb(160,30,36)" stroke="rgb(160,30,36)" stroke-width="1" opacity="1" d="M 70.5 200 L 72 202.5 L 70 203.5 L 70 201.5 L 70.5 200 Z " /><path fill="rgb(160,30,36)" stroke="rgb(160,30,36)" stroke-width="1" opacity="1" d="M 150.5 202 L 151.5 204 L 150.5 202 Z " /><path fill="rgb(160,30,36)" stroke="rgb(160,30,36)" stroke-width="1" opacity="1" d="M 45.5 204 L 48 204.5 L 45.5 205 L 45.5 204 Z " /><path fill="rgb(160,30,36)" stroke="rgb(160,30,36)" stroke-width="1" opacity="1" d="M 61.5 204 L 64 204.5 L 61.5 205 L 61.5 204 Z " /><path fill="rgb(70,10,12)" stroke="rgb(70,10,12)" stroke-width="1" opacity="1" d="M 33.5 205 L 188 205.5 L 33.5 206 L 33.5 205 Z " /><path fill="rgb(70,10,12)" stroke="rgb(70,10,12)" stroke-width="1" opacity="1" d="M 206.5 231 L 205.5 233 L 206.5 231 Z " /><path fill="rgb(29,2,1)" stroke="rgb(29,2,1)" stroke-width="1" opacity="1" d="M 32.5 205 L 33.5 206 L 187.5 206 L 189 205.5 Q 188.5 208.5 184.5 208 L 180.5 207 L 175.5 208 L 174.5 207 L 158.5 207 L 157.5 208 L 64.5 208 L 60.5 207 Q 58.7 209.8 52.5 208 Q 51.3 205.8 46.5 207 L 44.5 208 Q 43.3 205.8 38.5 207 L 34.5 208 L 32.5 205 Z " /><path fill="rgb(8,8,7)" stroke="rgb(8,8,7)" stroke-width="1" opacity="1" d="M 28.5 205 L 31.5 205 Q 32.3 208.7 37.5 208 Q 38.8 205.8 43.5 207 L 45.5 208 Q 46.8 205.8 51.5 207 Q 53.2 209.8 59.5 208 L 63.5 207 L 64.5 208 L 157.5 208 L 158.5 207 L 174.5 207 L 179.5 208 L 183.5 207 L 186.5 208 Q 187.5 204 193.5 205 L 202.5 208 L 207 212.5 L 210 218.5 L 210 224.5 L 205 234 L 199.5 237 L 194.5 238 L 26.5 238 Q 19.8 236.8 16 232.5 L 13 227.5 L 12 219.5 Q 13.2 211.2 19.5 208 L 28.5 205 Z " /></svg>