<svg width="258" height="245" version="1.1" xmlns="http://www.w3.org/2000/svg" desc="Created with imagetracer.js version 1.2.6" ><path fill="rgb(254,254,254)" stroke="rgb(254,254,254)" stroke-width="1" opacity="1" d="M 160.5 40 L 162.5 40 L 165 40.5 L 162 42.5 L 163.5 43 L 166 42 L 166.5 40 L 170.5 40 L 173 42.5 L 173.5 44 L 175 42.5 L 173.5 40 L 177 42.5 L 176 40.5 L 178.5 40 L 181.5 41 L 184.5 40 L 187.5 42 L 187.5 40 L 192 42.5 L 192 44.5 L 191.5 48 L 190.5 45 L 189 48 L 187 48 Q 188.1 45.3 185.5 46 L 183.5 46 Q 181.3 46.8 182 44.5 L 182.5 43 L 178.5 45 L 175.5 43 L 171.5 45 L 166.5 47 L 157 55.5 L 156 57.5 L 157.5 58 L 159 57.5 L 156 59 Q 154.9 61.7 157.5 61 L 157.5 64 L 154.5 63 L 153 64.5 L 155.5 66 L 157 65.5 L 154 67.5 L 156 68.5 L 154 69.5 L 155 72 L 151 71 L 152 74.5 L 150 74.5 L 152 79.5 L 149 80.5 L 148.5 136 L 148 80.5 L 146.5 75 L 145.5 77 L 145 75.5 L 146.5 73 Q 149.4 74.6 148.5 80 L 150 77.5 L 149 73.5 L 146.5 71 Q 145.3 73.3 144 70.5 L 145.5 68 L 148 69.5 L 147 66 L 149 66 Q 147.5 69.8 150.5 69 L 152.5 70 L 151.5 68 Q 148.5 68.7 150 65 L 147.5 65 L 147.5 64 L 150.5 65 Q 154.7 63.3 152 61.5 L 152.5 60 L 153 62 L 156 61.5 L 154 61 Q 155.1 58.3 152.5 59 L 152 56.5 L 152.5 54 L 153.5 57 L 156.5 51 L 159.5 50 L 159.5 52 L 162 50.5 Q 162.9 47.5 158.5 49 L 158.5 48 L 162 47.5 L 161.5 46 Q 164.1 46.7 163 44 L 160.5 45 L 160.5 40 Z M 180 41 L 178 43 Q 177 45 180 44 L 180 41 Z M 167 42 L 166 45 L 165 44 L 164 44 Q 163 48 167 46 L 167 42 Z M 188 42 L 188 44 L 191 43 L 188 42 Z M 170 43 L 170 44 L 172 44 L 170 43 Z M 186 43 L 183 45 L 186 45 L 186 43 Z M 164 46 Q 162 49 165 48 L 164 46 Z M 148 70 L 148 72 L 150 71 L 148 70 Z " /><path fill="rgb(254,254,254)" stroke="rgb(254,254,254)" stroke-width="1" opacity="1" d="M 104.5 48 L 106.5 49 L 108.5 48 L 110 51 L 113.5 52 L 115 49.5 L 114.5 48 Q 116.8 47.3 116 49.5 L 115.5 51 L 121 49.5 L 120.5 48 L 122.5 49 L 124.5 48 L 124.5 49 L 119.5 53 L 115.5 54 L 115.5 53 L 120 51.5 L 117.5 51 L 111.5 55 L 110 51 L 106.5 50 L 107.5 52 L 109 52.5 L 108.5 54 Q 110.8 53.3 110 55.5 L 108 55.5 Q 108.8 57.8 106.5 57 L 104 58.5 L 104.5 56 Q 106.3 58.7 108 54.5 L 107 52 L 104.5 53 L 104.5 48 Z " /><path fill="rgb(254,254,254)" stroke="rgb(254,254,254)" stroke-width="1" opacity="1" d="M 111.5 48 L 112.5 50 L 111.5 48 Z " /><path fill="rgb(254,254,254)" stroke="rgb(254,254,254)" stroke-width="1" opacity="1" d="M 128.5 48 L 130.5 48 L 133.5 49 Q 134.8 46.8 136 49.5 L 134 50.5 L 136 53.5 L 133 55.5 L 135 52.5 L 133.5 53 L 130.5 52 L 131.5 55 L 128 54.5 L 128.5 53 L 124.5 54 L 122 53.5 Q 123.4 49.4 129 49.5 L 128.5 48 Z M 132 49 L 130 51 L 133 51 L 132 49 Z M 126 51 L 126 52 L 128 52 L 126 51 Z " /><path fill="rgb(254,254,254)" stroke="rgb(254,254,254)" stroke-width="1" opacity="1" d="M 152 48 Q 156.5 46.5 155 51 Q 150.5 52.5 152 48 Z " /><path fill="rgb(254,254,254)" stroke="rgb(254,254,254)" stroke-width="1" opacity="1" d="M 188.5 49 Q 190.8 48.3 190 50.5 L 188.5 49 Z " /><path fill="rgb(254,254,254)" stroke="rgb(254,254,254)" stroke-width="1" opacity="1" d="M 191.5 53 L 195 54 L 196 59.5 L 194.5 62 L 193 58 Q 196 59 195 56 Q 191.3 57.5 192 54.5 L 191.5 53 Z " /><path fill="rgb(254,254,254)" stroke="rgb(254,254,254)" stroke-width="1" opacity="1" d="M 198.5 53 Q 200.8 52.3 200 54.5 L 198.5 53 Z " /><path fill="rgb(254,254,254)" stroke="rgb(254,254,254)" stroke-width="1" opacity="1" d="M 96.5 56 L 98.5 57 L 100.5 56 L 103 59.5 L 98.5 65 L 96 64.5 L 97.5 62 Q 95.3 62.8 96 60.5 L 99 59.5 L 96 58.5 L 96.5 56 Z " /><path fill="rgb(254,254,254)" stroke="rgb(254,254,254)" stroke-width="1" opacity="1" d="M 135.5 56 L 137.5 57 L 140 56 L 141.5 59 L 143 58.5 L 141.5 56 L 144 56.5 L 143 59.5 L 144 63 Q 141 62 142 65 L 145.5 64 L 145.5 65 L 144 65.5 L 146 66.5 L 143.5 67 Q 140.3 65.8 141 62 L 138 60.5 L 136 57.5 L 134 57.5 L 135.5 56 Z M 140 60 L 140 61 L 142 61 L 140 60 Z " /><path fill="rgb(254,254,254)" stroke="rgb(254,254,254)" stroke-width="1" opacity="1" d="M 173.5 56 L 175.5 56 L 177.5 57 L 179 56.5 Q 178.3 58.8 180.5 58 L 182 61.5 L 182 63.5 L 180.5 67 L 176.5 69 L 176.5 68 L 179 66.5 L 178.5 65 L 172.5 68 L 172 66 Q 169.3 67.1 170 64.5 L 169 61 L 171 60.5 Q 168.8 59.3 171.5 58 L 174 57.5 L 173.5 56 Z M 175 58 L 172 60 L 175 60 L 175 58 Z M 178 58 L 176 60 L 178 60 L 178 58 Z M 176 60 Q 176 64 174 63 L 174 64 L 177 63 L 176 60 Z M 174 65 L 174 66 L 176 66 L 174 65 Z " /><path fill="rgb(254,254,254)" stroke="rgb(254,254,254)" stroke-width="1" opacity="1" d="M 199.5 56 L 200 57.5 L 199 60.5 L 200 62.5 L 199 62.5 L 198.5 61 L 198 63.5 L 200 67.5 L 198 70.5 L 198.5 72 L 196 71.5 L 198 67.5 L 197 67.5 L 194.5 72 L 194 70.5 L 195 67.5 L 194 67.5 L 192.5 70 L 193 68.5 L 193 65 Q 195.7 66.1 195 63.5 L 196 63.5 L 196.5 67 L 198 64.5 L 196 61.5 L 199.5 56 Z " /><path fill="rgb(254,254,254)" stroke="rgb(254,254,254)" stroke-width="1" opacity="1" d="M 116.5 65 L 118.5 65 L 121.5 66 L 123 65.5 L 124.5 68 L 126 67.5 L 125 65.5 L 126.5 66 L 128 66.5 L 127.5 68 L 133 71.5 L 132 74.5 L 134 74.5 L 132 78.5 L 132 135.5 Q 135.4 134.7 134 143.5 L 133 143.5 L 132.5 138 L 131 138.5 L 131 80.5 L 129.5 80 L 128 77.5 L 129.5 75 L 131.5 76 L 129.5 73 L 124.5 70 L 124.5 72 L 122.5 71 L 116.5 71 L 113.5 72 L 109.5 72 Q 106.9 71.3 108 74 L 110.5 73 L 112 76.5 L 110 79.5 L 109.5 144 L 109 79.5 L 108 78.5 L 110 77.5 L 107 77 L 106.5 80 L 106 76 L 109 75.5 L 107 75 L 107 72.5 L 111.5 67 L 113 67.5 Q 112.2 64.9 115.5 66 L 116.5 65 Z M 118 67 Q 116 70 119 69 L 118 67 Z M 122 67 L 124 70 L 124 69 L 122 67 Z M 127 68 L 128 71 Q 130 72 129 69 L 127 68 Z M 115 69 L 114 71 L 117 70 L 115 69 Z M 120 69 L 121 70 L 122 71 Q 123 68 120 69 Z M 130 71 L 130 73 L 132 72 L 130 71 Z M 130 77 Q 128 80 131 79 L 130 77 Z " /><path fill="rgb(254,254,254)" stroke="rgb(254,254,254)" stroke-width="1" opacity="1" d="M 158.5 66 L 159 67.5 L 158.5 69 Q 160.8 68.3 160 70.5 L 164 75.5 L 164 77.5 L 161.5 80 Q 159.3 80.8 160 78.5 L 161 73.5 L 159 71.5 Q 159.7 68.9 157 70 L 156.5 72 L 156 70.5 L 158.5 66 Z " /><path fill="rgb(254,254,254)" stroke="rgb(254,254,254)" stroke-width="1" opacity="1" d="M 191.5 71 L 193 71.5 L 191 72 L 192 74.5 L 191.5 77 Q 189.3 76.3 190 78.5 L 192 78.5 Q 190.8 81.3 189.5 79 L 187.5 80 L 186.5 78 L 184.5 80 L 182 79.5 L 185 78.5 L 185 77 L 188 77 Q 187 74 190 75 L 190 72.5 L 191.5 71 Z " /><path fill="rgb(254,254,254)" stroke="rgb(254,254,254)" stroke-width="1" opacity="1" d="M 88.5 72 L 90.5 73 L 93.5 72 L 96 72.5 L 94 76.5 L 95 79.5 L 94 79.5 Q 95.1 76.2 92.5 77 L 93 78.5 L 93.5 145 L 94.5 136 L 95 144.5 L 95 146.5 L 94.5 148 L 91.5 147 L 89.5 148 L 88.5 146 L 90.5 147 L 93 145.5 L 88 144.5 L 92 144 L 92 79.5 L 90 79 L 90 77.5 L 94 75 Q 95.1 72.3 92.5 73 Q 88.4 74.4 88.5 80 L 88 76.5 L 89 73.5 L 88.5 72 Z " /><path fill="rgb(254,254,254)" stroke="rgb(254,254,254)" stroke-width="1" opacity="1" d="M 165 77 Q 167.7 75.9 167 78.5 L 167.5 80 L 165 79.5 L 165 77 Z " /><path fill="rgb(254,254,254)" stroke="rgb(254,254,254)" stroke-width="1" opacity="1" d="M 112.5 112 L 115 113.5 L 115.5 116 L 116.5 114 L 117.5 116 L 113 118.5 L 115 119 L 115 160.5 L 114 161.5 L 115 163.5 L 114 166 L 109 166.5 L 109.5 168 Q 108.2 165.8 107 168.5 Q 107.7 171.1 105 170 L 105 172.5 L 100 174.5 L 103 175.5 L 100 182.5 L 101 184.5 L 100 187 Q 103 185.8 102 189.5 L 101 192.5 L 102 192.5 L 102.5 191 L 105 194.5 Q 102.8 195.8 105.5 197 L 108 198.5 L 106 199.5 L 109.5 201 L 112 200 L 112.5 202 Q 113.7 199.8 115 202.5 L 116 205.5 L 115.5 207 Q 118.1 207.8 117 204.5 L 116 202 Q 118.7 200.9 118 203.5 L 122 204.5 Q 120.9 201.2 123.5 202 L 126 203.5 L 121 206.5 L 122.5 207 L 128 204.5 L 127 201.5 L 129.5 201 Q 131.8 201.8 131 199.5 L 138 191 Q 140.7 192.1 140 189.5 L 138 189.5 L 140 180.5 L 139.5 179 L 141.5 180 L 141 178.5 Q 141.8 176.3 139.5 177 L 138 177.5 Q 137.3 175.3 139.5 176 Q 142.5 174.5 139.5 173 L 138.5 175 L 136 174 L 137 171.5 L 131 167.5 L 130.5 166 L 129.5 167 L 126 163.5 L 127.5 160 L 129.5 161 L 131 157.5 L 129 157 L 128.5 159 L 128 157.5 L 128 155.5 L 129 153.5 L 129 151.5 L 129 141.5 L 131 141 Q 132.7 144.5 132 151.5 L 135.5 156 L 138 157.5 L 138.5 160 L 139.5 158 L 140.5 160 L 138 161.5 L 140.5 162 L 142.5 162 L 146 164.5 L 145.5 166 L 148 167.5 L 150 171.5 L 148 174.5 L 149.5 174 L 151 174.5 L 149 175 L 149.5 177 L 151 176.5 L 150 178.5 L 152 178.5 L 152 180.5 L 150 183.5 L 152 183.5 L 151 186.5 L 152 189 L 150 189.5 L 151 191.5 Q 147.5 193 150 194.5 L 149.5 196 L 148.5 194 L 147 197 L 149 197.5 L 147 198.5 Q 149.3 199.8 146.5 201 Q 145.3 198.8 144 201.5 L 146 202.5 L 143 204.5 L 140.5 208 L 138.5 209 L 139 207.5 Q 140.1 204.2 137.5 205 L 137 207.5 L 136 209.5 L 136.5 211 L 132.5 213 Q 131.3 210 127 211 L 126.5 215 L 124.5 215 L 121 215 Q 122 212 119 213 L 118.5 215 L 116.5 214 L 113 215 L 112.5 213 L 110 214 L 109.5 212 L 107.5 213 L 105 212 L 104.5 209 L 103.5 211 L 100.5 207 L 99.5 208 L 96 204.5 Q 98.5 203 95 201.5 Q 94.3 198.9 97 200 L 97 198 L 92 199 L 93 196.5 L 90 194.5 L 90 192.5 L 89 188.5 L 92 189.5 L 89 185.5 L 90 182.5 L 91 179.5 L 89 176.5 L 92 178.5 L 91 185 Q 94.7 183.5 94 186.5 L 92 186.5 L 93.5 189 Q 95 185.5 96.5 188 L 98 187.5 L 95 185.5 L 98 183.5 L 97.5 182 L 95 182.5 L 94.5 184 L 92 183.5 L 93.5 180 L 94.5 182 L 95 179.5 L 93.5 176 Q 91.7 178.7 90 174.5 L 92 174 L 92.5 176 L 93.5 174 L 95 174.5 L 93.5 172 L 91 170.5 L 92.5 168 L 93.5 170 L 94 167.5 L 93.5 166 Q 94.8 168.3 96 165.5 L 96 163.5 L 98.5 160 L 102 159 L 102.5 161 L 104 158.5 L 102 157.5 L 105 157 L 106 154.5 L 106.5 136 L 107.5 155 L 108 152 L 112 153.5 L 111.5 156 Q 109.3 155.3 110 157.5 L 111 160 L 114 159.5 L 114 120 Q 111.3 121.1 112 118.5 L 115 116.5 L 112 115.5 Q 111.3 113.3 113.5 114 L 113.5 113 L 112.5 112 Z M 131 144 L 130 152 L 131 152 L 131 144 Z M 132 152 L 132 156 L 132 155 Q 134 153 132 152 Z M 107 156 L 105 159 L 107 158 L 107 156 Z M 132 156 L 131 161 L 133 160 L 132 162 L 135 162 L 137 159 L 135 160 Q 132 159 134 158 Q 135 155 132 156 Z M 108 158 L 106 160 L 108 160 L 108 158 Z M 112 161 L 114 164 L 114 163 L 112 161 Z M 137 161 L 134 165 L 137 166 L 136 165 Q 135 162 138 163 L 137 161 Z M 142 162 L 141 164 Q 141 168 136 167 L 134 167 L 133 164 L 132 168 L 134 169 L 138 169 L 140 167 Q 142 168 141 165 L 143 165 L 142 162 Z M 99 163 L 99 169 L 101 169 L 100 164 L 103 164 L 99 163 Z M 106 163 L 106 165 L 108 164 L 106 163 Z M 104 165 L 104 167 L 106 166 L 104 165 Z M 107 165 L 107 167 L 109 166 L 107 165 Z M 96 167 Q 93 172 97 171 L 96 167 Z M 104 167 Q 104 170 102 169 L 102 170 L 105 170 L 104 167 Z M 105 167 L 105 169 L 107 168 L 105 167 Z M 147 167 L 142 170 L 140 170 Q 139 172 143 171 L 145 173 L 144 171 L 147 169 L 147 167 Z M 98 171 L 95 173 L 97 175 L 98 173 L 98 171 Z M 103 171 L 102 173 L 104 172 L 103 171 Z M 139 171 L 138 173 L 140 172 L 139 171 Z M 100 172 L 98 174 L 100 174 L 100 172 Z M 141 172 Q 141 176 143 173 L 141 172 Z M 96 175 L 95 179 L 97 178 L 96 175 Z M 97 175 L 97 177 L 99 176 L 97 175 Z M 144 175 Q 142 178 145 179 L 146 176 L 144 175 Z M 146 177 L 144 183 Q 147 184 146 181 L 149 179 Q 150 176 146 177 Z M 147 181 L 147 183 L 149 184 Q 150 180 147 181 Z M 142 182 Q 140 185 144 186 L 144 183 L 142 182 Z M 148 185 L 147 188 L 148 188 L 148 185 Z M 141 187 L 141 192 L 139 193 L 141 195 L 143 191 L 141 187 Z M 101 188 L 99 190 L 101 190 L 101 188 Z M 143 188 L 147 194 L 148 191 L 149 193 L 149 189 L 147 190 Q 144 191 145 188 L 143 188 Z M 97 189 L 98 191 Q 99 188 97 189 Z M 100 191 L 97 193 L 100 193 L 100 191 Z M 94 192 L 92 195 L 95 193 L 94 192 Z M 95 193 L 95 195 L 93 196 L 96 197 Q 99 198 98 196 L 96 196 L 97 194 L 95 193 Z M 103 193 Q 101 196 104 195 L 103 193 Z M 139 193 L 137 196 L 139 195 L 139 193 Z M 100 194 L 100 197 L 98 198 L 102 198 L 101 196 Q 102 193 100 194 Z M 142 194 L 141 198 L 143 197 L 142 199 L 145 200 L 146 198 L 144 198 L 145 196 L 144 196 L 144 195 L 142 194 Z M 104 196 L 104 199 Q 107 198 104 196 Z M 136 196 L 134 198 L 137 199 L 137 197 L 136 196 Z M 140 198 L 137 199 L 138 203 L 141 199 L 140 198 Z M 101 199 L 102 201 Q 104 200 103 203 L 105 202 Q 107 203 106 201 L 105 201 L 101 199 Z M 142 199 L 141 201 L 144 201 L 142 199 Z M 99 201 L 98 205 L 99 205 L 99 201 Z M 101 201 Q 99 204 102 203 L 101 201 Z M 108 201 L 107 203 L 104 204 L 105 206 L 108 204 L 108 201 Z M 111 201 Q 109 204 112 203 L 111 201 Z M 132 201 L 130 203 L 132 203 L 132 201 Z M 136 202 L 135 204 L 137 205 L 136 202 Z M 141 202 L 142 203 L 143 204 Q 144 201 141 202 Z M 101 204 L 102 206 L 103 206 L 101 204 Z M 108 204 L 109 210 L 112 211 Q 114 210 112 209 L 114 206 L 112 204 L 111 209 L 110 209 Q 112 203 108 204 Z M 119 205 L 117 208 L 119 209 L 119 205 Z M 107 206 L 105 209 L 107 208 L 107 206 Z M 127 206 L 127 208 L 126 210 L 129 210 L 129 208 Q 130 205 127 206 Z M 113 207 L 113 209 L 115 208 L 113 207 Z M 124 207 L 125 209 L 126 209 L 124 207 Z M 131 207 L 131 209 Q 130 212 134 211 L 134 210 Q 131 211 132 207 L 131 207 Z M 115 209 Q 113 212 116 211 L 115 209 Z M 109 210 L 107 212 L 109 212 L 109 210 Z M 119 210 L 117 213 L 119 213 L 119 210 Z M 115 212 L 116 214 Q 117 211 115 212 Z " /><path fill="rgb(254,254,254)" stroke="rgb(254,254,254)" stroke-width="1" opacity="1" d="M 116.5 112 L 119.5 113 L 122.5 112 L 126 113.5 L 126.5 115 L 128 114.5 L 127.5 117 L 125.5 116 L 124 116.5 L 123.5 115 L 121.5 117 L 119 116.5 L 120 114 Q 115.8 114 116.5 112 Z " /><path fill="rgb(254,254,254)" stroke="rgb(254,254,254)" stroke-width="1" opacity="1" d="M 126.5 118 L 127.5 120 L 126.5 118 Z " /><path fill="rgb(254,254,254)" stroke="rgb(254,254,254)" stroke-width="1" opacity="1" d="M 128.5 136 L 129 138.5 L 128 138.5 L 128.5 136 Z " /><path fill="rgb(254,254,254)" stroke="rgb(254,254,254)" stroke-width="1" opacity="1" d="M 150.5 136 L 152 145.5 L 150 147.5 L 152 149.5 Q 148.9 151.3 150.5 153 Q 146.3 151.2 149 149.5 L 148.5 148 L 146 149.5 L 147 147.5 L 146.5 146 L 148 146.5 Q 148.8 144.3 146.5 145 L 146.5 144 L 148.5 145 L 150 143.5 L 150.5 136 Z " /><path fill="rgb(254,254,254)" stroke="rgb(254,254,254)" stroke-width="1" opacity="1" d="M 92.5 148 L 93 150.5 L 88.5 155 L 88 151.5 L 92.5 148 Z " /><path fill="rgb(254,254,254)" stroke="rgb(254,254,254)" stroke-width="1" opacity="1" d="M 80.5 152 L 84.5 153 Q 85.8 150.8 87 153.5 Q 87.8 155.8 85.5 155 Q 87.1 156.8 84 158.5 L 85 159.5 L 83 161.5 Q 83.8 163.8 81.5 163 L 81.5 165 L 80 162.5 L 80.5 160 Q 81.7 162.3 83 159.5 L 82.5 157 L 81.5 159 L 80 155.5 L 81 153.5 L 80.5 152 Z M 82 154 Q 80 157 83 156 L 82 154 Z " /><path fill="rgb(254,254,254)" stroke="rgb(254,254,254)" stroke-width="1" opacity="1" d="M 154.5 152 L 156.5 152 L 158.5 153 L 160 152.5 Q 160.8 154.8 158.5 154 L 159 155.5 L 160 160.5 L 160 164.5 L 159.5 166 L 158 161.5 L 159 158.5 L 158 158.5 L 157.5 160 L 156.5 157 L 155.5 159 L 154.5 157 L 156 156.5 L 152 155 L 152.5 153 L 154.5 154 L 154.5 152 Z " /><path fill="rgb(254,254,254)" stroke="rgb(254,254,254)" stroke-width="1" opacity="1" d="M 72.5 168 L 75 169.5 Q 72.8 170.8 75.5 172 L 76.5 170 L 78 170.5 L 78.5 168 L 80 169.5 L 78 171.5 L 78 175.5 L 77.5 178 L 76 177.5 L 77 181 L 74 182.5 L 75.5 183 L 77 182.5 Q 77.8 184.8 75.5 184 L 77 186.5 L 78 191.5 L 77 192.5 L 78.5 195 Q 76.3 194.3 77 196.5 L 80 197.5 L 78.5 200 L 76 199.5 L 77 197.5 L 75.5 198 L 74 198.5 L 74.5 200 L 72 198.5 L 72.5 196 L 74.5 197 L 74.5 195 Q 75.8 197.3 77 194.5 Q 77.8 192.3 75.5 193 L 72.5 195 L 72 192.5 Q 70.7 188.3 75.5 190 L 76.5 188 L 74.5 189 L 72 184.5 L 74 184.5 L 72 181.5 L 73.5 179 L 74.5 181 Q 77.3 179.8 75 178.5 L 74.5 177 Q 73.3 179.3 72 176.5 L 73 171.5 L 72.5 168 Z M 75 172 L 73 175 L 74 177 L 75 175 L 75 172 Z M 74 191 Q 72 194 75 193 L 74 191 Z " /><path fill="rgb(254,254,254)" stroke="rgb(254,254,254)" stroke-width="1" opacity="1" d="M 163.5 168 L 168 171.5 L 164 174.5 Q 164.7 177.1 162 176 L 162 174 Q 164.7 175.1 164 172.5 L 161 171.5 L 161.5 169 L 163.5 168 Z M 165 170 Q 163 173 166 172 L 165 170 Z " /><path fill="rgb(254,254,254)" stroke="rgb(254,254,254)" stroke-width="1" opacity="1" d="M 166.5 174 L 168 177.5 L 167 177.5 L 166.5 175 L 166 181 Q 163.3 179.9 164 182.5 L 163 182.5 L 164 179.5 L 163 177 Q 165.7 178.1 165 175.5 L 166.5 174 Z " /><path fill="rgb(254,254,254)" stroke="rgb(254,254,254)" stroke-width="1" opacity="1" d="M 118.5 176 L 121 176.5 L 120.5 178 Q 123.1 178.7 122 176 L 124 176 L 124 178 L 126 178 Q 124.9 180.7 127.5 180 L 127 183.5 L 128 186.5 L 123 189.5 L 123.5 191 Q 121.5 187 119.5 191 L 116.5 189 Q 114.8 191.8 113 187.5 L 114 185.5 L 112 182.5 L 113 180 L 115 179.5 Q 112.8 178.2 115.5 177 Q 117 179.5 118.5 176 Z M 118 178 Q 115 180 118 181 L 119 181 L 118 178 Z M 123 178 L 122 180 L 124 179 L 123 178 Z M 116 180 L 114 182 L 117 182 L 116 180 Z M 124 180 L 125 181 L 126 182 Q 127 179 124 180 Z M 114 182 L 113 184 Q 116 183 115 186 Q 113 187 116 188 L 117 184 L 114 182 Z M 125 182 L 124 186 L 126 185 L 125 182 Z M 118 183 L 118 185 L 118 186 Q 120 187 119 184 L 121 184 L 118 183 Z M 123 183 L 122 186 L 122 187 L 124 187 L 123 183 Z M 127 185 L 125 188 L 127 187 L 127 185 Z " /><path fill="rgb(254,254,254)" stroke="rgb(254,254,254)" stroke-width="1" opacity="1" d="M 167.5 180 L 168 182.5 L 166 184.5 Q 166.7 190.7 163.5 193 L 162 192.5 L 164 192 L 163 186.5 L 164 186.5 L 164.5 189 L 165 185.5 L 164 184.5 L 167 181.5 L 167.5 180 Z " /><path fill="rgb(254,254,254)" stroke="rgb(254,254,254)" stroke-width="1" opacity="1" d="M 167.5 185 L 168 187.5 L 167 187.5 L 167.5 185 Z " /><path fill="rgb(254,254,254)" stroke="rgb(254,254,254)" stroke-width="1" opacity="1" d="M 166 190 Q 169 189 168 192 Q 165 193 166 190 Z " /><path fill="rgb(254,254,254)" stroke="rgb(254,254,254)" stroke-width="1" opacity="1" d="M 165.5 193 L 168 193.5 L 167 198.5 L 167.5 200 L 163.5 198 L 162 198.5 L 162.5 200 L 160 199.5 L 162 195.5 L 162.5 194 L 163.5 196 L 165.5 193 Z " /><path fill="rgb(254,254,254)" stroke="rgb(254,254,254)" stroke-width="1" opacity="1" d="M 80 202 L 82 202.5 L 81 204.5 L 83 204.5 L 89 213.5 L 86.5 212 L 85.5 213 Q 83.3 212.3 84 214.5 L 85.5 214 L 87 214.5 L 83 216 L 82.5 213 L 80.5 214 L 80.5 213 Q 82.8 213.8 82 211.5 L 80 211.5 L 81 209.5 L 80 206.5 L 80 204.5 L 80 202 Z M 81 207 L 81 209 L 83 208 L 81 207 Z M 85 210 L 86 212 Q 87 209 85 210 Z " /><path fill="rgb(254,254,254)" stroke="rgb(254,254,254)" stroke-width="1" opacity="1" d="M 158.5 203 Q 160.8 202.3 160 204.5 L 158.5 203 Z " /><path fill="rgb(254,254,254)" stroke="rgb(254,254,254)" stroke-width="1" opacity="1" d="M 157.5 205 L 160 208.5 L 160 210.5 L 159 212.5 L 159.5 214 Q 156.8 212.8 159 211.5 L 158 209.5 L 159 207.5 L 157.5 208 Q 155.3 208.8 156 206.5 L 157.5 205 Z " /><path fill="rgb(254,254,254)" stroke="rgb(254,254,254)" stroke-width="1" opacity="1" d="M 155.5 209 Q 158.5 208.1 157 212.5 L 156 215 L 153.5 216 Q 152.3 213.8 151 216.5 L 152 219.5 L 151 222.5 L 150.5 224 L 149.5 222 L 146.5 224 L 144.5 223 L 141.5 224 L 141.5 223 L 144 222.5 Q 142.8 219.8 141.5 222 Q 139.3 221.3 140 223.5 L 139 223.5 L 140.5 221 L 142.5 220 Q 144 223.5 145.5 221 L 151 219.5 L 148.5 218 L 145.5 219 L 145.5 218 L 149.5 215 Q 150.8 217.3 152 214.5 Q 149.3 212.8 153.5 211 Q 154.8 213.3 156 210.5 L 155.5 209 Z " /><path fill="rgb(254,254,254)" stroke="rgb(254,254,254)" stroke-width="1" opacity="1" d="M 129.5 212 L 130.5 214 Q 127.7 214.7 129.5 212 Z " /><path fill="rgb(254,254,254)" stroke="rgb(254,254,254)" stroke-width="1" opacity="1" d="M 88.5 215 L 89 217 L 91 216.5 L 90.5 215 L 95 218.5 L 95.5 220 Q 97.3 217.2 99 221.5 Q 99.8 223.8 97.5 223 L 95.5 224 L 95.5 223 L 97 222.5 Q 95.5 219.5 94 222.5 L 93.5 224 L 91.5 224 L 89.5 223 L 88 223.5 Q 87.3 221.3 89.5 222 L 91.5 223 L 91 221.5 L 90.5 220 L 88 221 L 89 217.5 L 88.5 215 Z M 92 217 L 90 219 L 92 219 L 92 217 Z M 94 218 L 92 220 L 94 220 L 94 218 Z " /><path fill="rgb(254,254,254)" stroke="rgb(254,254,254)" stroke-width="1" opacity="1" d="M 101.5 222 L 100.5 224 L 101.5 222 Z " /><path fill="rgb(254,254,254)" stroke="rgb(254,254,254)" stroke-width="1" opacity="1" d="M 104.5 223 L 107 224 L 107.5 226 L 109.5 225 L 111 228 Q 107.7 226.9 109 231 L 111 230.5 L 110.5 229 L 113 229.5 L 109.5 232 L 105.5 230 L 104.5 232 L 104 230.5 L 104.5 226 L 106.5 230 L 108 229.5 L 108 227.5 L 105.5 225 Q 102.7 225.7 104.5 223 Z " /><path fill="rgb(254,254,254)" stroke="rgb(254,254,254)" stroke-width="1" opacity="1" d="M 136.5 223 L 138 223.5 L 135 225.5 L 136 230.5 L 133.5 232 L 133.5 231 Q 135.8 231.8 135 229.5 L 133.5 230 Q 131.3 229.3 132 231.5 L 131 231.5 Q 131.8 229.3 129.5 230 L 129.5 232 L 127 230.5 L 129 229.5 L 124 228 Q 125.1 230.7 122.5 230 L 117.5 227 L 114 227.5 L 121 231.5 L 119.5 231 L 112 227.5 L 117.5 226 L 123.5 228 L 123.5 226 L 128.5 228 L 129.5 225 L 131.5 225 L 133.5 224 Q 135 226.5 136.5 223 Z M 134 225 L 133 229 L 134 229 L 134 225 Z " /><path fill="rgb(254,254,254)" stroke="rgb(254,254,254)" stroke-width="1" opacity="1" d="M 114.5 231 L 117 231.5 L 114.5 232 L 114.5 231 Z " /><path fill="rgb(255,255,255)" stroke="rgb(255,255,255)" stroke-width="1" opacity="1" d="M 0 0 L 258 0 L 258 245 L 0 245 L 0 0 Z M 163 40 L 160 43 L 163 44 L 164 46 L 164 43 L 162 43 L 165 41 L 163 40 Z M 167 40 L 167 43 Q 169 47 165 46 L 165 48 L 164 48 L 162 51 L 160 52 L 160 54 L 159 57 L 157 58 L 157 59 Q 159 58 158 61 Q 152 61 150 66 Q 149 69 152 68 L 151 67 L 155 63 Q 156 65 158 62 L 158 65 L 157 68 L 157 70 Q 160 69 159 72 L 162 75 L 161 76 Q 162 78 164 76 Q 167 75 165 80 L 168 78 L 170 80 L 181 80 L 187 78 L 187 80 L 189 79 Q 191 80 190 78 L 187 77 L 190 76 L 192 77 L 191 74 Q 190 71 193 72 L 192 71 L 195 67 L 195 70 L 197 69 L 196 63 L 195 65 L 194 65 L 196 57 L 195 57 Q 196 59 193 58 Q 192 55 195 56 Q 196 53 193 54 Q 189 53 190 49 Q 186 50 185 47 L 188 45 L 187 47 Q 186 49 189 48 L 191 45 L 192 48 L 192 45 Q 191 42 190 44 L 187 42 L 185 42 L 183 42 L 185 41 L 185 40 L 182 41 Q 179 40 180 44 L 182 43 L 185 44 L 186 44 Q 187 46 184 45 L 182 45 L 178 44 L 180 41 L 179 40 L 177 43 L 173 45 L 172 44 L 169 45 L 170 43 L 173 44 L 173 43 L 172 41 L 169 42 L 167 40 Z M 188 40 L 189 42 L 191 42 L 188 40 Z M 165 42 L 165 45 L 166 45 Q 167 41 165 42 Z M 162 46 L 163 48 Q 164 45 162 46 Z M 108 48 L 104 51 L 107 52 L 106 51 L 109 49 L 108 48 Z M 115 48 L 116 50 Q 117 47 115 48 Z M 131 48 Q 129 51 125 51 L 128 52 L 124 54 L 121 53 L 123 49 L 117 51 L 120 52 L 114 54 Q 111 53 113 52 L 110 51 L 111 54 L 111 55 L 109 54 L 109 56 Q 106 54 104 59 L 103 58 L 102 60 L 96 65 L 98 66 L 97 66 L 97 68 L 94 74 L 95 76 L 94 78 L 95 81 L 95 136 L 94 137 L 94 145 L 95 146 L 94 145 L 91 147 L 95 149 L 91 151 L 89 151 Q 89 157 85 159 L 85 158 L 83 157 L 83 160 L 80 164 L 82 164 L 80 169 L 79 168 L 78 171 L 79 172 Q 76 173 78 175 Q 74 173 78 172 L 77 170 L 75 173 L 77 178 L 75 181 L 77 181 L 76 183 Q 73 182 74 185 L 76 184 Q 78 183 77 186 L 76 185 L 75 187 L 74 185 L 73 188 Q 74 190 76 188 L 77 189 Q 76 191 72 190 L 73 193 L 74 191 L 77 193 L 77 191 Q 79 192 77 194 Q 76 196 79 195 L 78 197 L 80 201 L 80 203 L 81 205 L 81 204 L 82 204 L 80 209 L 81 209 Q 80 206 83 207 L 81 210 L 83 213 L 83 212 L 83 210 L 85 210 Q 87 209 86 212 L 90 214 L 92 219 L 94 218 L 94 220 L 96 219 L 98 223 Q 100 224 99 222 L 102 223 L 104 223 Q 103 226 106 225 L 108 225 L 109 227 Q 105 228 108 230 L 107 230 L 107 231 L 109 231 L 109 228 Q 112 229 111 227 L 111 225 L 118 227 Q 120 231 122 227 L 127 229 L 129 229 L 125 227 L 130 226 Q 131 224 132 227 L 132 228 L 131 226 L 129 230 L 131 230 L 133 230 L 134 230 L 133 226 Q 134 223 136 225 L 138 224 L 139 222 L 140 224 L 140 222 L 151 217 L 150 214 L 154 212 Q 153 209 156 210 L 157 213 L 157 209 L 155 209 L 158 208 L 157 207 L 158 205 L 160 205 L 159 202 Q 163 199 162 197 L 164 198 L 165 199 L 162 194 L 164 193 L 163 192 L 164 189 L 163 186 L 164 183 Q 163 180 166 181 L 166 175 L 165 177 L 163 177 L 164 174 L 162 174 L 164 171 L 162 169 Q 159 168 160 165 L 160 163 Q 159 160 158 162 L 156 160 Q 157 156 155 157 L 154 155 L 156 156 L 158 156 L 157 158 L 158 160 L 159 158 L 159 161 L 160 161 Q 161 155 158 154 L 156 155 L 154 154 L 152 154 L 151 153 L 151 149 L 149 147 L 150 146 L 150 144 L 147 148 L 146 146 L 148 145 L 146 144 L 146 76 L 145 75 L 146 72 L 143 68 L 146 67 L 142 65 L 142 63 Q 145 64 144 62 L 143 62 L 140 61 L 140 60 L 143 61 L 143 59 L 140 58 Q 141 55 139 56 L 139 58 L 136 56 L 136 58 L 132 56 Q 133 54 129 52 L 132 49 L 131 48 Z M 135 48 L 133 49 L 134 51 L 136 50 L 135 48 Z M 152 48 Q 151 53 155 51 Q 157 47 152 48 Z M 159 48 L 159 49 L 162 49 L 159 48 Z M 110 49 L 108 51 L 110 51 L 110 49 Z M 115 50 L 114 52 L 117 52 L 115 50 Z M 159 50 L 157 51 L 154 57 L 153 59 L 156 58 L 155 57 L 156 54 L 160 51 L 159 50 Z M 131 51 L 133 53 L 134 53 L 131 51 Z M 107 52 L 107 54 L 109 53 L 107 52 Z M 157 53 L 157 55 L 159 54 L 157 53 Z M 199 53 L 200 55 Q 201 52 199 53 Z M 153 54 L 152 57 L 153 57 L 153 54 Z M 97 56 L 99 60 L 98 61 L 100 61 L 101 58 L 97 56 Z M 199 58 L 196 62 L 198 64 L 199 61 L 199 58 Z M 154 59 Q 153 62 156 61 Q 157 58 154 59 Z M 97 60 Q 95 63 98 62 L 97 60 Z M 148 64 L 148 65 L 150 65 L 148 64 Z M 200 65 L 198 68 L 199 70 L 200 68 L 200 65 Z M 147 66 L 148 69 Q 147 71 150 70 L 149 74 L 150 77 L 150 75 L 152 75 L 151 71 L 153 71 L 151 69 Q 148 70 149 66 L 147 66 Z M 146 68 L 145 70 L 148 72 L 146 68 Z M 155 70 L 153 72 L 155 72 L 155 70 Z M 92 72 L 89 73 L 90 76 L 94 73 L 92 72 Z M 147 73 L 147 80 L 148 80 Q 149 74 147 73 Z M 93 75 L 90 78 L 90 79 L 92 80 L 92 144 L 88 145 L 93 145 L 93 79 L 92 78 L 94 77 Q 95 74 93 75 Z M 89 76 L 88 80 L 89 80 L 89 76 Z M 151 77 L 150 79 L 152 80 L 151 77 Z M 161 78 Q 159 81 162 80 L 161 78 Z M 149 80 L 148 136 L 149 136 L 149 80 Z M 151 136 L 150 144 L 151 144 L 151 136 Z M 89 146 L 90 148 L 91 148 L 89 146 Z M 81 152 Q 81 155 83 153 L 82 155 L 85 156 L 84 155 L 86 155 Q 88 156 87 154 Q 86 151 85 153 L 81 152 Z M 160 152 L 158 154 L 160 154 L 160 152 Z M 82 156 Q 79 158 82 159 L 83 157 L 82 156 Z M 164 168 L 167 172 L 168 172 L 164 168 Z M 74 169 L 72 173 L 73 177 L 74 173 L 75 170 L 74 169 Z M 164 172 L 164 174 L 166 173 L 164 172 Z M 168 175 L 167 178 L 168 178 L 168 175 Z M 168 180 L 164 185 L 166 189 Q 165 184 168 183 L 168 180 Z M 168 185 L 167 188 L 168 188 L 168 185 Z M 165 189 L 164 192 L 165 192 L 165 189 Z M 166 190 Q 165 193 168 192 Q 169 189 166 190 Z M 167 194 L 165 197 L 166 199 L 167 199 L 167 194 Z M 77 195 L 74 197 L 73 199 L 77 197 L 77 195 Z M 85 211 Q 83 214 86 213 L 85 211 Z M 84 213 L 83 216 L 85 216 L 84 213 Z M 156 213 L 154 215 L 156 215 L 156 213 Z M 90 217 L 88 219 Q 87 222 90 221 Q 88 219 91 218 L 90 217 Z M 152 217 L 149 219 L 151 219 L 152 220 L 152 217 Z M 91 219 L 92 222 L 94 221 L 91 219 Z M 149 220 Q 149 224 151 221 L 149 220 Z M 146 221 L 145 223 L 147 222 L 147 224 L 149 223 L 146 221 Z M 88 222 L 88 224 L 90 223 L 88 222 Z M 93 222 L 94 224 Q 95 221 93 222 Z M 142 223 L 142 224 L 144 224 L 142 223 Z M 135 225 L 135 231 L 136 231 L 135 225 Z M 115 228 L 116 230 L 118 230 L 115 228 Z M 122 228 L 124 230 Q 125 227 122 228 Z M 111 229 Q 111 233 113 230 L 111 229 Z M 128 230 L 129 232 L 130 232 L 128 230 Z M 115 231 L 115 232 L 117 232 L 115 231 Z " /><path fill="rgb(255,255,255)" stroke="rgb(255,255,255)" stroke-width="1" opacity="1" d="M 126.5 53 L 129 53.5 L 126.5 54 L 126.5 53 Z " /><path fill="rgb(255,255,255)" stroke="rgb(255,255,255)" stroke-width="1" opacity="1" d="M 174.5 56 L 176.5 57 L 178 56.5 L 178 58.5 Q 178.8 60.8 176.5 60 L 177 61.5 L 177.5 63 L 180.5 59 Q 178.9 60.8 182 62.5 Q 178.9 64.3 180.5 66 L 179 65.5 L 180 67.5 L 177.5 68 L 175.5 69 L 173 67.5 L 178 65.5 L 176.5 63 L 173.5 64 L 172 63.5 L 171.5 65 L 170 62.5 L 170.5 60 Q 172.3 63.1 174 61.5 L 173.5 63 Q 176.5 63.7 175 60 L 172 59.5 L 174 58.5 L 172 57.5 L 174.5 56 Z M 175 58 L 175 60 L 177 59 L 175 58 Z M 180 61 L 178 64 L 179 65 Q 183 63 180 61 Z " /><path fill="rgb(255,255,255)" stroke="rgb(255,255,255)" stroke-width="1" opacity="1" d="M 115.5 65 L 119.5 67 L 122 65.5 L 121.5 67 Q 124.1 67.7 123 65 L 125 65 L 126.5 68 L 128.5 67 Q 131.3 68.3 129 69.5 Q 129.8 71.8 127.5 71 L 128.5 73 L 131.5 71 L 130 73.5 L 131.5 75 L 132.5 73 L 134 75.5 L 131.5 76 L 129.5 75 L 129 76.5 L 130.5 79 L 129 79.5 L 131 80 L 131.5 139 L 133 138.5 L 134 152.5 L 132 156 Q 134.7 154.9 134 157.5 L 135.5 157 L 137 157.5 L 135 158.5 L 137.5 160 L 138.5 158 L 139 160 L 143 161.5 L 142 163.5 Q 144 161.8 146 165.5 Q 144 163.8 142 167.5 L 141 169.5 L 142.5 170 L 145 168.5 L 144.5 167 L 147 167.5 L 148 169.5 Q 146.8 172.3 145.5 170 L 144 170.5 L 145 172.5 Q 142.5 174 146 175.5 Q 145.2 178.5 149 177 L 148 173 L 146 172.5 L 148.5 171 L 150 173.5 L 149.5 175 L 151 175.5 L 151 177.5 L 152 179.5 L 150 179.5 L 149 183.5 L 150 183.5 Q 149.3 181.3 151.5 182 L 152 184.5 L 151.5 187 L 150.5 184 L 149.5 185 L 147 183.5 L 148 187.5 L 147 187.5 L 146 183 Q 143 181.8 144 185.5 L 141 184.5 L 140.5 186 L 140 184.5 L 141 182.5 L 139 178.5 L 141 175.5 L 139.5 176 L 137 174.5 L 139 174.5 Q 139.8 172.3 137.5 173 L 135 171.5 L 137 170.5 L 132 167.5 Q 131.3 163.8 133.5 163 L 135 163.5 Q 135.8 160.9 132.5 162 Q 131.3 159.8 130 162.5 L 131 164.5 L 130 164.5 L 128.5 162 L 128 163.5 Q 130.3 164.8 127.5 166 Q 124.8 164.8 127 163.5 L 129 160.5 L 127.5 160 L 126 160.5 L 126 119.5 L 127 118.5 L 125.5 116 L 127.5 117 L 126 114.5 L 125.5 113 L 124 117 L 122 116.5 L 122.5 115 L 120.5 114 L 120 115.5 L 120.5 117 L 118.5 117 L 115.5 116 L 113 117.5 L 113.5 119 L 112 118.5 L 112 120 L 114 120.5 L 114 160 Q 110.2 161.5 111 158.5 L 108 158.5 Q 107.3 160.8 109.5 160 L 109.5 161 L 108 161.5 L 109 162.5 L 107.5 165 L 110 163.5 L 111.5 161 L 114 162.5 L 112.5 165 L 110.5 164 L 109.5 166 L 111 166.5 L 107.5 169 Q 106.3 166.8 105 169.5 L 105.5 171 L 101 170 L 101.5 172 L 103.5 171 L 102.5 173 L 100.5 172 L 100 174 L 103 174.5 L 100.5 175 L 97.5 173 L 97 175 L 101 177.5 L 100.5 179 L 99.5 177 Q 96.3 178.8 100 180.5 L 98 182.5 L 96.5 185 L 95 185.5 L 97.5 187 L 100.5 182 L 100 183.5 L 101 186.5 L 100 186.5 L 99.5 185 L 97.5 188 L 95.5 187 Q 93.8 190.1 92 188.5 L 91.5 190 L 90 189.5 L 89.5 191 L 89 189.5 L 89 187.5 L 90 185.5 L 89.5 184 L 91 184.5 L 92 178.5 L 90 177.5 L 91 180.5 L 89.5 183 L 89 177.5 L 90.5 175 L 92 175.5 Q 92.8 173.3 90.5 174 L 91 172.5 L 91.5 171 L 93.5 172 Q 95.8 171.3 95 167.5 L 94 167.5 L 93.5 170 L 93 167.5 L 94 165 L 96.5 166 L 97.5 164 L 98 165.5 L 97.5 168 L 96 167.5 L 97.5 171 Q 100.1 168.5 99 163 L 103 163.5 L 100 164 Q 99 167.8 101.5 169 Q 103.8 169.8 103 167.5 L 104 165 Q 106.7 166.1 106 163.5 L 104 163.5 Q 108.3 161.3 103.5 159 L 103 160.5 L 103.5 162 L 101.5 162 L 100 161.5 L 102 161 L 101 158.5 L 103.5 158 L 105 158.5 L 104 156.5 L 107 156.5 L 107.5 158 L 109.5 155 L 111.5 156 L 110.5 154 L 109 153.5 L 111 152.5 L 108 152 L 107.5 155 L 107 136.5 L 106 135.5 L 106 80.5 L 107 77 Q 110.7 78.5 110 75.5 L 111 75.5 L 111.5 77 L 112 74.5 Q 110.8 71.8 109.5 74 Q 106.9 74.7 108 72 L 111 70.5 L 110.5 69 Q 111.8 71.3 113 68.5 L 112.5 67 L 114.5 67 L 116 66.5 L 115.5 65 Z M 117 67 L 114 69 L 117 69 L 117 67 Z M 121 67 L 119 69 L 122 69 L 121 67 Z M 124 68 Q 123 71 126 70 Q 127 67 124 68 Z M 118 69 L 120 72 L 121 71 L 118 69 Z M 123 69 Q 121 72 124 71 L 123 69 Z M 111 77 L 108 79 L 109 80 L 110 144 L 110 80 L 111 79 L 111 77 Z M 117 112 L 119 114 L 120 114 L 117 112 Z M 121 112 L 124 115 L 124 114 L 121 112 Z M 115 113 L 114 114 Q 111 113 112 116 L 115 116 L 115 113 Z M 117 114 Q 115 117 118 116 L 117 114 Z M 129 136 L 128 139 L 129 139 L 129 136 Z M 129 141 L 130 152 L 131 144 Q 132 140 129 141 Z M 132 144 L 131 152 L 132 152 L 132 144 Z M 131 152 Q 128 153 130 155 L 129 157 L 131 157 L 132 158 L 131 152 Z M 131 158 L 130 161 L 131 161 L 131 158 Z M 112 162 Q 110 165 113 164 L 112 162 Z M 139 162 L 136 163 L 137 165 L 139 164 L 141 164 Q 142 161 139 162 Z M 134 164 L 134 167 Q 137 166 134 164 Z M 107 165 L 105 167 L 107 167 L 107 165 Z M 138 165 L 136 166 L 136 167 L 139 166 L 138 165 Z M 141 165 L 141 167 L 143 166 L 141 165 Z M 140 167 L 141 169 Q 142 166 140 167 Z M 99 169 L 98 172 L 99 173 L 101 170 L 99 169 Z M 140 169 L 138 171 L 140 171 L 140 169 Z M 141 171 L 141 172 L 143 172 L 141 171 Z M 94 174 L 94 179 L 95 179 Q 96 175 94 174 Z M 143 175 L 141 179 L 143 178 L 143 175 Z M 97 178 L 95 180 L 96 182 Q 100 180 97 178 Z M 144 178 Q 141 179 143 181 L 142 183 L 144 183 L 145 181 L 144 178 Z M 148 179 L 146 183 L 147 183 Q 146 180 149 181 Q 150 178 148 179 Z M 94 180 L 93 183 L 95 184 L 94 180 Z M 141 180 L 142 182 Q 143 179 141 180 Z M 92 185 Q 89 187 92 188 L 92 187 L 94 187 Q 95 184 92 185 Z " /><path fill="rgb(255,255,255)" stroke="rgb(255,255,255)" stroke-width="1" opacity="1" d="M 173.5 65 L 176 65.5 L 173.5 66 L 173.5 65 Z " /><path fill="rgb(255,255,255)" stroke="rgb(255,255,255)" stroke-width="1" opacity="1" d="M 133.5 77 L 134 78.5 L 134 80.5 L 134 135.5 L 132 136 L 132 78.5 L 133.5 77 Z " /><path fill="rgb(255,255,255)" stroke="rgb(255,255,255)" stroke-width="1" opacity="1" d="M 148.5 148 L 149 150 L 147 149.5 L 148.5 148 Z " /><path fill="rgb(255,255,255)" stroke="rgb(255,255,255)" stroke-width="1" opacity="1" d="M 102.5 165 L 101.5 167 L 102.5 165 Z " /><path fill="rgb(255,255,255)" stroke="rgb(255,255,255)" stroke-width="1" opacity="1" d="M 117.5 176 L 122 176.5 Q 121.3 178.8 123.5 178 L 125 177.5 L 123.5 180 L 126.5 179 L 126 180.5 L 126.5 182 L 128 181.5 L 128 183.5 L 125.5 188 L 120.5 186 L 119.5 188 L 121.5 189 L 123.5 189 L 125 189.5 L 120.5 191 L 120.5 189 L 117.5 191 L 116 189.5 L 118.5 186 L 117 185.5 L 118 183.5 L 116 184.5 L 115.5 188 L 113.5 185 L 115 185.5 L 113 182.5 Q 116.5 181 114 179.5 L 117.5 176 Z M 120 178 L 120 180 L 120 182 L 119 181 L 117 182 L 121 183 L 122 181 L 124 186 L 125 182 L 122 180 L 122 179 L 120 178 Z M 115 182 L 115 183 L 117 183 L 115 182 Z M 126 182 L 125 184 L 127 185 L 126 182 Z M 122 183 L 121 184 Q 118 183 119 186 L 122 186 L 122 183 Z " /><path fill="rgb(255,255,255)" stroke="rgb(255,255,255)" stroke-width="1" opacity="1" d="M 145.5 186 L 146 187.5 L 145 190 L 149 189 L 149.5 187 L 151 189.5 L 149 189.5 L 149.5 193 L 151 192.5 Q 148.3 193.6 149 197 Q 146.3 198.1 147 195.5 Q 150.5 194 148 192.5 L 147.5 191 L 145 196.5 L 146.5 199 L 148 198.5 L 146 202 L 141 201 L 140.5 199 Q 137.5 200.5 140.5 202 Q 143.8 200.9 143 203.5 L 145 203.5 Q 143.3 206.8 141.5 203 L 138.5 201 L 138 202.5 L 142 205.5 L 140 206.5 L 140.5 205 Q 137.9 204.2 139 207.5 L 139.5 209 L 138 208.5 Q 138.8 210.8 136.5 210 Q 135 207.5 133.5 211 L 131 211.5 L 131.5 213 L 129.5 212 L 129 214 Q 125.7 215.1 127 211 Q 132.2 213.1 131 208.5 L 128.5 210 L 121 213.5 Q 121.7 216.1 119 215 Q 120.1 212.3 117.5 213 L 116 212.5 Q 115.3 214.8 117.5 214 L 117.5 215 L 112.5 212 L 112.5 214 L 108.5 212 L 107 211.5 L 109 207.5 L 107.5 204 L 103 207.5 L 105 208.5 L 106.5 206 L 108 208.5 L 105 209.5 L 104.5 211 L 103.5 209 L 102.5 210 L 99 206.5 L 97.5 201 L 96.5 204 L 93 199.5 L 95 198.5 L 94.5 196 L 91.5 197 L 91.5 196 L 93 195.5 L 92 193.5 L 95 191.5 L 93 190.5 L 94.5 190 L 96.5 191 L 96.5 189 Q 98.8 188.3 98 190.5 L 97.5 192 L 99.5 191 L 100 193 L 96 194.5 L 96.5 196 L 98 195.5 Q 97.3 198.1 100 197 L 99 194.5 L 101 194 L 102 198 L 95.5 197 L 95.5 198 Q 97.8 197.3 97 199.5 L 100.5 199 L 103.5 200 L 103 198.5 L 104 195.5 L 102 195 L 101 190 L 99 189.5 L 101 188.5 Q 101.5 194.4 106 196.5 Q 103.8 197.8 106.5 199 Q 111 198.5 111.5 202 Q 112.8 199.8 114 202.5 L 112.5 205 L 114 205.5 L 113.5 207 L 116 205.5 L 115 202.5 L 116 202.5 L 117.5 207 L 118.5 205 L 120 209.5 L 119 213 L 121 212.5 L 120 211.5 Q 123.1 209.8 121.5 208 L 123.5 209 L 122.5 207 L 120 205.5 L 120.5 203 L 123.5 205 L 124.5 202 Q 127.8 200.9 127 203.5 L 128.5 203 L 131 201.5 L 129.5 201 L 128 201.5 L 130.5 200 L 132 200.5 L 135.5 196 Q 137.8 196.8 137 194.5 L 137.5 192 L 139.5 192 Q 142.1 192.8 141 189.5 L 140 189.5 Q 140.8 191.8 138.5 191 L 140 188.5 L 140.5 187 L 143.5 188 Q 146 188.7 145.5 186 Z M 144 190 L 142 192 Q 141 195 144 194 L 143 193 L 146 194 L 144 190 Z M 95 193 L 93 195 L 95 195 L 95 193 Z M 142 194 L 139 198 L 141 198 L 142 196 L 142 194 Z M 139 195 L 137 197 L 139 197 L 139 195 Z M 134 199 L 132 203 L 126 206 L 129 206 L 130 208 L 134 206 L 135 203 L 137 203 Q 138 198 135 199 L 135 201 L 134 199 Z M 95 200 L 95 202 L 97 201 L 95 200 Z M 106 200 L 106 202 L 103 204 L 106 204 L 107 202 L 108 202 Q 107 205 110 204 L 111 209 L 111 205 L 112 203 Q 109 204 110 202 L 106 200 Z M 100 201 L 100 205 L 102 204 L 100 203 L 100 201 Z M 102 201 L 103 203 Q 104 200 102 201 Z M 138 203 Q 136 206 139 205 L 138 203 Z M 136 204 Q 134 207 137 206 L 136 204 Z M 101 205 L 100 207 Q 102 210 103 207 L 101 205 Z M 124 206 L 127 209 L 127 208 L 124 206 Z M 116 207 L 117 209 L 118 209 L 116 207 Z M 132 207 Q 130 211 134 210 L 134 208 L 132 207 Z M 136 207 L 137 209 Q 138 206 136 207 Z M 114 209 L 112 211 L 114 211 L 114 209 Z M 109 210 L 109 212 L 111 211 L 109 210 Z M 117 210 L 118 212 Q 119 209 117 210 Z " /><path fill="rgb(255,255,255)" stroke="rgb(255,255,255)" stroke-width="1" opacity="1" d="M 131.5 204 L 133 204.5 L 130.5 206 L 131.5 204 Z " /><path fill="rgb(255,255,255)" stroke="rgb(255,255,255)" stroke-width="1" opacity="1" d="M 125.5 212 L 125.5 215 L 123 213.5 L 125.5 212 Z " /><path fill="rgb(194,194,194)" stroke="rgb(194,194,194)" stroke-width="1" opacity="1" d="M 174.5 44 L 178 44.5 L 174.5 45 L 174.5 44 Z " /><path fill="rgb(194,194,194)" stroke="rgb(194,194,194)" stroke-width="1" opacity="1" d="M 185.5 47 L 186.5 49 L 185.5 47 Z " /><path fill="rgb(194,194,194)" stroke="rgb(194,194,194)" stroke-width="1" opacity="1" d="M 189.5 51 L 190.5 53 L 189.5 51 Z " /><path fill="rgb(194,194,194)" stroke="rgb(194,194,194)" stroke-width="1" opacity="1" d="M 119.5 53 L 122 53.5 L 119.5 54 L 119.5 53 Z " /><path fill="rgb(194,194,194)" stroke="rgb(194,194,194)" stroke-width="1" opacity="1" d="M 172.5 56 L 170.5 59 L 172.5 56 Z " /><path fill="rgb(194,194,194)" stroke="rgb(194,194,194)" stroke-width="1" opacity="1" d="M 180.5 57 L 181.5 59 L 180.5 57 Z " /><path fill="rgb(194,194,194)" stroke="rgb(194,194,194)" stroke-width="1" opacity="1" d="M 135.5 58 L 136.5 60 L 135.5 58 Z " /><path fill="rgb(194,194,194)" stroke="rgb(194,194,194)" stroke-width="1" opacity="1" d="M 158.5 58 L 159 61.5 L 158 61.5 L 158.5 58 Z " /><path fill="rgb(194,194,194)" stroke="rgb(194,194,194)" stroke-width="1" opacity="1" d="M 103.5 59 L 100.5 63 L 103.5 59 Z " /><path fill="rgb(194,194,194)" stroke="rgb(194,194,194)" stroke-width="1" opacity="1" d="M 182.5 60 L 183 63.5 L 182 63.5 L 182.5 60 Z " /><path fill="rgb(194,194,194)" stroke="rgb(194,194,194)" stroke-width="1" opacity="1" d="M 193.5 60 L 194 64.5 L 193 64.5 L 193.5 60 Z " /><path fill="rgb(194,194,194)" stroke="rgb(194,194,194)" stroke-width="1" opacity="1" d="M 139.5 62 L 140.5 64 L 139.5 62 Z " /><path fill="rgb(194,194,194)" stroke="rgb(194,194,194)" stroke-width="1" opacity="1" d="M 158.5 63 L 159 65.5 L 158 65.5 L 158.5 63 Z " /><path fill="rgb(194,194,194)" stroke="rgb(194,194,194)" stroke-width="1" opacity="1" d="M 99.5 64 L 98.5 66 L 99.5 64 Z " /><path fill="rgb(194,194,194)" stroke="rgb(194,194,194)" stroke-width="1" opacity="1" d="M 117.5 64 L 124 64.5 L 117.5 65 L 117.5 64 Z " /><path fill="rgb(194,194,194)" stroke="rgb(194,194,194)" stroke-width="1" opacity="1" d="M 128.5 66 L 131.5 70 L 128.5 66 Z " /><path fill="rgb(194,194,194)" stroke="rgb(194,194,194)" stroke-width="1" opacity="1" d="M 170.5 66 L 171.5 68 L 170.5 66 Z " /><path fill="rgb(194,194,194)" stroke="rgb(194,194,194)" stroke-width="1" opacity="1" d="M 108.5 70 L 107.5 72 L 108.5 70 Z " /><path fill="rgb(194,194,194)" stroke="rgb(194,194,194)" stroke-width="1" opacity="1" d="M 161.5 72 L 162.5 74 L 161.5 72 Z " /><path fill="rgb(194,194,194)" stroke="rgb(194,194,194)" stroke-width="1" opacity="1" d="M 189.5 73 L 186.5 77 L 189.5 73 Z " /><path fill="rgb(194,194,194)" stroke="rgb(194,194,194)" stroke-width="1" opacity="1" d="M 164.5 75 L 165.5 77 L 164.5 75 Z " /><path fill="rgb(194,194,194)" stroke="rgb(194,194,194)" stroke-width="1" opacity="1" d="M 134.5 76 L 135 154.5 L 136 155.5 L 134 154.5 L 134.5 76 Z " /><path fill="rgb(194,194,194)" stroke="rgb(194,194,194)" stroke-width="1" opacity="1" d="M 145.5 77 L 146 148.5 L 145 148.5 L 145.5 77 Z " /><path fill="rgb(194,194,194)" stroke="rgb(194,194,194)" stroke-width="1" opacity="1" d="M 94.5 149 L 93.5 151 L 94.5 149 Z " /><path fill="rgb(194,194,194)" stroke="rgb(194,194,194)" stroke-width="1" opacity="1" d="M 147.5 150 L 153.5 157 L 147.5 150 Z " /><path fill="rgb(194,194,194)" stroke="rgb(194,194,194)" stroke-width="1" opacity="1" d="M 137.5 156 L 138.5 158 L 137.5 156 Z " /><path fill="rgb(194,194,194)" stroke="rgb(194,194,194)" stroke-width="1" opacity="1" d="M 86.5 157 L 85.5 159 L 86.5 157 Z " /><path fill="rgb(194,194,194)" stroke="rgb(194,194,194)" stroke-width="1" opacity="1" d="M 100.5 158 L 99.5 160 L 100.5 158 Z " /><path fill="rgb(194,194,194)" stroke="rgb(194,194,194)" stroke-width="1" opacity="1" d="M 141.5 159 L 144.5 163 L 141.5 159 Z " /><path fill="rgb(194,194,194)" stroke="rgb(194,194,194)" stroke-width="1" opacity="1" d="M 155.5 159 L 156.5 161 L 155.5 159 Z " /><path fill="rgb(194,194,194)" stroke="rgb(194,194,194)" stroke-width="1" opacity="1" d="M 95.5 163 L 94.5 165 L 95.5 163 Z " /><path fill="rgb(194,194,194)" stroke="rgb(194,194,194)" stroke-width="1" opacity="1" d="M 146.5 165 L 147.5 167 L 146.5 165 Z " /><path fill="rgb(194,194,194)" stroke="rgb(194,194,194)" stroke-width="1" opacity="1" d="M 108.5 168 L 105.5 172 L 108.5 168 Z " /><path fill="rgb(194,194,194)" stroke="rgb(194,194,194)" stroke-width="1" opacity="1" d="M 104.5 173 L 103.5 175 L 104.5 173 Z " /><path fill="rgb(194,194,194)" stroke="rgb(194,194,194)" stroke-width="1" opacity="1" d="M 118.5 175 L 122 175.5 L 118.5 176 L 118.5 175 Z " /><path fill="rgb(194,194,194)" stroke="rgb(194,194,194)" stroke-width="1" opacity="1" d="M 124.5 176 L 126.5 179 L 124.5 176 Z " /><path fill="rgb(194,194,194)" stroke="rgb(194,194,194)" stroke-width="1" opacity="1" d="M 77.5 178 L 78 187.5 L 77 187.5 L 77.5 178 Z " /><path fill="rgb(194,194,194)" stroke="rgb(194,194,194)" stroke-width="1" opacity="1" d="M 88.5 178 L 89 188.5 L 88 188.5 L 88.5 178 Z " /><path fill="rgb(194,194,194)" stroke="rgb(194,194,194)" stroke-width="1" opacity="1" d="M 113.5 179 L 113 180.5 L 112.5 182 L 112 180.5 L 113.5 179 Z " /><path fill="rgb(194,194,194)" stroke="rgb(194,194,194)" stroke-width="1" opacity="1" d="M 101.5 180 L 102 186.5 L 101 186.5 L 101.5 180 Z " /><path fill="rgb(194,194,194)" stroke="rgb(194,194,194)" stroke-width="1" opacity="1" d="M 127.5 187 L 124.5 191 L 127.5 187 Z " /><path fill="rgb(194,194,194)" stroke="rgb(194,194,194)" stroke-width="1" opacity="1" d="M 162.5 189 L 163 191.5 L 162 191.5 L 162.5 189 Z " /><path fill="rgb(194,194,194)" stroke="rgb(194,194,194)" stroke-width="1" opacity="1" d="M 118.5 191 L 122 191.5 L 118.5 192 L 118.5 191 Z " /><path fill="rgb(194,194,194)" stroke="rgb(194,194,194)" stroke-width="1" opacity="1" d="M 136.5 193 L 135.5 195 L 136.5 193 Z " /><path fill="rgb(194,194,194)" stroke="rgb(194,194,194)" stroke-width="1" opacity="1" d="M 105.5 195 L 109.5 200 L 105.5 195 Z " /><path fill="rgb(194,194,194)" stroke="rgb(194,194,194)" stroke-width="1" opacity="1" d="M 147.5 200 L 146.5 202 L 147.5 200 Z " /><path fill="rgb(194,194,194)" stroke="rgb(194,194,194)" stroke-width="1" opacity="1" d="M 94.5 202 L 95.5 204 L 94.5 202 Z " /><path fill="rgb(194,194,194)" stroke="rgb(194,194,194)" stroke-width="1" opacity="1" d="M 118.5 202 L 122 202.5 L 118.5 203 L 118.5 202 Z " /><path fill="rgb(194,194,194)" stroke="rgb(194,194,194)" stroke-width="1" opacity="1" d="M 144.5 204 L 141.5 208 L 144.5 204 Z " /><path fill="rgb(194,194,194)" stroke="rgb(194,194,194)" stroke-width="1" opacity="1" d="M 100.5 208 L 101.5 210 L 100.5 208 Z " /><path fill="rgb(194,194,194)" stroke="rgb(194,194,194)" stroke-width="1" opacity="1" d="M 138.5 209 L 137.5 211 L 138.5 209 Z " /><path fill="rgb(194,194,194)" stroke="rgb(194,194,194)" stroke-width="1" opacity="1" d="M 154.5 209 L 152.5 212 L 154.5 209 Z " /><path fill="rgb(194,194,194)" stroke="rgb(194,194,194)" stroke-width="1" opacity="1" d="M 88.5 212 L 91.5 216 L 88.5 212 Z " /><path fill="rgb(194,194,194)" stroke="rgb(194,194,194)" stroke-width="1" opacity="1" d="M 149.5 214 L 146.5 218 L 149.5 214 Z " /><path fill="rgb(194,194,194)" stroke="rgb(194,194,194)" stroke-width="1" opacity="1" d="M 117.5 215 L 124 215.5 L 117.5 216 L 117.5 215 Z " /><path fill="rgb(194,194,194)" stroke="rgb(194,194,194)" stroke-width="1" opacity="1" d="M 94.5 217 L 95.5 219 L 94.5 217 Z " /><path fill="rgb(194,194,194)" stroke="rgb(194,194,194)" stroke-width="1" opacity="1" d="M 118.5 226 L 123 226.5 L 118.5 227 L 118.5 226 Z " /><path fill="rgb(29,29,29)" stroke="rgb(29,29,29)" stroke-width="1" opacity="1" d="M 165.5 48 L 161.5 53 L 165.5 48 Z " /><path fill="rgb(29,29,29)" stroke="rgb(29,29,29)" stroke-width="1" opacity="1" d="M 187.5 49 L 188.5 51 L 187.5 49 Z " /><path fill="rgb(29,29,29)" stroke="rgb(29,29,29)" stroke-width="1" opacity="1" d="M 114.5 54 L 117 54.5 L 114.5 55 L 114.5 54 Z " /><path fill="rgb(29,29,29)" stroke="rgb(29,29,29)" stroke-width="1" opacity="1" d="M 124.5 54 L 127 54.5 L 124.5 55 L 124.5 54 Z " /><path fill="rgb(29,29,29)" stroke="rgb(29,29,29)" stroke-width="1" opacity="1" d="M 173.5 55 L 178 55.5 L 173.5 56 L 173.5 55 Z " /><path fill="rgb(29,29,29)" stroke="rgb(29,29,29)" stroke-width="1" opacity="1" d="M 133.5 57 L 134.5 59 L 133.5 57 Z " /><path fill="rgb(29,29,29)" stroke="rgb(29,29,29)" stroke-width="1" opacity="1" d="M 105.5 58 L 104.5 60 L 105.5 58 Z " /><path fill="rgb(29,29,29)" stroke="rgb(29,29,29)" stroke-width="1" opacity="1" d="M 137.5 60 L 138.5 62 L 137.5 60 Z " /><path fill="rgb(29,29,29)" stroke="rgb(29,29,29)" stroke-width="1" opacity="1" d="M 101.5 62 L 100.5 64 L 101.5 62 Z " /><path fill="rgb(29,29,29)" stroke="rgb(29,29,29)" stroke-width="1" opacity="1" d="M 140.5 64 L 141.5 66 L 140.5 64 Z " /><path fill="rgb(29,29,29)" stroke="rgb(29,29,29)" stroke-width="1" opacity="1" d="M 182.5 64 L 183 65.5 L 179 68.5 L 182.5 64 Z " /><path fill="rgb(29,29,29)" stroke="rgb(29,29,29)" stroke-width="1" opacity="1" d="M 111.5 66 L 108.5 70 L 111.5 66 Z " /><path fill="rgb(29,29,29)" stroke="rgb(29,29,29)" stroke-width="1" opacity="1" d="M 190.5 71 L 189.5 73 L 190.5 71 Z " /><path fill="rgb(29,29,29)" stroke="rgb(29,29,29)" stroke-width="1" opacity="1" d="M 144.5 73 L 145 75.5 L 144 75.5 L 144.5 73 Z " /><path fill="rgb(29,29,29)" stroke="rgb(29,29,29)" stroke-width="1" opacity="1" d="M 95.5 75 L 96 149.5 L 95 149.5 L 95.5 75 Z " /><path fill="rgb(29,29,29)" stroke="rgb(29,29,29)" stroke-width="1" opacity="1" d="M 166.5 76 L 167.5 78 L 166.5 76 Z " /><path fill="rgb(29,29,29)" stroke="rgb(29,29,29)" stroke-width="1" opacity="1" d="M 173.5 79 L 179 79.5 L 173.5 80 L 173.5 79 Z " /><path fill="rgb(29,29,29)" stroke="rgb(29,29,29)" stroke-width="1" opacity="1" d="M 125.5 117 L 126 165.5 L 125 165.5 L 125.5 117 Z " /><path fill="rgb(29,29,29)" stroke="rgb(29,29,29)" stroke-width="1" opacity="1" d="M 145.5 149 L 147.5 152 L 145.5 149 Z " /><path fill="rgb(29,29,29)" stroke="rgb(29,29,29)" stroke-width="1" opacity="1" d="M 92.5 151 L 87.5 157 L 92.5 151 Z " /><path fill="rgb(29,29,29)" stroke="rgb(29,29,29)" stroke-width="1" opacity="1" d="M 102.5 156 L 101.5 158 L 102.5 156 Z " /><path fill="rgb(29,29,29)" stroke="rgb(29,29,29)" stroke-width="1" opacity="1" d="M 139.5 157 L 140.5 159 L 139.5 157 Z " /><path fill="rgb(29,29,29)" stroke="rgb(29,29,29)" stroke-width="1" opacity="1" d="M 153.5 157 L 154.5 159 L 153.5 157 Z " /><path fill="rgb(29,29,29)" stroke="rgb(29,29,29)" stroke-width="1" opacity="1" d="M 85.5 159 L 84.5 161 L 85.5 159 Z " /><path fill="rgb(29,29,29)" stroke="rgb(29,29,29)" stroke-width="1" opacity="1" d="M 98.5 159 L 95.5 163 L 98.5 159 Z " /><path fill="rgb(29,29,29)" stroke="rgb(29,29,29)" stroke-width="1" opacity="1" d="M 145.5 163 L 146.5 165 L 145.5 163 Z " /><path fill="rgb(29,29,29)" stroke="rgb(29,29,29)" stroke-width="1" opacity="1" d="M 93.5 165 L 92.5 167 L 93.5 165 Z " /><path fill="rgb(29,29,29)" stroke="rgb(29,29,29)" stroke-width="1" opacity="1" d="M 110.5 167 L 108.5 170 L 110.5 167 Z " /><path fill="rgb(29,29,29)" stroke="rgb(29,29,29)" stroke-width="1" opacity="1" d="M 131.5 168 L 134.5 172 L 131.5 168 Z " /><path fill="rgb(29,29,29)" stroke="rgb(29,29,29)" stroke-width="1" opacity="1" d="M 106.5 171 L 105.5 173 L 106.5 171 Z " /><path fill="rgb(29,29,29)" stroke="rgb(29,29,29)" stroke-width="1" opacity="1" d="M 115.5 176 L 113.5 179 L 115.5 176 Z " /><path fill="rgb(29,29,29)" stroke="rgb(29,29,29)" stroke-width="1" opacity="1" d="M 162.5 178 L 163 182.5 L 162 182.5 L 162.5 178 Z " /><path fill="rgb(29,29,29)" stroke="rgb(29,29,29)" stroke-width="1" opacity="1" d="M 138.5 179 L 139 181.5 L 138 181.5 L 138.5 179 Z " /><path fill="rgb(29,29,29)" stroke="rgb(29,29,29)" stroke-width="1" opacity="1" d="M 152.5 179 L 153 187.5 L 152 187.5 L 152.5 179 Z " /><path fill="rgb(29,29,29)" stroke="rgb(29,29,29)" stroke-width="1" opacity="1" d="M 138.5 185 L 139 187.5 L 138 187.5 L 138.5 185 Z " /><path fill="rgb(29,29,29)" stroke="rgb(29,29,29)" stroke-width="1" opacity="1" d="M 162.5 185 L 163 188.5 L 162 188.5 L 162.5 185 Z " /><path fill="rgb(29,29,29)" stroke="rgb(29,29,29)" stroke-width="1" opacity="1" d="M 113.5 188 L 115.5 191 L 113.5 188 Z " /><path fill="rgb(29,29,29)" stroke="rgb(29,29,29)" stroke-width="1" opacity="1" d="M 78.5 189 L 79 191.5 L 78 191.5 L 78.5 189 Z " /><path fill="rgb(29,29,29)" stroke="rgb(29,29,29)" stroke-width="1" opacity="1" d="M 104.5 193 L 106.5 196 L 104.5 193 Z " /><path fill="rgb(29,29,29)" stroke="rgb(29,29,29)" stroke-width="1" opacity="1" d="M 134.5 195 L 131.5 199 L 134.5 195 Z " /><path fill="rgb(29,29,29)" stroke="rgb(29,29,29)" stroke-width="1" opacity="1" d="M 109.5 198 L 110.5 200 L 109.5 198 Z " /><path fill="rgb(29,29,29)" stroke="rgb(29,29,29)" stroke-width="1" opacity="1" d="M 92.5 200 L 93.5 202 L 92.5 200 Z " /><path fill="rgb(29,29,29)" stroke="rgb(29,29,29)" stroke-width="1" opacity="1" d="M 146.5 202 L 145.5 204 L 146.5 202 Z " /><path fill="rgb(29,29,29)" stroke="rgb(29,29,29)" stroke-width="1" opacity="1" d="M 94.5 203 L 99.5 209 L 94.5 203 Z " /><path fill="rgb(29,29,29)" stroke="rgb(29,29,29)" stroke-width="1" opacity="1" d="M 84.5 206 L 85.5 208 L 84.5 206 Z " /><path fill="rgb(29,29,29)" stroke="rgb(29,29,29)" stroke-width="1" opacity="1" d="M 140.5 208 L 138.5 211 L 140.5 208 Z " /><path fill="rgb(29,29,29)" stroke="rgb(29,29,29)" stroke-width="1" opacity="1" d="M 154.5 208 L 153.5 210 L 154.5 208 Z " /><path fill="rgb(29,29,29)" stroke="rgb(29,29,29)" stroke-width="1" opacity="1" d="M 86.5 209 L 93.5 217 L 86.5 209 Z " /><path fill="rgb(29,29,29)" stroke="rgb(29,29,29)" stroke-width="1" opacity="1" d="M 102.5 210 L 103.5 212 L 102.5 210 Z " /><path fill="rgb(29,29,29)" stroke="rgb(29,29,29)" stroke-width="1" opacity="1" d="M 151.5 212 L 150.5 214 L 151.5 212 Z " /><path fill="rgb(29,29,29)" stroke="rgb(29,29,29)" stroke-width="1" opacity="1" d="M 114.5 215 L 117 215.5 L 114.5 216 L 114.5 215 Z " /><path fill="rgb(29,29,29)" stroke="rgb(29,29,29)" stroke-width="1" opacity="1" d="M 145.5 217 L 144.5 219 L 145.5 217 Z " /><path fill="rgb(29,29,29)" stroke="rgb(29,29,29)" stroke-width="1" opacity="1" d="M 113.5 225 L 116 225.5 L 113.5 226 L 113.5 225 Z " /><path fill="rgb(0,0,0)" stroke="rgb(0,0,0)" stroke-width="1" opacity="1" d="M 172.5 45 Q 185.4 44.6 190 52.5 Q 193.9 56.6 193 65.5 L 186.5 76 Q 182 80.5 171.5 79 L 162 72.5 L 159 66.5 L 159 58.5 Q 160.8 51.3 166.5 48 L 172.5 45 Z M 174 55 L 170 57 Q 168 59 169 66 L 176 70 L 180 69 Q 185 67 183 60 Q 181 54 174 55 Z " /><path fill="rgb(0,0,0)" stroke="rgb(0,0,0)" stroke-width="1" opacity="1" d="M 117.5 54 L 128.5 55 L 140 63.5 L 143 68.5 L 145 76.5 L 145 149.5 L 147.5 152 L 153 156.5 L 160 168.5 L 163 184.5 Q 160.3 186.3 162 192.5 L 156 206.5 L 146.5 217 L 129.5 225 L 116.5 226 L 104.5 223 L 96.5 219 L 86 208.5 L 79 194.5 L 78 177.5 Q 81.8 159.3 94.5 150 L 96 149.5 L 96 72.5 Q 98.3 64.8 103.5 60 L 112.5 55 L 117.5 54 Z M 116 64 L 112 66 L 106 74 L 106 155 L 99 159 Q 90 165 88 178 L 88 191 L 94 204 Q 101 213 115 216 L 126 216 L 139 211 Q 150 204 153 188 Q 153 173 147 165 Q 143 157 135 155 L 135 75 L 133 71 Q 129 62 116 64 Z " /><path fill="rgb(0,0,0)" stroke="rgb(0,0,0)" stroke-width="1" opacity="1" d="M 115 117 L 124.5 117 L 125 117.5 L 125 165.5 L 126.5 166 L 136 173.5 L 138 177.5 L 139 184.5 L 136 193.5 L 130.5 199 Q 126.4 202.9 117.5 202 Q 110.8 200.8 107 196.5 Q 100.6 191.9 102 179.5 L 107 170 L 115 166 L 115 117 Z M 118 175 L 116 176 L 112 181 L 113 189 L 118 192 Q 124 193 127 190 L 129 186 L 128 180 Q 127 174 118 175 Z " /></svg>